%TF.GenerationSoftware,KiCad,Pcbnew,7.0.7-2.fc38*%
%TF.CreationDate,2023-08-26T22:40:14+08:00*%
%TF.ProjectId,split_keyboard_I,73706c69-745f-46b6-9579-626f6172645f,v1.0.0*%
%TF.SameCoordinates,Original*%
%TF.FileFunction,Paste,Top*%
%TF.FilePolarity,Positive*%
%FSLAX46Y46*%
G04 Gerber Fmt 4.6, Leading zero omitted, Abs format (unit mm)*
G04 Created by KiCad (PCBNEW 7.0.7-2.fc38) date 2023-08-26 22:40:14*
%MOMM*%
%LPD*%
G01*
G04 APERTURE LIST*
G04 Aperture macros list*
%AMRotRect*
0 Rectangle, with rotation*
0 The origin of the aperture is its center*
0 $1 length*
0 $2 width*
0 $3 Rotation angle, in degrees counterclockwise*
0 Add horizontal line*
21,1,$1,$2,0,0,$3*%
G04 Aperture macros list end*
%ADD10R,1.800000X1.100000*%
%ADD11R,2.600000X2.600000*%
%ADD12R,0.900000X1.200000*%
%ADD13RotRect,2.600000X2.600000X50.000000*%
%ADD14RotRect,0.900000X1.200000X50.000000*%
G04 APERTURE END LIST*
D10*
%TO.C,B1*%
X259100000Y-77850000D03*
X252900000Y-77850000D03*
X259100000Y-74150000D03*
X252900000Y-74150000D03*
%TD*%
D11*
%TO.C,S12*%
X189275000Y-127050000D03*
X177725000Y-129250000D03*
%TD*%
%TO.C,S27*%
X243275000Y-110050000D03*
X231725000Y-112250000D03*
%TD*%
%TO.C,S15*%
X189275000Y-76050000D03*
X177725000Y-78250000D03*
%TD*%
D12*
%TO.C,D27*%
X238350000Y-121000000D03*
X241650000Y-121000000D03*
%TD*%
%TO.C,D2*%
X148350000Y-138000000D03*
X151650000Y-138000000D03*
%TD*%
%TO.C,D23*%
X220350000Y-121000000D03*
X223650000Y-121000000D03*
%TD*%
%TO.C,D28*%
X238350000Y-104000000D03*
X241650000Y-104000000D03*
%TD*%
%TO.C,D10*%
X166350000Y-87000000D03*
X169650000Y-87000000D03*
%TD*%
D11*
%TO.C,S18*%
X207275000Y-110050000D03*
X195725000Y-112250000D03*
%TD*%
D12*
%TO.C,D20*%
X202350000Y-87000000D03*
X205650000Y-87000000D03*
%TD*%
D11*
%TO.C,S6*%
X171275000Y-144050000D03*
X159725000Y-146250000D03*
%TD*%
D13*
%TO.C,S30*%
X244012338Y-154641088D03*
X238273439Y-164903034D03*
%TD*%
%TO.C,S31*%
X258567183Y-166854053D03*
X252828284Y-177115999D03*
%TD*%
D12*
%TO.C,D15*%
X184350000Y-87000000D03*
X187650000Y-87000000D03*
%TD*%
%TO.C,D24*%
X220350000Y-104000000D03*
X223650000Y-104000000D03*
%TD*%
D11*
%TO.C,S16*%
X207275000Y-144050000D03*
X195725000Y-146250000D03*
%TD*%
D12*
%TO.C,D6*%
X166350000Y-155000000D03*
X169650000Y-155000000D03*
%TD*%
D11*
%TO.C,S8*%
X171275000Y-110050000D03*
X159725000Y-112250000D03*
%TD*%
%TO.C,S5*%
X153275000Y-76050000D03*
X141725000Y-78250000D03*
%TD*%
%TO.C,S20*%
X207275000Y-76050000D03*
X195725000Y-78250000D03*
%TD*%
%TO.C,S25*%
X225275000Y-76050000D03*
X213725000Y-78250000D03*
%TD*%
%TO.C,S14*%
X189275000Y-93050000D03*
X177725000Y-95250000D03*
%TD*%
%TO.C,S21*%
X225275000Y-144050000D03*
X213725000Y-146250000D03*
%TD*%
%TO.C,S29*%
X243275000Y-76050000D03*
X231725000Y-78250000D03*
%TD*%
D12*
%TO.C,D7*%
X166350000Y-138000000D03*
X169650000Y-138000000D03*
%TD*%
D11*
%TO.C,S7*%
X171275000Y-127050000D03*
X159725000Y-129250000D03*
%TD*%
D12*
%TO.C,D11*%
X184350000Y-155000000D03*
X187650000Y-155000000D03*
%TD*%
%TO.C,D1*%
X148350000Y-155000000D03*
X151650000Y-155000000D03*
%TD*%
D11*
%TO.C,S4*%
X153275000Y-93050000D03*
X141725000Y-95250000D03*
%TD*%
D12*
%TO.C,D25*%
X220350000Y-87000000D03*
X223650000Y-87000000D03*
%TD*%
D14*
%TO.C,D30*%
X249234795Y-165452381D03*
X251355995Y-162924435D03*
%TD*%
D11*
%TO.C,S26*%
X243275000Y-127050000D03*
X231725000Y-129250000D03*
%TD*%
D12*
%TO.C,D8*%
X166350000Y-121000000D03*
X169650000Y-121000000D03*
%TD*%
D11*
%TO.C,S3*%
X153275000Y-110050000D03*
X141725000Y-112250000D03*
%TD*%
%TO.C,S2*%
X153275000Y-127050000D03*
X141725000Y-129250000D03*
%TD*%
%TO.C,S23*%
X225275000Y-110050000D03*
X213725000Y-112250000D03*
%TD*%
D12*
%TO.C,D3*%
X148350000Y-121000000D03*
X151650000Y-121000000D03*
%TD*%
D14*
%TO.C,D31*%
X263789640Y-177665346D03*
X265910840Y-175137400D03*
%TD*%
D12*
%TO.C,D16*%
X202350000Y-155000000D03*
X205650000Y-155000000D03*
%TD*%
%TO.C,D14*%
X184350000Y-104000000D03*
X187650000Y-104000000D03*
%TD*%
D11*
%TO.C,S1*%
X153275000Y-144050000D03*
X141725000Y-146250000D03*
%TD*%
%TO.C,S13*%
X189275000Y-110050000D03*
X177725000Y-112250000D03*
%TD*%
%TO.C,S11*%
X189275000Y-144050000D03*
X177725000Y-146250000D03*
%TD*%
%TO.C,S9*%
X171275000Y-93050000D03*
X159725000Y-95250000D03*
%TD*%
D12*
%TO.C,D29*%
X238350000Y-87000000D03*
X241650000Y-87000000D03*
%TD*%
%TO.C,D4*%
X148350000Y-104000000D03*
X151650000Y-104000000D03*
%TD*%
%TO.C,D5*%
X148350000Y-87000000D03*
X151650000Y-87000000D03*
%TD*%
D11*
%TO.C,S10*%
X171275000Y-76050000D03*
X159725000Y-78250000D03*
%TD*%
%TO.C,S19*%
X207275000Y-93050000D03*
X195725000Y-95250000D03*
%TD*%
%TO.C,S22*%
X225275000Y-127050000D03*
X213725000Y-129250000D03*
%TD*%
D12*
%TO.C,D9*%
X166350000Y-104000000D03*
X169650000Y-104000000D03*
%TD*%
D11*
%TO.C,S17*%
X207275000Y-127050000D03*
X195725000Y-129250000D03*
%TD*%
D12*
%TO.C,D19*%
X202350000Y-104000000D03*
X205650000Y-104000000D03*
%TD*%
%TO.C,D17*%
X202350000Y-138000000D03*
X205650000Y-138000000D03*
%TD*%
%TO.C,D21*%
X220350000Y-155000000D03*
X223650000Y-155000000D03*
%TD*%
D11*
%TO.C,S28*%
X243275000Y-93050000D03*
X231725000Y-95250000D03*
%TD*%
D12*
%TO.C,D22*%
X220350000Y-138000000D03*
X223650000Y-138000000D03*
%TD*%
D11*
%TO.C,S24*%
X225275000Y-93050000D03*
X213725000Y-95250000D03*
%TD*%
D12*
%TO.C,D13*%
X184350000Y-121000000D03*
X187650000Y-121000000D03*
%TD*%
%TO.C,D26*%
X238350000Y-138000000D03*
X241650000Y-138000000D03*
%TD*%
%TO.C,D12*%
X184350000Y-138000000D03*
X187650000Y-138000000D03*
%TD*%
%TO.C,D18*%
X202350000Y-121000000D03*
X205650000Y-121000000D03*
%TD*%
M02*
