%TF.GenerationSoftware,KiCad,Pcbnew,7.0.7-2.fc38*%
%TF.CreationDate,2023-08-26T22:09:36+08:00*%
%TF.ProjectId,split_keyboard_I,73706c69-745f-46b6-9579-626f6172645f,v1.0.0*%
%TF.SameCoordinates,Original*%
%TF.FileFunction,Legend,Top*%
%TF.FilePolarity,Positive*%
%FSLAX46Y46*%
G04 Gerber Fmt 4.6, Leading zero omitted, Abs format (unit mm)*
G04 Created by KiCad (PCBNEW 7.0.7-2.fc38) date 2023-08-26 22:09:36*
%MOMM*%
%LPD*%
G01*
G04 APERTURE LIST*
%ADD10C,0.150000*%
%ADD11C,0.100000*%
%ADD12R,1.752600X1.752600*%
%ADD13C,1.752600*%
G04 APERTURE END LIST*
D10*
X279828571Y-96212295D02*
X279828571Y-95412295D01*
X279828571Y-95412295D02*
X280133333Y-95412295D01*
X280133333Y-95412295D02*
X280209523Y-95450390D01*
X280209523Y-95450390D02*
X280247618Y-95488485D01*
X280247618Y-95488485D02*
X280285714Y-95564676D01*
X280285714Y-95564676D02*
X280285714Y-95678961D01*
X280285714Y-95678961D02*
X280247618Y-95755152D01*
X280247618Y-95755152D02*
X280209523Y-95793247D01*
X280209523Y-95793247D02*
X280133333Y-95831342D01*
X280133333Y-95831342D02*
X279828571Y-95831342D01*
X280780952Y-95412295D02*
X280857142Y-95412295D01*
X280857142Y-95412295D02*
X280933333Y-95450390D01*
X280933333Y-95450390D02*
X280971428Y-95488485D01*
X280971428Y-95488485D02*
X281009523Y-95564676D01*
X281009523Y-95564676D02*
X281047618Y-95717057D01*
X281047618Y-95717057D02*
X281047618Y-95907533D01*
X281047618Y-95907533D02*
X281009523Y-96059914D01*
X281009523Y-96059914D02*
X280971428Y-96136104D01*
X280971428Y-96136104D02*
X280933333Y-96174200D01*
X280933333Y-96174200D02*
X280857142Y-96212295D01*
X280857142Y-96212295D02*
X280780952Y-96212295D01*
X280780952Y-96212295D02*
X280704761Y-96174200D01*
X280704761Y-96174200D02*
X280666666Y-96136104D01*
X280666666Y-96136104D02*
X280628571Y-96059914D01*
X280628571Y-96059914D02*
X280590475Y-95907533D01*
X280590475Y-95907533D02*
X280590475Y-95717057D01*
X280590475Y-95717057D02*
X280628571Y-95564676D01*
X280628571Y-95564676D02*
X280666666Y-95488485D01*
X280666666Y-95488485D02*
X280704761Y-95450390D01*
X280704761Y-95450390D02*
X280780952Y-95412295D01*
X281733333Y-95412295D02*
X281580952Y-95412295D01*
X281580952Y-95412295D02*
X281504761Y-95450390D01*
X281504761Y-95450390D02*
X281466666Y-95488485D01*
X281466666Y-95488485D02*
X281390476Y-95602771D01*
X281390476Y-95602771D02*
X281352380Y-95755152D01*
X281352380Y-95755152D02*
X281352380Y-96059914D01*
X281352380Y-96059914D02*
X281390476Y-96136104D01*
X281390476Y-96136104D02*
X281428571Y-96174200D01*
X281428571Y-96174200D02*
X281504761Y-96212295D01*
X281504761Y-96212295D02*
X281657142Y-96212295D01*
X281657142Y-96212295D02*
X281733333Y-96174200D01*
X281733333Y-96174200D02*
X281771428Y-96136104D01*
X281771428Y-96136104D02*
X281809523Y-96059914D01*
X281809523Y-96059914D02*
X281809523Y-95869438D01*
X281809523Y-95869438D02*
X281771428Y-95793247D01*
X281771428Y-95793247D02*
X281733333Y-95755152D01*
X281733333Y-95755152D02*
X281657142Y-95717057D01*
X281657142Y-95717057D02*
X281504761Y-95717057D01*
X281504761Y-95717057D02*
X281428571Y-95755152D01*
X281428571Y-95755152D02*
X281390476Y-95793247D01*
X281390476Y-95793247D02*
X281352380Y-95869438D01*
X270647619Y-75892295D02*
X270380952Y-75511342D01*
X270190476Y-75892295D02*
X270190476Y-75092295D01*
X270190476Y-75092295D02*
X270495238Y-75092295D01*
X270495238Y-75092295D02*
X270571428Y-75130390D01*
X270571428Y-75130390D02*
X270609523Y-75168485D01*
X270609523Y-75168485D02*
X270647619Y-75244676D01*
X270647619Y-75244676D02*
X270647619Y-75358961D01*
X270647619Y-75358961D02*
X270609523Y-75435152D01*
X270609523Y-75435152D02*
X270571428Y-75473247D01*
X270571428Y-75473247D02*
X270495238Y-75511342D01*
X270495238Y-75511342D02*
X270190476Y-75511342D01*
X270952380Y-75663723D02*
X271333333Y-75663723D01*
X270876190Y-75892295D02*
X271142857Y-75092295D01*
X271142857Y-75092295D02*
X271409523Y-75892295D01*
X271599999Y-75092295D02*
X271790475Y-75892295D01*
X271790475Y-75892295D02*
X271942856Y-75320866D01*
X271942856Y-75320866D02*
X272095237Y-75892295D01*
X272095237Y-75892295D02*
X272285714Y-75092295D01*
X279828571Y-86052295D02*
X279828571Y-85252295D01*
X279828571Y-85252295D02*
X280133333Y-85252295D01*
X280133333Y-85252295D02*
X280209523Y-85290390D01*
X280209523Y-85290390D02*
X280247618Y-85328485D01*
X280247618Y-85328485D02*
X280285714Y-85404676D01*
X280285714Y-85404676D02*
X280285714Y-85518961D01*
X280285714Y-85518961D02*
X280247618Y-85595152D01*
X280247618Y-85595152D02*
X280209523Y-85633247D01*
X280209523Y-85633247D02*
X280133333Y-85671342D01*
X280133333Y-85671342D02*
X279828571Y-85671342D01*
X280780952Y-85252295D02*
X280857142Y-85252295D01*
X280857142Y-85252295D02*
X280933333Y-85290390D01*
X280933333Y-85290390D02*
X280971428Y-85328485D01*
X280971428Y-85328485D02*
X281009523Y-85404676D01*
X281009523Y-85404676D02*
X281047618Y-85557057D01*
X281047618Y-85557057D02*
X281047618Y-85747533D01*
X281047618Y-85747533D02*
X281009523Y-85899914D01*
X281009523Y-85899914D02*
X280971428Y-85976104D01*
X280971428Y-85976104D02*
X280933333Y-86014200D01*
X280933333Y-86014200D02*
X280857142Y-86052295D01*
X280857142Y-86052295D02*
X280780952Y-86052295D01*
X280780952Y-86052295D02*
X280704761Y-86014200D01*
X280704761Y-86014200D02*
X280666666Y-85976104D01*
X280666666Y-85976104D02*
X280628571Y-85899914D01*
X280628571Y-85899914D02*
X280590475Y-85747533D01*
X280590475Y-85747533D02*
X280590475Y-85557057D01*
X280590475Y-85557057D02*
X280628571Y-85404676D01*
X280628571Y-85404676D02*
X280666666Y-85328485D01*
X280666666Y-85328485D02*
X280704761Y-85290390D01*
X280704761Y-85290390D02*
X280780952Y-85252295D01*
X281352380Y-85328485D02*
X281390476Y-85290390D01*
X281390476Y-85290390D02*
X281466666Y-85252295D01*
X281466666Y-85252295D02*
X281657142Y-85252295D01*
X281657142Y-85252295D02*
X281733333Y-85290390D01*
X281733333Y-85290390D02*
X281771428Y-85328485D01*
X281771428Y-85328485D02*
X281809523Y-85404676D01*
X281809523Y-85404676D02*
X281809523Y-85480866D01*
X281809523Y-85480866D02*
X281771428Y-85595152D01*
X281771428Y-85595152D02*
X281314285Y-86052295D01*
X281314285Y-86052295D02*
X281809523Y-86052295D01*
X279828571Y-75892295D02*
X279828571Y-75092295D01*
X279828571Y-75092295D02*
X280133333Y-75092295D01*
X280133333Y-75092295D02*
X280209523Y-75130390D01*
X280209523Y-75130390D02*
X280247618Y-75168485D01*
X280247618Y-75168485D02*
X280285714Y-75244676D01*
X280285714Y-75244676D02*
X280285714Y-75358961D01*
X280285714Y-75358961D02*
X280247618Y-75435152D01*
X280247618Y-75435152D02*
X280209523Y-75473247D01*
X280209523Y-75473247D02*
X280133333Y-75511342D01*
X280133333Y-75511342D02*
X279828571Y-75511342D01*
X280780952Y-75092295D02*
X280857142Y-75092295D01*
X280857142Y-75092295D02*
X280933333Y-75130390D01*
X280933333Y-75130390D02*
X280971428Y-75168485D01*
X280971428Y-75168485D02*
X281009523Y-75244676D01*
X281009523Y-75244676D02*
X281047618Y-75397057D01*
X281047618Y-75397057D02*
X281047618Y-75587533D01*
X281047618Y-75587533D02*
X281009523Y-75739914D01*
X281009523Y-75739914D02*
X280971428Y-75816104D01*
X280971428Y-75816104D02*
X280933333Y-75854200D01*
X280933333Y-75854200D02*
X280857142Y-75892295D01*
X280857142Y-75892295D02*
X280780952Y-75892295D01*
X280780952Y-75892295D02*
X280704761Y-75854200D01*
X280704761Y-75854200D02*
X280666666Y-75816104D01*
X280666666Y-75816104D02*
X280628571Y-75739914D01*
X280628571Y-75739914D02*
X280590475Y-75587533D01*
X280590475Y-75587533D02*
X280590475Y-75397057D01*
X280590475Y-75397057D02*
X280628571Y-75244676D01*
X280628571Y-75244676D02*
X280666666Y-75168485D01*
X280666666Y-75168485D02*
X280704761Y-75130390D01*
X280704761Y-75130390D02*
X280780952Y-75092295D01*
X281809523Y-75892295D02*
X281352380Y-75892295D01*
X281580952Y-75892295D02*
X281580952Y-75092295D01*
X281580952Y-75092295D02*
X281504761Y-75206580D01*
X281504761Y-75206580D02*
X281428571Y-75282771D01*
X281428571Y-75282771D02*
X281352380Y-75320866D01*
X270228571Y-91132295D02*
X270228571Y-90332295D01*
X270228571Y-90332295D02*
X270533333Y-90332295D01*
X270533333Y-90332295D02*
X270609523Y-90370390D01*
X270609523Y-90370390D02*
X270647618Y-90408485D01*
X270647618Y-90408485D02*
X270685714Y-90484676D01*
X270685714Y-90484676D02*
X270685714Y-90598961D01*
X270685714Y-90598961D02*
X270647618Y-90675152D01*
X270647618Y-90675152D02*
X270609523Y-90713247D01*
X270609523Y-90713247D02*
X270533333Y-90751342D01*
X270533333Y-90751342D02*
X270228571Y-90751342D01*
X271447618Y-91132295D02*
X270990475Y-91132295D01*
X271219047Y-91132295D02*
X271219047Y-90332295D01*
X271219047Y-90332295D02*
X271142856Y-90446580D01*
X271142856Y-90446580D02*
X271066666Y-90522771D01*
X271066666Y-90522771D02*
X270990475Y-90560866D01*
X271828571Y-91132295D02*
X271980952Y-91132295D01*
X271980952Y-91132295D02*
X272057142Y-91094200D01*
X272057142Y-91094200D02*
X272095238Y-91056104D01*
X272095238Y-91056104D02*
X272171428Y-90941819D01*
X272171428Y-90941819D02*
X272209523Y-90789438D01*
X272209523Y-90789438D02*
X272209523Y-90484676D01*
X272209523Y-90484676D02*
X272171428Y-90408485D01*
X272171428Y-90408485D02*
X272133333Y-90370390D01*
X272133333Y-90370390D02*
X272057142Y-90332295D01*
X272057142Y-90332295D02*
X271904761Y-90332295D01*
X271904761Y-90332295D02*
X271828571Y-90370390D01*
X271828571Y-90370390D02*
X271790476Y-90408485D01*
X271790476Y-90408485D02*
X271752380Y-90484676D01*
X271752380Y-90484676D02*
X271752380Y-90675152D01*
X271752380Y-90675152D02*
X271790476Y-90751342D01*
X271790476Y-90751342D02*
X271828571Y-90789438D01*
X271828571Y-90789438D02*
X271904761Y-90827533D01*
X271904761Y-90827533D02*
X272057142Y-90827533D01*
X272057142Y-90827533D02*
X272133333Y-90789438D01*
X272133333Y-90789438D02*
X272171428Y-90751342D01*
X272171428Y-90751342D02*
X272209523Y-90675152D01*
X279828571Y-93672295D02*
X279828571Y-92872295D01*
X279828571Y-92872295D02*
X280133333Y-92872295D01*
X280133333Y-92872295D02*
X280209523Y-92910390D01*
X280209523Y-92910390D02*
X280247618Y-92948485D01*
X280247618Y-92948485D02*
X280285714Y-93024676D01*
X280285714Y-93024676D02*
X280285714Y-93138961D01*
X280285714Y-93138961D02*
X280247618Y-93215152D01*
X280247618Y-93215152D02*
X280209523Y-93253247D01*
X280209523Y-93253247D02*
X280133333Y-93291342D01*
X280133333Y-93291342D02*
X279828571Y-93291342D01*
X280780952Y-92872295D02*
X280857142Y-92872295D01*
X280857142Y-92872295D02*
X280933333Y-92910390D01*
X280933333Y-92910390D02*
X280971428Y-92948485D01*
X280971428Y-92948485D02*
X281009523Y-93024676D01*
X281009523Y-93024676D02*
X281047618Y-93177057D01*
X281047618Y-93177057D02*
X281047618Y-93367533D01*
X281047618Y-93367533D02*
X281009523Y-93519914D01*
X281009523Y-93519914D02*
X280971428Y-93596104D01*
X280971428Y-93596104D02*
X280933333Y-93634200D01*
X280933333Y-93634200D02*
X280857142Y-93672295D01*
X280857142Y-93672295D02*
X280780952Y-93672295D01*
X280780952Y-93672295D02*
X280704761Y-93634200D01*
X280704761Y-93634200D02*
X280666666Y-93596104D01*
X280666666Y-93596104D02*
X280628571Y-93519914D01*
X280628571Y-93519914D02*
X280590475Y-93367533D01*
X280590475Y-93367533D02*
X280590475Y-93177057D01*
X280590475Y-93177057D02*
X280628571Y-93024676D01*
X280628571Y-93024676D02*
X280666666Y-92948485D01*
X280666666Y-92948485D02*
X280704761Y-92910390D01*
X280704761Y-92910390D02*
X280780952Y-92872295D01*
X281771428Y-92872295D02*
X281390476Y-92872295D01*
X281390476Y-92872295D02*
X281352380Y-93253247D01*
X281352380Y-93253247D02*
X281390476Y-93215152D01*
X281390476Y-93215152D02*
X281466666Y-93177057D01*
X281466666Y-93177057D02*
X281657142Y-93177057D01*
X281657142Y-93177057D02*
X281733333Y-93215152D01*
X281733333Y-93215152D02*
X281771428Y-93253247D01*
X281771428Y-93253247D02*
X281809523Y-93329438D01*
X281809523Y-93329438D02*
X281809523Y-93519914D01*
X281809523Y-93519914D02*
X281771428Y-93596104D01*
X281771428Y-93596104D02*
X281733333Y-93634200D01*
X281733333Y-93634200D02*
X281657142Y-93672295D01*
X281657142Y-93672295D02*
X281466666Y-93672295D01*
X281466666Y-93672295D02*
X281390476Y-93634200D01*
X281390476Y-93634200D02*
X281352380Y-93596104D01*
X270228571Y-93672295D02*
X270228571Y-92872295D01*
X270228571Y-92872295D02*
X270533333Y-92872295D01*
X270533333Y-92872295D02*
X270609523Y-92910390D01*
X270609523Y-92910390D02*
X270647618Y-92948485D01*
X270647618Y-92948485D02*
X270685714Y-93024676D01*
X270685714Y-93024676D02*
X270685714Y-93138961D01*
X270685714Y-93138961D02*
X270647618Y-93215152D01*
X270647618Y-93215152D02*
X270609523Y-93253247D01*
X270609523Y-93253247D02*
X270533333Y-93291342D01*
X270533333Y-93291342D02*
X270228571Y-93291342D01*
X271447618Y-93672295D02*
X270990475Y-93672295D01*
X271219047Y-93672295D02*
X271219047Y-92872295D01*
X271219047Y-92872295D02*
X271142856Y-92986580D01*
X271142856Y-92986580D02*
X271066666Y-93062771D01*
X271066666Y-93062771D02*
X270990475Y-93100866D01*
X271904761Y-93215152D02*
X271828571Y-93177057D01*
X271828571Y-93177057D02*
X271790476Y-93138961D01*
X271790476Y-93138961D02*
X271752380Y-93062771D01*
X271752380Y-93062771D02*
X271752380Y-93024676D01*
X271752380Y-93024676D02*
X271790476Y-92948485D01*
X271790476Y-92948485D02*
X271828571Y-92910390D01*
X271828571Y-92910390D02*
X271904761Y-92872295D01*
X271904761Y-92872295D02*
X272057142Y-92872295D01*
X272057142Y-92872295D02*
X272133333Y-92910390D01*
X272133333Y-92910390D02*
X272171428Y-92948485D01*
X272171428Y-92948485D02*
X272209523Y-93024676D01*
X272209523Y-93024676D02*
X272209523Y-93062771D01*
X272209523Y-93062771D02*
X272171428Y-93138961D01*
X272171428Y-93138961D02*
X272133333Y-93177057D01*
X272133333Y-93177057D02*
X272057142Y-93215152D01*
X272057142Y-93215152D02*
X271904761Y-93215152D01*
X271904761Y-93215152D02*
X271828571Y-93253247D01*
X271828571Y-93253247D02*
X271790476Y-93291342D01*
X271790476Y-93291342D02*
X271752380Y-93367533D01*
X271752380Y-93367533D02*
X271752380Y-93519914D01*
X271752380Y-93519914D02*
X271790476Y-93596104D01*
X271790476Y-93596104D02*
X271828571Y-93634200D01*
X271828571Y-93634200D02*
X271904761Y-93672295D01*
X271904761Y-93672295D02*
X272057142Y-93672295D01*
X272057142Y-93672295D02*
X272133333Y-93634200D01*
X272133333Y-93634200D02*
X272171428Y-93596104D01*
X272171428Y-93596104D02*
X272209523Y-93519914D01*
X272209523Y-93519914D02*
X272209523Y-93367533D01*
X272209523Y-93367533D02*
X272171428Y-93291342D01*
X272171428Y-93291342D02*
X272133333Y-93253247D01*
X272133333Y-93253247D02*
X272057142Y-93215152D01*
X279828571Y-78432295D02*
X279828571Y-77632295D01*
X279828571Y-77632295D02*
X280133333Y-77632295D01*
X280133333Y-77632295D02*
X280209523Y-77670390D01*
X280209523Y-77670390D02*
X280247618Y-77708485D01*
X280247618Y-77708485D02*
X280285714Y-77784676D01*
X280285714Y-77784676D02*
X280285714Y-77898961D01*
X280285714Y-77898961D02*
X280247618Y-77975152D01*
X280247618Y-77975152D02*
X280209523Y-78013247D01*
X280209523Y-78013247D02*
X280133333Y-78051342D01*
X280133333Y-78051342D02*
X279828571Y-78051342D01*
X280780952Y-77632295D02*
X280857142Y-77632295D01*
X280857142Y-77632295D02*
X280933333Y-77670390D01*
X280933333Y-77670390D02*
X280971428Y-77708485D01*
X280971428Y-77708485D02*
X281009523Y-77784676D01*
X281009523Y-77784676D02*
X281047618Y-77937057D01*
X281047618Y-77937057D02*
X281047618Y-78127533D01*
X281047618Y-78127533D02*
X281009523Y-78279914D01*
X281009523Y-78279914D02*
X280971428Y-78356104D01*
X280971428Y-78356104D02*
X280933333Y-78394200D01*
X280933333Y-78394200D02*
X280857142Y-78432295D01*
X280857142Y-78432295D02*
X280780952Y-78432295D01*
X280780952Y-78432295D02*
X280704761Y-78394200D01*
X280704761Y-78394200D02*
X280666666Y-78356104D01*
X280666666Y-78356104D02*
X280628571Y-78279914D01*
X280628571Y-78279914D02*
X280590475Y-78127533D01*
X280590475Y-78127533D02*
X280590475Y-77937057D01*
X280590475Y-77937057D02*
X280628571Y-77784676D01*
X280628571Y-77784676D02*
X280666666Y-77708485D01*
X280666666Y-77708485D02*
X280704761Y-77670390D01*
X280704761Y-77670390D02*
X280780952Y-77632295D01*
X281542857Y-77632295D02*
X281619047Y-77632295D01*
X281619047Y-77632295D02*
X281695238Y-77670390D01*
X281695238Y-77670390D02*
X281733333Y-77708485D01*
X281733333Y-77708485D02*
X281771428Y-77784676D01*
X281771428Y-77784676D02*
X281809523Y-77937057D01*
X281809523Y-77937057D02*
X281809523Y-78127533D01*
X281809523Y-78127533D02*
X281771428Y-78279914D01*
X281771428Y-78279914D02*
X281733333Y-78356104D01*
X281733333Y-78356104D02*
X281695238Y-78394200D01*
X281695238Y-78394200D02*
X281619047Y-78432295D01*
X281619047Y-78432295D02*
X281542857Y-78432295D01*
X281542857Y-78432295D02*
X281466666Y-78394200D01*
X281466666Y-78394200D02*
X281428571Y-78356104D01*
X281428571Y-78356104D02*
X281390476Y-78279914D01*
X281390476Y-78279914D02*
X281352380Y-78127533D01*
X281352380Y-78127533D02*
X281352380Y-77937057D01*
X281352380Y-77937057D02*
X281390476Y-77784676D01*
X281390476Y-77784676D02*
X281428571Y-77708485D01*
X281428571Y-77708485D02*
X281466666Y-77670390D01*
X281466666Y-77670390D02*
X281542857Y-77632295D01*
X270133333Y-82712295D02*
X270400000Y-83512295D01*
X270400000Y-83512295D02*
X270666666Y-82712295D01*
X271390476Y-83436104D02*
X271352380Y-83474200D01*
X271352380Y-83474200D02*
X271238095Y-83512295D01*
X271238095Y-83512295D02*
X271161904Y-83512295D01*
X271161904Y-83512295D02*
X271047618Y-83474200D01*
X271047618Y-83474200D02*
X270971428Y-83398009D01*
X270971428Y-83398009D02*
X270933333Y-83321819D01*
X270933333Y-83321819D02*
X270895237Y-83169438D01*
X270895237Y-83169438D02*
X270895237Y-83055152D01*
X270895237Y-83055152D02*
X270933333Y-82902771D01*
X270933333Y-82902771D02*
X270971428Y-82826580D01*
X270971428Y-82826580D02*
X271047618Y-82750390D01*
X271047618Y-82750390D02*
X271161904Y-82712295D01*
X271161904Y-82712295D02*
X271238095Y-82712295D01*
X271238095Y-82712295D02*
X271352380Y-82750390D01*
X271352380Y-82750390D02*
X271390476Y-82788485D01*
X272190476Y-83436104D02*
X272152380Y-83474200D01*
X272152380Y-83474200D02*
X272038095Y-83512295D01*
X272038095Y-83512295D02*
X271961904Y-83512295D01*
X271961904Y-83512295D02*
X271847618Y-83474200D01*
X271847618Y-83474200D02*
X271771428Y-83398009D01*
X271771428Y-83398009D02*
X271733333Y-83321819D01*
X271733333Y-83321819D02*
X271695237Y-83169438D01*
X271695237Y-83169438D02*
X271695237Y-83055152D01*
X271695237Y-83055152D02*
X271733333Y-82902771D01*
X271733333Y-82902771D02*
X271771428Y-82826580D01*
X271771428Y-82826580D02*
X271847618Y-82750390D01*
X271847618Y-82750390D02*
X271961904Y-82712295D01*
X271961904Y-82712295D02*
X272038095Y-82712295D01*
X272038095Y-82712295D02*
X272152380Y-82750390D01*
X272152380Y-82750390D02*
X272190476Y-82788485D01*
X280190476Y-82750390D02*
X280114286Y-82712295D01*
X280114286Y-82712295D02*
X280000000Y-82712295D01*
X280000000Y-82712295D02*
X279885714Y-82750390D01*
X279885714Y-82750390D02*
X279809524Y-82826580D01*
X279809524Y-82826580D02*
X279771429Y-82902771D01*
X279771429Y-82902771D02*
X279733333Y-83055152D01*
X279733333Y-83055152D02*
X279733333Y-83169438D01*
X279733333Y-83169438D02*
X279771429Y-83321819D01*
X279771429Y-83321819D02*
X279809524Y-83398009D01*
X279809524Y-83398009D02*
X279885714Y-83474200D01*
X279885714Y-83474200D02*
X280000000Y-83512295D01*
X280000000Y-83512295D02*
X280076191Y-83512295D01*
X280076191Y-83512295D02*
X280190476Y-83474200D01*
X280190476Y-83474200D02*
X280228572Y-83436104D01*
X280228572Y-83436104D02*
X280228572Y-83169438D01*
X280228572Y-83169438D02*
X280076191Y-83169438D01*
X280571429Y-83512295D02*
X280571429Y-82712295D01*
X280571429Y-82712295D02*
X281028572Y-83512295D01*
X281028572Y-83512295D02*
X281028572Y-82712295D01*
X281409524Y-83512295D02*
X281409524Y-82712295D01*
X281409524Y-82712295D02*
X281600000Y-82712295D01*
X281600000Y-82712295D02*
X281714286Y-82750390D01*
X281714286Y-82750390D02*
X281790476Y-82826580D01*
X281790476Y-82826580D02*
X281828571Y-82902771D01*
X281828571Y-82902771D02*
X281866667Y-83055152D01*
X281866667Y-83055152D02*
X281866667Y-83169438D01*
X281866667Y-83169438D02*
X281828571Y-83321819D01*
X281828571Y-83321819D02*
X281790476Y-83398009D01*
X281790476Y-83398009D02*
X281714286Y-83474200D01*
X281714286Y-83474200D02*
X281600000Y-83512295D01*
X281600000Y-83512295D02*
X281409524Y-83512295D01*
X270228571Y-103832295D02*
X270228571Y-103032295D01*
X270228571Y-103032295D02*
X270533333Y-103032295D01*
X270533333Y-103032295D02*
X270609523Y-103070390D01*
X270609523Y-103070390D02*
X270647618Y-103108485D01*
X270647618Y-103108485D02*
X270685714Y-103184676D01*
X270685714Y-103184676D02*
X270685714Y-103298961D01*
X270685714Y-103298961D02*
X270647618Y-103375152D01*
X270647618Y-103375152D02*
X270609523Y-103413247D01*
X270609523Y-103413247D02*
X270533333Y-103451342D01*
X270533333Y-103451342D02*
X270228571Y-103451342D01*
X271447618Y-103832295D02*
X270990475Y-103832295D01*
X271219047Y-103832295D02*
X271219047Y-103032295D01*
X271219047Y-103032295D02*
X271142856Y-103146580D01*
X271142856Y-103146580D02*
X271066666Y-103222771D01*
X271066666Y-103222771D02*
X270990475Y-103260866D01*
X271942857Y-103032295D02*
X272019047Y-103032295D01*
X272019047Y-103032295D02*
X272095238Y-103070390D01*
X272095238Y-103070390D02*
X272133333Y-103108485D01*
X272133333Y-103108485D02*
X272171428Y-103184676D01*
X272171428Y-103184676D02*
X272209523Y-103337057D01*
X272209523Y-103337057D02*
X272209523Y-103527533D01*
X272209523Y-103527533D02*
X272171428Y-103679914D01*
X272171428Y-103679914D02*
X272133333Y-103756104D01*
X272133333Y-103756104D02*
X272095238Y-103794200D01*
X272095238Y-103794200D02*
X272019047Y-103832295D01*
X272019047Y-103832295D02*
X271942857Y-103832295D01*
X271942857Y-103832295D02*
X271866666Y-103794200D01*
X271866666Y-103794200D02*
X271828571Y-103756104D01*
X271828571Y-103756104D02*
X271790476Y-103679914D01*
X271790476Y-103679914D02*
X271752380Y-103527533D01*
X271752380Y-103527533D02*
X271752380Y-103337057D01*
X271752380Y-103337057D02*
X271790476Y-103184676D01*
X271790476Y-103184676D02*
X271828571Y-103108485D01*
X271828571Y-103108485D02*
X271866666Y-103070390D01*
X271866666Y-103070390D02*
X271942857Y-103032295D01*
X270228571Y-101292295D02*
X270228571Y-100492295D01*
X270228571Y-100492295D02*
X270533333Y-100492295D01*
X270533333Y-100492295D02*
X270609523Y-100530390D01*
X270609523Y-100530390D02*
X270647618Y-100568485D01*
X270647618Y-100568485D02*
X270685714Y-100644676D01*
X270685714Y-100644676D02*
X270685714Y-100758961D01*
X270685714Y-100758961D02*
X270647618Y-100835152D01*
X270647618Y-100835152D02*
X270609523Y-100873247D01*
X270609523Y-100873247D02*
X270533333Y-100911342D01*
X270533333Y-100911342D02*
X270228571Y-100911342D01*
X271447618Y-101292295D02*
X270990475Y-101292295D01*
X271219047Y-101292295D02*
X271219047Y-100492295D01*
X271219047Y-100492295D02*
X271142856Y-100606580D01*
X271142856Y-100606580D02*
X271066666Y-100682771D01*
X271066666Y-100682771D02*
X270990475Y-100720866D01*
X272133333Y-100492295D02*
X271980952Y-100492295D01*
X271980952Y-100492295D02*
X271904761Y-100530390D01*
X271904761Y-100530390D02*
X271866666Y-100568485D01*
X271866666Y-100568485D02*
X271790476Y-100682771D01*
X271790476Y-100682771D02*
X271752380Y-100835152D01*
X271752380Y-100835152D02*
X271752380Y-101139914D01*
X271752380Y-101139914D02*
X271790476Y-101216104D01*
X271790476Y-101216104D02*
X271828571Y-101254200D01*
X271828571Y-101254200D02*
X271904761Y-101292295D01*
X271904761Y-101292295D02*
X272057142Y-101292295D01*
X272057142Y-101292295D02*
X272133333Y-101254200D01*
X272133333Y-101254200D02*
X272171428Y-101216104D01*
X272171428Y-101216104D02*
X272209523Y-101139914D01*
X272209523Y-101139914D02*
X272209523Y-100949438D01*
X272209523Y-100949438D02*
X272171428Y-100873247D01*
X272171428Y-100873247D02*
X272133333Y-100835152D01*
X272133333Y-100835152D02*
X272057142Y-100797057D01*
X272057142Y-100797057D02*
X271904761Y-100797057D01*
X271904761Y-100797057D02*
X271828571Y-100835152D01*
X271828571Y-100835152D02*
X271790476Y-100873247D01*
X271790476Y-100873247D02*
X271752380Y-100949438D01*
X279828571Y-103832295D02*
X279828571Y-103032295D01*
X279828571Y-103032295D02*
X280133333Y-103032295D01*
X280133333Y-103032295D02*
X280209523Y-103070390D01*
X280209523Y-103070390D02*
X280247618Y-103108485D01*
X280247618Y-103108485D02*
X280285714Y-103184676D01*
X280285714Y-103184676D02*
X280285714Y-103298961D01*
X280285714Y-103298961D02*
X280247618Y-103375152D01*
X280247618Y-103375152D02*
X280209523Y-103413247D01*
X280209523Y-103413247D02*
X280133333Y-103451342D01*
X280133333Y-103451342D02*
X279828571Y-103451342D01*
X280780952Y-103032295D02*
X280857142Y-103032295D01*
X280857142Y-103032295D02*
X280933333Y-103070390D01*
X280933333Y-103070390D02*
X280971428Y-103108485D01*
X280971428Y-103108485D02*
X281009523Y-103184676D01*
X281009523Y-103184676D02*
X281047618Y-103337057D01*
X281047618Y-103337057D02*
X281047618Y-103527533D01*
X281047618Y-103527533D02*
X281009523Y-103679914D01*
X281009523Y-103679914D02*
X280971428Y-103756104D01*
X280971428Y-103756104D02*
X280933333Y-103794200D01*
X280933333Y-103794200D02*
X280857142Y-103832295D01*
X280857142Y-103832295D02*
X280780952Y-103832295D01*
X280780952Y-103832295D02*
X280704761Y-103794200D01*
X280704761Y-103794200D02*
X280666666Y-103756104D01*
X280666666Y-103756104D02*
X280628571Y-103679914D01*
X280628571Y-103679914D02*
X280590475Y-103527533D01*
X280590475Y-103527533D02*
X280590475Y-103337057D01*
X280590475Y-103337057D02*
X280628571Y-103184676D01*
X280628571Y-103184676D02*
X280666666Y-103108485D01*
X280666666Y-103108485D02*
X280704761Y-103070390D01*
X280704761Y-103070390D02*
X280780952Y-103032295D01*
X281428571Y-103832295D02*
X281580952Y-103832295D01*
X281580952Y-103832295D02*
X281657142Y-103794200D01*
X281657142Y-103794200D02*
X281695238Y-103756104D01*
X281695238Y-103756104D02*
X281771428Y-103641819D01*
X281771428Y-103641819D02*
X281809523Y-103489438D01*
X281809523Y-103489438D02*
X281809523Y-103184676D01*
X281809523Y-103184676D02*
X281771428Y-103108485D01*
X281771428Y-103108485D02*
X281733333Y-103070390D01*
X281733333Y-103070390D02*
X281657142Y-103032295D01*
X281657142Y-103032295D02*
X281504761Y-103032295D01*
X281504761Y-103032295D02*
X281428571Y-103070390D01*
X281428571Y-103070390D02*
X281390476Y-103108485D01*
X281390476Y-103108485D02*
X281352380Y-103184676D01*
X281352380Y-103184676D02*
X281352380Y-103375152D01*
X281352380Y-103375152D02*
X281390476Y-103451342D01*
X281390476Y-103451342D02*
X281428571Y-103489438D01*
X281428571Y-103489438D02*
X281504761Y-103527533D01*
X281504761Y-103527533D02*
X281657142Y-103527533D01*
X281657142Y-103527533D02*
X281733333Y-103489438D01*
X281733333Y-103489438D02*
X281771428Y-103451342D01*
X281771428Y-103451342D02*
X281809523Y-103375152D01*
X270590476Y-77670390D02*
X270514286Y-77632295D01*
X270514286Y-77632295D02*
X270400000Y-77632295D01*
X270400000Y-77632295D02*
X270285714Y-77670390D01*
X270285714Y-77670390D02*
X270209524Y-77746580D01*
X270209524Y-77746580D02*
X270171429Y-77822771D01*
X270171429Y-77822771D02*
X270133333Y-77975152D01*
X270133333Y-77975152D02*
X270133333Y-78089438D01*
X270133333Y-78089438D02*
X270171429Y-78241819D01*
X270171429Y-78241819D02*
X270209524Y-78318009D01*
X270209524Y-78318009D02*
X270285714Y-78394200D01*
X270285714Y-78394200D02*
X270400000Y-78432295D01*
X270400000Y-78432295D02*
X270476191Y-78432295D01*
X270476191Y-78432295D02*
X270590476Y-78394200D01*
X270590476Y-78394200D02*
X270628572Y-78356104D01*
X270628572Y-78356104D02*
X270628572Y-78089438D01*
X270628572Y-78089438D02*
X270476191Y-78089438D01*
X270971429Y-78432295D02*
X270971429Y-77632295D01*
X270971429Y-77632295D02*
X271428572Y-78432295D01*
X271428572Y-78432295D02*
X271428572Y-77632295D01*
X271809524Y-78432295D02*
X271809524Y-77632295D01*
X271809524Y-77632295D02*
X272000000Y-77632295D01*
X272000000Y-77632295D02*
X272114286Y-77670390D01*
X272114286Y-77670390D02*
X272190476Y-77746580D01*
X272190476Y-77746580D02*
X272228571Y-77822771D01*
X272228571Y-77822771D02*
X272266667Y-77975152D01*
X272266667Y-77975152D02*
X272266667Y-78089438D01*
X272266667Y-78089438D02*
X272228571Y-78241819D01*
X272228571Y-78241819D02*
X272190476Y-78318009D01*
X272190476Y-78318009D02*
X272114286Y-78394200D01*
X272114286Y-78394200D02*
X272000000Y-78432295D01*
X272000000Y-78432295D02*
X271809524Y-78432295D01*
X279828571Y-88592295D02*
X279828571Y-87792295D01*
X279828571Y-87792295D02*
X280133333Y-87792295D01*
X280133333Y-87792295D02*
X280209523Y-87830390D01*
X280209523Y-87830390D02*
X280247618Y-87868485D01*
X280247618Y-87868485D02*
X280285714Y-87944676D01*
X280285714Y-87944676D02*
X280285714Y-88058961D01*
X280285714Y-88058961D02*
X280247618Y-88135152D01*
X280247618Y-88135152D02*
X280209523Y-88173247D01*
X280209523Y-88173247D02*
X280133333Y-88211342D01*
X280133333Y-88211342D02*
X279828571Y-88211342D01*
X280780952Y-87792295D02*
X280857142Y-87792295D01*
X280857142Y-87792295D02*
X280933333Y-87830390D01*
X280933333Y-87830390D02*
X280971428Y-87868485D01*
X280971428Y-87868485D02*
X281009523Y-87944676D01*
X281009523Y-87944676D02*
X281047618Y-88097057D01*
X281047618Y-88097057D02*
X281047618Y-88287533D01*
X281047618Y-88287533D02*
X281009523Y-88439914D01*
X281009523Y-88439914D02*
X280971428Y-88516104D01*
X280971428Y-88516104D02*
X280933333Y-88554200D01*
X280933333Y-88554200D02*
X280857142Y-88592295D01*
X280857142Y-88592295D02*
X280780952Y-88592295D01*
X280780952Y-88592295D02*
X280704761Y-88554200D01*
X280704761Y-88554200D02*
X280666666Y-88516104D01*
X280666666Y-88516104D02*
X280628571Y-88439914D01*
X280628571Y-88439914D02*
X280590475Y-88287533D01*
X280590475Y-88287533D02*
X280590475Y-88097057D01*
X280590475Y-88097057D02*
X280628571Y-87944676D01*
X280628571Y-87944676D02*
X280666666Y-87868485D01*
X280666666Y-87868485D02*
X280704761Y-87830390D01*
X280704761Y-87830390D02*
X280780952Y-87792295D01*
X281314285Y-87792295D02*
X281809523Y-87792295D01*
X281809523Y-87792295D02*
X281542857Y-88097057D01*
X281542857Y-88097057D02*
X281657142Y-88097057D01*
X281657142Y-88097057D02*
X281733333Y-88135152D01*
X281733333Y-88135152D02*
X281771428Y-88173247D01*
X281771428Y-88173247D02*
X281809523Y-88249438D01*
X281809523Y-88249438D02*
X281809523Y-88439914D01*
X281809523Y-88439914D02*
X281771428Y-88516104D01*
X281771428Y-88516104D02*
X281733333Y-88554200D01*
X281733333Y-88554200D02*
X281657142Y-88592295D01*
X281657142Y-88592295D02*
X281428571Y-88592295D01*
X281428571Y-88592295D02*
X281352380Y-88554200D01*
X281352380Y-88554200D02*
X281314285Y-88516104D01*
X270228571Y-96212295D02*
X270228571Y-95412295D01*
X270228571Y-95412295D02*
X270533333Y-95412295D01*
X270533333Y-95412295D02*
X270609523Y-95450390D01*
X270609523Y-95450390D02*
X270647618Y-95488485D01*
X270647618Y-95488485D02*
X270685714Y-95564676D01*
X270685714Y-95564676D02*
X270685714Y-95678961D01*
X270685714Y-95678961D02*
X270647618Y-95755152D01*
X270647618Y-95755152D02*
X270609523Y-95793247D01*
X270609523Y-95793247D02*
X270533333Y-95831342D01*
X270533333Y-95831342D02*
X270228571Y-95831342D01*
X271447618Y-96212295D02*
X270990475Y-96212295D01*
X271219047Y-96212295D02*
X271219047Y-95412295D01*
X271219047Y-95412295D02*
X271142856Y-95526580D01*
X271142856Y-95526580D02*
X271066666Y-95602771D01*
X271066666Y-95602771D02*
X270990475Y-95640866D01*
X272171428Y-95412295D02*
X271790476Y-95412295D01*
X271790476Y-95412295D02*
X271752380Y-95793247D01*
X271752380Y-95793247D02*
X271790476Y-95755152D01*
X271790476Y-95755152D02*
X271866666Y-95717057D01*
X271866666Y-95717057D02*
X272057142Y-95717057D01*
X272057142Y-95717057D02*
X272133333Y-95755152D01*
X272133333Y-95755152D02*
X272171428Y-95793247D01*
X272171428Y-95793247D02*
X272209523Y-95869438D01*
X272209523Y-95869438D02*
X272209523Y-96059914D01*
X272209523Y-96059914D02*
X272171428Y-96136104D01*
X272171428Y-96136104D02*
X272133333Y-96174200D01*
X272133333Y-96174200D02*
X272057142Y-96212295D01*
X272057142Y-96212295D02*
X271866666Y-96212295D01*
X271866666Y-96212295D02*
X271790476Y-96174200D01*
X271790476Y-96174200D02*
X271752380Y-96136104D01*
X270228571Y-86052295D02*
X270228571Y-85252295D01*
X270228571Y-85252295D02*
X270533333Y-85252295D01*
X270533333Y-85252295D02*
X270609523Y-85290390D01*
X270609523Y-85290390D02*
X270647618Y-85328485D01*
X270647618Y-85328485D02*
X270685714Y-85404676D01*
X270685714Y-85404676D02*
X270685714Y-85518961D01*
X270685714Y-85518961D02*
X270647618Y-85595152D01*
X270647618Y-85595152D02*
X270609523Y-85633247D01*
X270609523Y-85633247D02*
X270533333Y-85671342D01*
X270533333Y-85671342D02*
X270228571Y-85671342D01*
X270990475Y-85328485D02*
X271028571Y-85290390D01*
X271028571Y-85290390D02*
X271104761Y-85252295D01*
X271104761Y-85252295D02*
X271295237Y-85252295D01*
X271295237Y-85252295D02*
X271371428Y-85290390D01*
X271371428Y-85290390D02*
X271409523Y-85328485D01*
X271409523Y-85328485D02*
X271447618Y-85404676D01*
X271447618Y-85404676D02*
X271447618Y-85480866D01*
X271447618Y-85480866D02*
X271409523Y-85595152D01*
X271409523Y-85595152D02*
X270952380Y-86052295D01*
X270952380Y-86052295D02*
X271447618Y-86052295D01*
X272209523Y-86052295D02*
X271752380Y-86052295D01*
X271980952Y-86052295D02*
X271980952Y-85252295D01*
X271980952Y-85252295D02*
X271904761Y-85366580D01*
X271904761Y-85366580D02*
X271828571Y-85442771D01*
X271828571Y-85442771D02*
X271752380Y-85480866D01*
X279828571Y-101292295D02*
X279828571Y-100492295D01*
X279828571Y-100492295D02*
X280133333Y-100492295D01*
X280133333Y-100492295D02*
X280209523Y-100530390D01*
X280209523Y-100530390D02*
X280247618Y-100568485D01*
X280247618Y-100568485D02*
X280285714Y-100644676D01*
X280285714Y-100644676D02*
X280285714Y-100758961D01*
X280285714Y-100758961D02*
X280247618Y-100835152D01*
X280247618Y-100835152D02*
X280209523Y-100873247D01*
X280209523Y-100873247D02*
X280133333Y-100911342D01*
X280133333Y-100911342D02*
X279828571Y-100911342D01*
X280780952Y-100492295D02*
X280857142Y-100492295D01*
X280857142Y-100492295D02*
X280933333Y-100530390D01*
X280933333Y-100530390D02*
X280971428Y-100568485D01*
X280971428Y-100568485D02*
X281009523Y-100644676D01*
X281009523Y-100644676D02*
X281047618Y-100797057D01*
X281047618Y-100797057D02*
X281047618Y-100987533D01*
X281047618Y-100987533D02*
X281009523Y-101139914D01*
X281009523Y-101139914D02*
X280971428Y-101216104D01*
X280971428Y-101216104D02*
X280933333Y-101254200D01*
X280933333Y-101254200D02*
X280857142Y-101292295D01*
X280857142Y-101292295D02*
X280780952Y-101292295D01*
X280780952Y-101292295D02*
X280704761Y-101254200D01*
X280704761Y-101254200D02*
X280666666Y-101216104D01*
X280666666Y-101216104D02*
X280628571Y-101139914D01*
X280628571Y-101139914D02*
X280590475Y-100987533D01*
X280590475Y-100987533D02*
X280590475Y-100797057D01*
X280590475Y-100797057D02*
X280628571Y-100644676D01*
X280628571Y-100644676D02*
X280666666Y-100568485D01*
X280666666Y-100568485D02*
X280704761Y-100530390D01*
X280704761Y-100530390D02*
X280780952Y-100492295D01*
X281504761Y-100835152D02*
X281428571Y-100797057D01*
X281428571Y-100797057D02*
X281390476Y-100758961D01*
X281390476Y-100758961D02*
X281352380Y-100682771D01*
X281352380Y-100682771D02*
X281352380Y-100644676D01*
X281352380Y-100644676D02*
X281390476Y-100568485D01*
X281390476Y-100568485D02*
X281428571Y-100530390D01*
X281428571Y-100530390D02*
X281504761Y-100492295D01*
X281504761Y-100492295D02*
X281657142Y-100492295D01*
X281657142Y-100492295D02*
X281733333Y-100530390D01*
X281733333Y-100530390D02*
X281771428Y-100568485D01*
X281771428Y-100568485D02*
X281809523Y-100644676D01*
X281809523Y-100644676D02*
X281809523Y-100682771D01*
X281809523Y-100682771D02*
X281771428Y-100758961D01*
X281771428Y-100758961D02*
X281733333Y-100797057D01*
X281733333Y-100797057D02*
X281657142Y-100835152D01*
X281657142Y-100835152D02*
X281504761Y-100835152D01*
X281504761Y-100835152D02*
X281428571Y-100873247D01*
X281428571Y-100873247D02*
X281390476Y-100911342D01*
X281390476Y-100911342D02*
X281352380Y-100987533D01*
X281352380Y-100987533D02*
X281352380Y-101139914D01*
X281352380Y-101139914D02*
X281390476Y-101216104D01*
X281390476Y-101216104D02*
X281428571Y-101254200D01*
X281428571Y-101254200D02*
X281504761Y-101292295D01*
X281504761Y-101292295D02*
X281657142Y-101292295D01*
X281657142Y-101292295D02*
X281733333Y-101254200D01*
X281733333Y-101254200D02*
X281771428Y-101216104D01*
X281771428Y-101216104D02*
X281809523Y-101139914D01*
X281809523Y-101139914D02*
X281809523Y-100987533D01*
X281809523Y-100987533D02*
X281771428Y-100911342D01*
X281771428Y-100911342D02*
X281733333Y-100873247D01*
X281733333Y-100873247D02*
X281657142Y-100835152D01*
X279828571Y-98752295D02*
X279828571Y-97952295D01*
X279828571Y-97952295D02*
X280133333Y-97952295D01*
X280133333Y-97952295D02*
X280209523Y-97990390D01*
X280209523Y-97990390D02*
X280247618Y-98028485D01*
X280247618Y-98028485D02*
X280285714Y-98104676D01*
X280285714Y-98104676D02*
X280285714Y-98218961D01*
X280285714Y-98218961D02*
X280247618Y-98295152D01*
X280247618Y-98295152D02*
X280209523Y-98333247D01*
X280209523Y-98333247D02*
X280133333Y-98371342D01*
X280133333Y-98371342D02*
X279828571Y-98371342D01*
X280780952Y-97952295D02*
X280857142Y-97952295D01*
X280857142Y-97952295D02*
X280933333Y-97990390D01*
X280933333Y-97990390D02*
X280971428Y-98028485D01*
X280971428Y-98028485D02*
X281009523Y-98104676D01*
X281009523Y-98104676D02*
X281047618Y-98257057D01*
X281047618Y-98257057D02*
X281047618Y-98447533D01*
X281047618Y-98447533D02*
X281009523Y-98599914D01*
X281009523Y-98599914D02*
X280971428Y-98676104D01*
X280971428Y-98676104D02*
X280933333Y-98714200D01*
X280933333Y-98714200D02*
X280857142Y-98752295D01*
X280857142Y-98752295D02*
X280780952Y-98752295D01*
X280780952Y-98752295D02*
X280704761Y-98714200D01*
X280704761Y-98714200D02*
X280666666Y-98676104D01*
X280666666Y-98676104D02*
X280628571Y-98599914D01*
X280628571Y-98599914D02*
X280590475Y-98447533D01*
X280590475Y-98447533D02*
X280590475Y-98257057D01*
X280590475Y-98257057D02*
X280628571Y-98104676D01*
X280628571Y-98104676D02*
X280666666Y-98028485D01*
X280666666Y-98028485D02*
X280704761Y-97990390D01*
X280704761Y-97990390D02*
X280780952Y-97952295D01*
X281314285Y-97952295D02*
X281847619Y-97952295D01*
X281847619Y-97952295D02*
X281504761Y-98752295D01*
X270228571Y-88592295D02*
X270228571Y-87792295D01*
X270228571Y-87792295D02*
X270533333Y-87792295D01*
X270533333Y-87792295D02*
X270609523Y-87830390D01*
X270609523Y-87830390D02*
X270647618Y-87868485D01*
X270647618Y-87868485D02*
X270685714Y-87944676D01*
X270685714Y-87944676D02*
X270685714Y-88058961D01*
X270685714Y-88058961D02*
X270647618Y-88135152D01*
X270647618Y-88135152D02*
X270609523Y-88173247D01*
X270609523Y-88173247D02*
X270533333Y-88211342D01*
X270533333Y-88211342D02*
X270228571Y-88211342D01*
X270990475Y-87868485D02*
X271028571Y-87830390D01*
X271028571Y-87830390D02*
X271104761Y-87792295D01*
X271104761Y-87792295D02*
X271295237Y-87792295D01*
X271295237Y-87792295D02*
X271371428Y-87830390D01*
X271371428Y-87830390D02*
X271409523Y-87868485D01*
X271409523Y-87868485D02*
X271447618Y-87944676D01*
X271447618Y-87944676D02*
X271447618Y-88020866D01*
X271447618Y-88020866D02*
X271409523Y-88135152D01*
X271409523Y-88135152D02*
X270952380Y-88592295D01*
X270952380Y-88592295D02*
X271447618Y-88592295D01*
X271942857Y-87792295D02*
X272019047Y-87792295D01*
X272019047Y-87792295D02*
X272095238Y-87830390D01*
X272095238Y-87830390D02*
X272133333Y-87868485D01*
X272133333Y-87868485D02*
X272171428Y-87944676D01*
X272171428Y-87944676D02*
X272209523Y-88097057D01*
X272209523Y-88097057D02*
X272209523Y-88287533D01*
X272209523Y-88287533D02*
X272171428Y-88439914D01*
X272171428Y-88439914D02*
X272133333Y-88516104D01*
X272133333Y-88516104D02*
X272095238Y-88554200D01*
X272095238Y-88554200D02*
X272019047Y-88592295D01*
X272019047Y-88592295D02*
X271942857Y-88592295D01*
X271942857Y-88592295D02*
X271866666Y-88554200D01*
X271866666Y-88554200D02*
X271828571Y-88516104D01*
X271828571Y-88516104D02*
X271790476Y-88439914D01*
X271790476Y-88439914D02*
X271752380Y-88287533D01*
X271752380Y-88287533D02*
X271752380Y-88097057D01*
X271752380Y-88097057D02*
X271790476Y-87944676D01*
X271790476Y-87944676D02*
X271828571Y-87868485D01*
X271828571Y-87868485D02*
X271866666Y-87830390D01*
X271866666Y-87830390D02*
X271942857Y-87792295D01*
X280190476Y-80210390D02*
X280114286Y-80172295D01*
X280114286Y-80172295D02*
X280000000Y-80172295D01*
X280000000Y-80172295D02*
X279885714Y-80210390D01*
X279885714Y-80210390D02*
X279809524Y-80286580D01*
X279809524Y-80286580D02*
X279771429Y-80362771D01*
X279771429Y-80362771D02*
X279733333Y-80515152D01*
X279733333Y-80515152D02*
X279733333Y-80629438D01*
X279733333Y-80629438D02*
X279771429Y-80781819D01*
X279771429Y-80781819D02*
X279809524Y-80858009D01*
X279809524Y-80858009D02*
X279885714Y-80934200D01*
X279885714Y-80934200D02*
X280000000Y-80972295D01*
X280000000Y-80972295D02*
X280076191Y-80972295D01*
X280076191Y-80972295D02*
X280190476Y-80934200D01*
X280190476Y-80934200D02*
X280228572Y-80896104D01*
X280228572Y-80896104D02*
X280228572Y-80629438D01*
X280228572Y-80629438D02*
X280076191Y-80629438D01*
X280571429Y-80972295D02*
X280571429Y-80172295D01*
X280571429Y-80172295D02*
X281028572Y-80972295D01*
X281028572Y-80972295D02*
X281028572Y-80172295D01*
X281409524Y-80972295D02*
X281409524Y-80172295D01*
X281409524Y-80172295D02*
X281600000Y-80172295D01*
X281600000Y-80172295D02*
X281714286Y-80210390D01*
X281714286Y-80210390D02*
X281790476Y-80286580D01*
X281790476Y-80286580D02*
X281828571Y-80362771D01*
X281828571Y-80362771D02*
X281866667Y-80515152D01*
X281866667Y-80515152D02*
X281866667Y-80629438D01*
X281866667Y-80629438D02*
X281828571Y-80781819D01*
X281828571Y-80781819D02*
X281790476Y-80858009D01*
X281790476Y-80858009D02*
X281714286Y-80934200D01*
X281714286Y-80934200D02*
X281600000Y-80972295D01*
X281600000Y-80972295D02*
X281409524Y-80972295D01*
X279828571Y-91132295D02*
X279828571Y-90332295D01*
X279828571Y-90332295D02*
X280133333Y-90332295D01*
X280133333Y-90332295D02*
X280209523Y-90370390D01*
X280209523Y-90370390D02*
X280247618Y-90408485D01*
X280247618Y-90408485D02*
X280285714Y-90484676D01*
X280285714Y-90484676D02*
X280285714Y-90598961D01*
X280285714Y-90598961D02*
X280247618Y-90675152D01*
X280247618Y-90675152D02*
X280209523Y-90713247D01*
X280209523Y-90713247D02*
X280133333Y-90751342D01*
X280133333Y-90751342D02*
X279828571Y-90751342D01*
X280780952Y-90332295D02*
X280857142Y-90332295D01*
X280857142Y-90332295D02*
X280933333Y-90370390D01*
X280933333Y-90370390D02*
X280971428Y-90408485D01*
X280971428Y-90408485D02*
X281009523Y-90484676D01*
X281009523Y-90484676D02*
X281047618Y-90637057D01*
X281047618Y-90637057D02*
X281047618Y-90827533D01*
X281047618Y-90827533D02*
X281009523Y-90979914D01*
X281009523Y-90979914D02*
X280971428Y-91056104D01*
X280971428Y-91056104D02*
X280933333Y-91094200D01*
X280933333Y-91094200D02*
X280857142Y-91132295D01*
X280857142Y-91132295D02*
X280780952Y-91132295D01*
X280780952Y-91132295D02*
X280704761Y-91094200D01*
X280704761Y-91094200D02*
X280666666Y-91056104D01*
X280666666Y-91056104D02*
X280628571Y-90979914D01*
X280628571Y-90979914D02*
X280590475Y-90827533D01*
X280590475Y-90827533D02*
X280590475Y-90637057D01*
X280590475Y-90637057D02*
X280628571Y-90484676D01*
X280628571Y-90484676D02*
X280666666Y-90408485D01*
X280666666Y-90408485D02*
X280704761Y-90370390D01*
X280704761Y-90370390D02*
X280780952Y-90332295D01*
X281733333Y-90598961D02*
X281733333Y-91132295D01*
X281542857Y-90294200D02*
X281352380Y-90865628D01*
X281352380Y-90865628D02*
X281847619Y-90865628D01*
X270761905Y-80972295D02*
X270495238Y-80591342D01*
X270304762Y-80972295D02*
X270304762Y-80172295D01*
X270304762Y-80172295D02*
X270609524Y-80172295D01*
X270609524Y-80172295D02*
X270685714Y-80210390D01*
X270685714Y-80210390D02*
X270723809Y-80248485D01*
X270723809Y-80248485D02*
X270761905Y-80324676D01*
X270761905Y-80324676D02*
X270761905Y-80438961D01*
X270761905Y-80438961D02*
X270723809Y-80515152D01*
X270723809Y-80515152D02*
X270685714Y-80553247D01*
X270685714Y-80553247D02*
X270609524Y-80591342D01*
X270609524Y-80591342D02*
X270304762Y-80591342D01*
X271066666Y-80934200D02*
X271180952Y-80972295D01*
X271180952Y-80972295D02*
X271371428Y-80972295D01*
X271371428Y-80972295D02*
X271447619Y-80934200D01*
X271447619Y-80934200D02*
X271485714Y-80896104D01*
X271485714Y-80896104D02*
X271523809Y-80819914D01*
X271523809Y-80819914D02*
X271523809Y-80743723D01*
X271523809Y-80743723D02*
X271485714Y-80667533D01*
X271485714Y-80667533D02*
X271447619Y-80629438D01*
X271447619Y-80629438D02*
X271371428Y-80591342D01*
X271371428Y-80591342D02*
X271219047Y-80553247D01*
X271219047Y-80553247D02*
X271142857Y-80515152D01*
X271142857Y-80515152D02*
X271104762Y-80477057D01*
X271104762Y-80477057D02*
X271066666Y-80400866D01*
X271066666Y-80400866D02*
X271066666Y-80324676D01*
X271066666Y-80324676D02*
X271104762Y-80248485D01*
X271104762Y-80248485D02*
X271142857Y-80210390D01*
X271142857Y-80210390D02*
X271219047Y-80172295D01*
X271219047Y-80172295D02*
X271409524Y-80172295D01*
X271409524Y-80172295D02*
X271523809Y-80210390D01*
X271752381Y-80172295D02*
X272209524Y-80172295D01*
X271980952Y-80972295D02*
X271980952Y-80172295D01*
X270228571Y-98752295D02*
X270228571Y-97952295D01*
X270228571Y-97952295D02*
X270533333Y-97952295D01*
X270533333Y-97952295D02*
X270609523Y-97990390D01*
X270609523Y-97990390D02*
X270647618Y-98028485D01*
X270647618Y-98028485D02*
X270685714Y-98104676D01*
X270685714Y-98104676D02*
X270685714Y-98218961D01*
X270685714Y-98218961D02*
X270647618Y-98295152D01*
X270647618Y-98295152D02*
X270609523Y-98333247D01*
X270609523Y-98333247D02*
X270533333Y-98371342D01*
X270533333Y-98371342D02*
X270228571Y-98371342D01*
X271447618Y-98752295D02*
X270990475Y-98752295D01*
X271219047Y-98752295D02*
X271219047Y-97952295D01*
X271219047Y-97952295D02*
X271142856Y-98066580D01*
X271142856Y-98066580D02*
X271066666Y-98142771D01*
X271066666Y-98142771D02*
X270990475Y-98180866D01*
X272133333Y-98218961D02*
X272133333Y-98752295D01*
X271942857Y-97914200D02*
X271752380Y-98485628D01*
X271752380Y-98485628D02*
X272247619Y-98485628D01*
%TO.C,B1*%
X258750000Y-77250000D02*
X257250000Y-78750000D01*
X258750000Y-74750000D02*
X258750000Y-77250000D01*
X258750000Y-74750000D02*
X257250000Y-73250000D01*
X254750000Y-78750000D02*
X257250000Y-78750000D01*
X254750000Y-73250000D02*
X257250000Y-73250000D01*
X253250000Y-77250000D02*
X254750000Y-78750000D01*
X253250000Y-74750000D02*
X254750000Y-73250000D01*
X253250000Y-74750000D02*
X253250000Y-77250000D01*
D11*
%TO.C,D27*%
X239250000Y-121000000D02*
X239650000Y-121000000D01*
X239650000Y-121000000D02*
X239650000Y-120450000D01*
X239650000Y-121000000D02*
X239650000Y-121550000D01*
X239650000Y-121000000D02*
X240250000Y-120600000D01*
X240250000Y-120600000D02*
X240250000Y-121400000D01*
X240250000Y-121000000D02*
X240750000Y-121000000D01*
X240250000Y-121400000D02*
X239650000Y-121000000D01*
%TO.C,D2*%
X149250000Y-138000000D02*
X149650000Y-138000000D01*
X149650000Y-138000000D02*
X149650000Y-137450000D01*
X149650000Y-138000000D02*
X149650000Y-138550000D01*
X149650000Y-138000000D02*
X150250000Y-137600000D01*
X150250000Y-137600000D02*
X150250000Y-138400000D01*
X150250000Y-138000000D02*
X150750000Y-138000000D01*
X150250000Y-138400000D02*
X149650000Y-138000000D01*
%TO.C,D23*%
X221250000Y-121000000D02*
X221650000Y-121000000D01*
X221650000Y-121000000D02*
X221650000Y-120450000D01*
X221650000Y-121000000D02*
X221650000Y-121550000D01*
X221650000Y-121000000D02*
X222250000Y-120600000D01*
X222250000Y-120600000D02*
X222250000Y-121400000D01*
X222250000Y-121000000D02*
X222750000Y-121000000D01*
X222250000Y-121400000D02*
X221650000Y-121000000D01*
%TO.C,D28*%
X239250000Y-104000000D02*
X239650000Y-104000000D01*
X239650000Y-104000000D02*
X239650000Y-103450000D01*
X239650000Y-104000000D02*
X239650000Y-104550000D01*
X239650000Y-104000000D02*
X240250000Y-103600000D01*
X240250000Y-103600000D02*
X240250000Y-104400000D01*
X240250000Y-104000000D02*
X240750000Y-104000000D01*
X240250000Y-104400000D02*
X239650000Y-104000000D01*
%TO.C,D10*%
X167250000Y-87000000D02*
X167650000Y-87000000D01*
X167650000Y-87000000D02*
X167650000Y-86450000D01*
X167650000Y-87000000D02*
X167650000Y-87550000D01*
X167650000Y-87000000D02*
X168250000Y-86600000D01*
X168250000Y-86600000D02*
X168250000Y-87400000D01*
X168250000Y-87000000D02*
X168750000Y-87000000D01*
X168250000Y-87400000D02*
X167650000Y-87000000D01*
%TO.C,D20*%
X203250000Y-87000000D02*
X203650000Y-87000000D01*
X203650000Y-87000000D02*
X203650000Y-86450000D01*
X203650000Y-87000000D02*
X203650000Y-87550000D01*
X203650000Y-87000000D02*
X204250000Y-86600000D01*
X204250000Y-86600000D02*
X204250000Y-87400000D01*
X204250000Y-87000000D02*
X204750000Y-87000000D01*
X204250000Y-87400000D02*
X203650000Y-87000000D01*
%TO.C,D15*%
X185250000Y-87000000D02*
X185650000Y-87000000D01*
X185650000Y-87000000D02*
X185650000Y-86450000D01*
X185650000Y-87000000D02*
X185650000Y-87550000D01*
X185650000Y-87000000D02*
X186250000Y-86600000D01*
X186250000Y-86600000D02*
X186250000Y-87400000D01*
X186250000Y-87000000D02*
X186750000Y-87000000D01*
X186250000Y-87400000D02*
X185650000Y-87000000D01*
%TO.C,D24*%
X221250000Y-104000000D02*
X221650000Y-104000000D01*
X221650000Y-104000000D02*
X221650000Y-103450000D01*
X221650000Y-104000000D02*
X221650000Y-104550000D01*
X221650000Y-104000000D02*
X222250000Y-103600000D01*
X222250000Y-103600000D02*
X222250000Y-104400000D01*
X222250000Y-104000000D02*
X222750000Y-104000000D01*
X222250000Y-104400000D02*
X221650000Y-104000000D01*
%TO.C,D6*%
X167250000Y-155000000D02*
X167650000Y-155000000D01*
X167650000Y-155000000D02*
X167650000Y-154450000D01*
X167650000Y-155000000D02*
X167650000Y-155550000D01*
X167650000Y-155000000D02*
X168250000Y-154600000D01*
X168250000Y-154600000D02*
X168250000Y-155400000D01*
X168250000Y-155000000D02*
X168750000Y-155000000D01*
X168250000Y-155400000D02*
X167650000Y-155000000D01*
%TO.C,D7*%
X167250000Y-138000000D02*
X167650000Y-138000000D01*
X167650000Y-138000000D02*
X167650000Y-137450000D01*
X167650000Y-138000000D02*
X167650000Y-138550000D01*
X167650000Y-138000000D02*
X168250000Y-137600000D01*
X168250000Y-137600000D02*
X168250000Y-138400000D01*
X168250000Y-138000000D02*
X168750000Y-138000000D01*
X168250000Y-138400000D02*
X167650000Y-138000000D01*
%TO.C,D11*%
X185250000Y-155000000D02*
X185650000Y-155000000D01*
X185650000Y-155000000D02*
X185650000Y-154450000D01*
X185650000Y-155000000D02*
X185650000Y-155550000D01*
X185650000Y-155000000D02*
X186250000Y-154600000D01*
X186250000Y-154600000D02*
X186250000Y-155400000D01*
X186250000Y-155000000D02*
X186750000Y-155000000D01*
X186250000Y-155400000D02*
X185650000Y-155000000D01*
%TO.C,D1*%
X149250000Y-155000000D02*
X149650000Y-155000000D01*
X149650000Y-155000000D02*
X149650000Y-154450000D01*
X149650000Y-155000000D02*
X149650000Y-155550000D01*
X149650000Y-155000000D02*
X150250000Y-154600000D01*
X150250000Y-154600000D02*
X150250000Y-155400000D01*
X150250000Y-155000000D02*
X150750000Y-155000000D01*
X150250000Y-155400000D02*
X149650000Y-155000000D01*
%TO.C,D25*%
X221250000Y-87000000D02*
X221650000Y-87000000D01*
X221650000Y-87000000D02*
X221650000Y-86450000D01*
X221650000Y-87000000D02*
X221650000Y-87550000D01*
X221650000Y-87000000D02*
X222250000Y-86600000D01*
X222250000Y-86600000D02*
X222250000Y-87400000D01*
X222250000Y-87000000D02*
X222750000Y-87000000D01*
X222250000Y-87400000D02*
X221650000Y-87000000D01*
%TO.C,D30*%
X249813304Y-164762941D02*
X250070419Y-164456524D01*
X250070419Y-164456524D02*
X249649095Y-164102990D01*
X250070419Y-164456524D02*
X250491744Y-164810057D01*
X250070419Y-164456524D02*
X250149674Y-163739782D01*
X250149674Y-163739782D02*
X250762510Y-164254012D01*
X250456092Y-163996897D02*
X250777486Y-163613875D01*
X250762510Y-164254012D02*
X250070419Y-164456524D01*
%TO.C,D8*%
X167250000Y-121000000D02*
X167650000Y-121000000D01*
X167650000Y-121000000D02*
X167650000Y-120450000D01*
X167650000Y-121000000D02*
X167650000Y-121550000D01*
X167650000Y-121000000D02*
X168250000Y-120600000D01*
X168250000Y-120600000D02*
X168250000Y-121400000D01*
X168250000Y-121000000D02*
X168750000Y-121000000D01*
X168250000Y-121400000D02*
X167650000Y-121000000D01*
%TO.C,D3*%
X149250000Y-121000000D02*
X149650000Y-121000000D01*
X149650000Y-121000000D02*
X149650000Y-120450000D01*
X149650000Y-121000000D02*
X149650000Y-121550000D01*
X149650000Y-121000000D02*
X150250000Y-120600000D01*
X150250000Y-120600000D02*
X150250000Y-121400000D01*
X150250000Y-121000000D02*
X150750000Y-121000000D01*
X150250000Y-121400000D02*
X149650000Y-121000000D01*
%TO.C,D31*%
X264368149Y-176975906D02*
X264625264Y-176669489D01*
X264625264Y-176669489D02*
X264203940Y-176315955D01*
X264625264Y-176669489D02*
X265046589Y-177023022D01*
X264625264Y-176669489D02*
X264704519Y-175952747D01*
X264704519Y-175952747D02*
X265317355Y-176466977D01*
X265010937Y-176209862D02*
X265332331Y-175826840D01*
X265317355Y-176466977D02*
X264625264Y-176669489D01*
%TO.C,D16*%
X203250000Y-155000000D02*
X203650000Y-155000000D01*
X203650000Y-155000000D02*
X203650000Y-154450000D01*
X203650000Y-155000000D02*
X203650000Y-155550000D01*
X203650000Y-155000000D02*
X204250000Y-154600000D01*
X204250000Y-154600000D02*
X204250000Y-155400000D01*
X204250000Y-155000000D02*
X204750000Y-155000000D01*
X204250000Y-155400000D02*
X203650000Y-155000000D01*
%TO.C,D14*%
X185250000Y-104000000D02*
X185650000Y-104000000D01*
X185650000Y-104000000D02*
X185650000Y-103450000D01*
X185650000Y-104000000D02*
X185650000Y-104550000D01*
X185650000Y-104000000D02*
X186250000Y-103600000D01*
X186250000Y-103600000D02*
X186250000Y-104400000D01*
X186250000Y-104000000D02*
X186750000Y-104000000D01*
X186250000Y-104400000D02*
X185650000Y-104000000D01*
%TO.C,D29*%
X239250000Y-87000000D02*
X239650000Y-87000000D01*
X239650000Y-87000000D02*
X239650000Y-86450000D01*
X239650000Y-87000000D02*
X239650000Y-87550000D01*
X239650000Y-87000000D02*
X240250000Y-86600000D01*
X240250000Y-86600000D02*
X240250000Y-87400000D01*
X240250000Y-87000000D02*
X240750000Y-87000000D01*
X240250000Y-87400000D02*
X239650000Y-87000000D01*
%TO.C,D4*%
X149250000Y-104000000D02*
X149650000Y-104000000D01*
X149650000Y-104000000D02*
X149650000Y-103450000D01*
X149650000Y-104000000D02*
X149650000Y-104550000D01*
X149650000Y-104000000D02*
X150250000Y-103600000D01*
X150250000Y-103600000D02*
X150250000Y-104400000D01*
X150250000Y-104000000D02*
X150750000Y-104000000D01*
X150250000Y-104400000D02*
X149650000Y-104000000D01*
%TO.C,D5*%
X149250000Y-87000000D02*
X149650000Y-87000000D01*
X149650000Y-87000000D02*
X149650000Y-86450000D01*
X149650000Y-87000000D02*
X149650000Y-87550000D01*
X149650000Y-87000000D02*
X150250000Y-86600000D01*
X150250000Y-86600000D02*
X150250000Y-87400000D01*
X150250000Y-87000000D02*
X150750000Y-87000000D01*
X150250000Y-87400000D02*
X149650000Y-87000000D01*
D10*
%TO.C,MCU1*%
X284890000Y-71720000D02*
X267110000Y-71720000D01*
X267110000Y-71720000D02*
X267110000Y-104740000D01*
X269650000Y-74260000D02*
X267110000Y-74260000D01*
X269650000Y-74260000D02*
X269650000Y-76800000D01*
X269650000Y-76800000D02*
X267110000Y-76800000D01*
X284890000Y-104740000D02*
X284890000Y-71720000D01*
X267110000Y-104740000D02*
X284890000Y-104740000D01*
D11*
%TO.C,D9*%
X167250000Y-104000000D02*
X167650000Y-104000000D01*
X167650000Y-104000000D02*
X167650000Y-103450000D01*
X167650000Y-104000000D02*
X167650000Y-104550000D01*
X167650000Y-104000000D02*
X168250000Y-103600000D01*
X168250000Y-103600000D02*
X168250000Y-104400000D01*
X168250000Y-104000000D02*
X168750000Y-104000000D01*
X168250000Y-104400000D02*
X167650000Y-104000000D01*
%TO.C,D19*%
X203250000Y-104000000D02*
X203650000Y-104000000D01*
X203650000Y-104000000D02*
X203650000Y-103450000D01*
X203650000Y-104000000D02*
X203650000Y-104550000D01*
X203650000Y-104000000D02*
X204250000Y-103600000D01*
X204250000Y-103600000D02*
X204250000Y-104400000D01*
X204250000Y-104000000D02*
X204750000Y-104000000D01*
X204250000Y-104400000D02*
X203650000Y-104000000D01*
%TO.C,D17*%
X203250000Y-138000000D02*
X203650000Y-138000000D01*
X203650000Y-138000000D02*
X203650000Y-137450000D01*
X203650000Y-138000000D02*
X203650000Y-138550000D01*
X203650000Y-138000000D02*
X204250000Y-137600000D01*
X204250000Y-137600000D02*
X204250000Y-138400000D01*
X204250000Y-138000000D02*
X204750000Y-138000000D01*
X204250000Y-138400000D02*
X203650000Y-138000000D01*
%TO.C,D21*%
X221250000Y-155000000D02*
X221650000Y-155000000D01*
X221650000Y-155000000D02*
X221650000Y-154450000D01*
X221650000Y-155000000D02*
X221650000Y-155550000D01*
X221650000Y-155000000D02*
X222250000Y-154600000D01*
X222250000Y-154600000D02*
X222250000Y-155400000D01*
X222250000Y-155000000D02*
X222750000Y-155000000D01*
X222250000Y-155400000D02*
X221650000Y-155000000D01*
%TO.C,D22*%
X221250000Y-138000000D02*
X221650000Y-138000000D01*
X221650000Y-138000000D02*
X221650000Y-137450000D01*
X221650000Y-138000000D02*
X221650000Y-138550000D01*
X221650000Y-138000000D02*
X222250000Y-137600000D01*
X222250000Y-137600000D02*
X222250000Y-138400000D01*
X222250000Y-138000000D02*
X222750000Y-138000000D01*
X222250000Y-138400000D02*
X221650000Y-138000000D01*
%TO.C,D13*%
X185250000Y-121000000D02*
X185650000Y-121000000D01*
X185650000Y-121000000D02*
X185650000Y-120450000D01*
X185650000Y-121000000D02*
X185650000Y-121550000D01*
X185650000Y-121000000D02*
X186250000Y-120600000D01*
X186250000Y-120600000D02*
X186250000Y-121400000D01*
X186250000Y-121000000D02*
X186750000Y-121000000D01*
X186250000Y-121400000D02*
X185650000Y-121000000D01*
%TO.C,D26*%
X239250000Y-138000000D02*
X239650000Y-138000000D01*
X239650000Y-138000000D02*
X239650000Y-137450000D01*
X239650000Y-138000000D02*
X239650000Y-138550000D01*
X239650000Y-138000000D02*
X240250000Y-137600000D01*
X240250000Y-137600000D02*
X240250000Y-138400000D01*
X240250000Y-138000000D02*
X240750000Y-138000000D01*
X240250000Y-138400000D02*
X239650000Y-138000000D01*
%TO.C,D12*%
X185250000Y-138000000D02*
X185650000Y-138000000D01*
X185650000Y-138000000D02*
X185650000Y-137450000D01*
X185650000Y-138000000D02*
X185650000Y-138550000D01*
X185650000Y-138000000D02*
X186250000Y-137600000D01*
X186250000Y-137600000D02*
X186250000Y-138400000D01*
X186250000Y-138000000D02*
X186750000Y-138000000D01*
X186250000Y-138400000D02*
X185650000Y-138000000D01*
%TO.C,D18*%
X203250000Y-121000000D02*
X203650000Y-121000000D01*
X203650000Y-121000000D02*
X203650000Y-120450000D01*
X203650000Y-121000000D02*
X203650000Y-121550000D01*
X203650000Y-121000000D02*
X204250000Y-120600000D01*
X204250000Y-120600000D02*
X204250000Y-121400000D01*
X204250000Y-121000000D02*
X204750000Y-121000000D01*
X204250000Y-121400000D02*
X203650000Y-121000000D01*
%TD*%
D12*
%TO.C,MCU1*%
X268380000Y-75530000D03*
D13*
X268380000Y-78070000D03*
X268380000Y-80610000D03*
X268380000Y-83150000D03*
X268380000Y-85690000D03*
X268380000Y-88230000D03*
X268380000Y-90770000D03*
X268380000Y-93310000D03*
X268380000Y-95850000D03*
X268380000Y-98390000D03*
X268380000Y-100930000D03*
X268380000Y-103470000D03*
X283620000Y-75530000D03*
X283620000Y-78070000D03*
X283620000Y-80610000D03*
X283620000Y-83150000D03*
X283620000Y-85690000D03*
X283620000Y-88230000D03*
X283620000Y-90770000D03*
X283620000Y-93310000D03*
X283620000Y-95850000D03*
X283620000Y-98390000D03*
X283620000Y-100930000D03*
X283620000Y-103470000D03*
%TD*%
M02*
