%TF.GenerationSoftware,KiCad,Pcbnew,7.0.7-2.fc38*%
%TF.CreationDate,2023-08-26T22:09:36+08:00*%
%TF.ProjectId,split_keyboard_I,73706c69-745f-46b6-9579-626f6172645f,v1.0.0*%
%TF.SameCoordinates,Original*%
%TF.FileFunction,Soldermask,Bot*%
%TF.FilePolarity,Negative*%
%FSLAX46Y46*%
G04 Gerber Fmt 4.6, Leading zero omitted, Abs format (unit mm)*
G04 Created by KiCad (PCBNEW 7.0.7-2.fc38) date 2023-08-26 22:09:36*
%MOMM*%
%LPD*%
G01*
G04 APERTURE LIST*
G04 Aperture macros list*
%AMRoundRect*
0 Rectangle with rounded corners*
0 $1 Rounding radius*
0 $2 $3 $4 $5 $6 $7 $8 $9 X,Y pos of 4 corners*
0 Add a 4 corners polygon primitive as box body*
4,1,4,$2,$3,$4,$5,$6,$7,$8,$9,$2,$3,0*
0 Add four circle primitives for the rounded corners*
1,1,$1+$1,$2,$3*
1,1,$1+$1,$4,$5*
1,1,$1+$1,$6,$7*
1,1,$1+$1,$8,$9*
0 Add four rect primitives between the rounded corners*
20,1,$1+$1,$2,$3,$4,$5,0*
20,1,$1+$1,$4,$5,$6,$7,0*
20,1,$1+$1,$6,$7,$8,$9,0*
20,1,$1+$1,$8,$9,$2,$3,0*%
G04 Aperture macros list end*
%ADD10C,1.801800*%
%ADD11C,3.100000*%
%ADD12C,3.529000*%
%ADD13RoundRect,0.050000X-1.300000X-1.300000X1.300000X-1.300000X1.300000X1.300000X-1.300000X1.300000X0*%
%ADD14RoundRect,0.050000X-0.889000X-0.889000X0.889000X-0.889000X0.889000X0.889000X-0.889000X0.889000X0*%
%ADD15RoundRect,0.050000X-0.450000X-0.600000X0.450000X-0.600000X0.450000X0.600000X-0.450000X0.600000X0*%
%ADD16C,2.005000*%
%ADD17RoundRect,0.050000X0.160234X-1.831482X1.831482X0.160234X-0.160234X1.831482X-1.831482X-0.160234X0*%
%ADD18C,1.600000*%
%ADD19O,2.300000X1.700000*%
%ADD20RoundRect,0.050000X0.109575X-1.252452X1.252452X0.109575X-0.109575X1.252452X-1.252452X-0.109575X0*%
%ADD21RoundRect,0.050000X0.170372X-0.730393X0.748881X-0.040953X-0.170372X0.730393X-0.748881X0.040953X0*%
%ADD22RoundRect,0.050000X-0.876300X0.876300X-0.876300X-0.876300X0.876300X-0.876300X0.876300X0.876300X0*%
%ADD23C,1.852600*%
G04 APERTURE END LIST*
D10*
%TO.C,S12*%
X180500000Y-133000000D03*
D11*
X181000000Y-129250000D03*
X186000000Y-127050000D03*
X186000000Y-127050000D03*
D12*
X186000000Y-133000000D03*
D11*
X191000000Y-129250000D03*
D10*
X191500000Y-133000000D03*
D13*
X182725000Y-127050000D03*
X194275000Y-129250000D03*
%TD*%
D10*
%TO.C,S27*%
X234500000Y-116000000D03*
D11*
X235000000Y-112250000D03*
X240000000Y-110050000D03*
X240000000Y-110050000D03*
D12*
X240000000Y-116000000D03*
D11*
X245000000Y-112250000D03*
D10*
X245500000Y-116000000D03*
D13*
X236725000Y-110050000D03*
X248275000Y-112250000D03*
%TD*%
D10*
%TO.C,S15*%
X180500000Y-82000000D03*
D11*
X181000000Y-78250000D03*
X186000000Y-76050000D03*
X186000000Y-76050000D03*
D12*
X186000000Y-82000000D03*
D11*
X191000000Y-78250000D03*
D10*
X191500000Y-82000000D03*
D13*
X182725000Y-76050000D03*
X194275000Y-78250000D03*
%TD*%
D14*
%TO.C,D27*%
X236190000Y-121000000D03*
D15*
X238350000Y-121000000D03*
X241650000Y-121000000D03*
D16*
X243810000Y-121000000D03*
%TD*%
D14*
%TO.C,D2*%
X146190000Y-138000000D03*
D15*
X148350000Y-138000000D03*
X151650000Y-138000000D03*
D16*
X153810000Y-138000000D03*
%TD*%
D14*
%TO.C,D23*%
X218190000Y-121000000D03*
D15*
X220350000Y-121000000D03*
X223650000Y-121000000D03*
D16*
X225810000Y-121000000D03*
%TD*%
D14*
%TO.C,D28*%
X236190000Y-104000000D03*
D15*
X238350000Y-104000000D03*
X241650000Y-104000000D03*
D16*
X243810000Y-104000000D03*
%TD*%
D14*
%TO.C,D10*%
X164190000Y-87000000D03*
D15*
X166350000Y-87000000D03*
X169650000Y-87000000D03*
D16*
X171810000Y-87000000D03*
%TD*%
D10*
%TO.C,S18*%
X198500000Y-116000000D03*
D11*
X199000000Y-112250000D03*
X204000000Y-110050000D03*
X204000000Y-110050000D03*
D12*
X204000000Y-116000000D03*
D11*
X209000000Y-112250000D03*
D10*
X209500000Y-116000000D03*
D13*
X200725000Y-110050000D03*
X212275000Y-112250000D03*
%TD*%
D14*
%TO.C,D20*%
X200190000Y-87000000D03*
D15*
X202350000Y-87000000D03*
X205650000Y-87000000D03*
D16*
X207810000Y-87000000D03*
%TD*%
D10*
%TO.C,S6*%
X162500000Y-150000000D03*
D11*
X163000000Y-146250000D03*
X168000000Y-144050000D03*
X168000000Y-144050000D03*
D12*
X168000000Y-150000000D03*
D11*
X173000000Y-146250000D03*
D10*
X173500000Y-150000000D03*
D13*
X164725000Y-144050000D03*
X176275000Y-146250000D03*
%TD*%
D10*
%TO.C,S30*%
X242929841Y-165187714D03*
D11*
X240378568Y-162394239D03*
X241907209Y-157149884D03*
X241907209Y-157149884D03*
D12*
X246465173Y-160974470D03*
D11*
X246806444Y-154733794D03*
D10*
X250000505Y-156761226D03*
D17*
X239802079Y-159658679D03*
X248911574Y-152224999D03*
%TD*%
D10*
%TO.C,S31*%
X257484686Y-177400679D03*
D11*
X254933413Y-174607204D03*
X256462054Y-169362849D03*
X256462054Y-169362849D03*
D12*
X261020018Y-173187435D03*
D11*
X261361289Y-166946759D03*
D10*
X264555350Y-168974191D03*
D17*
X254356924Y-171871644D03*
X263466419Y-164437964D03*
%TD*%
D14*
%TO.C,D15*%
X182190000Y-87000000D03*
D15*
X184350000Y-87000000D03*
X187650000Y-87000000D03*
D16*
X189810000Y-87000000D03*
%TD*%
D14*
%TO.C,D24*%
X218190000Y-104000000D03*
D15*
X220350000Y-104000000D03*
X223650000Y-104000000D03*
D16*
X225810000Y-104000000D03*
%TD*%
D10*
%TO.C,S16*%
X198500000Y-150000000D03*
D11*
X199000000Y-146250000D03*
X204000000Y-144050000D03*
X204000000Y-144050000D03*
D12*
X204000000Y-150000000D03*
D11*
X209000000Y-146250000D03*
D10*
X209500000Y-150000000D03*
D13*
X200725000Y-144050000D03*
X212275000Y-146250000D03*
%TD*%
D14*
%TO.C,D6*%
X164190000Y-155000000D03*
D15*
X166350000Y-155000000D03*
X169650000Y-155000000D03*
D16*
X171810000Y-155000000D03*
%TD*%
D10*
%TO.C,S8*%
X162500000Y-116000000D03*
D11*
X163000000Y-112250000D03*
X168000000Y-110050000D03*
X168000000Y-110050000D03*
D12*
X168000000Y-116000000D03*
D11*
X173000000Y-112250000D03*
D10*
X173500000Y-116000000D03*
D13*
X164725000Y-110050000D03*
X176275000Y-112250000D03*
%TD*%
D18*
%TO.C,TRRS1*%
X288400000Y-113700000D03*
X281400000Y-113700000D03*
X288400000Y-116000000D03*
X281400000Y-116000000D03*
D19*
X278700000Y-113700000D03*
X278700000Y-116000000D03*
X279800000Y-111400000D03*
X279800000Y-118300000D03*
X283800000Y-111400000D03*
X283800000Y-118300000D03*
X286800000Y-111400000D03*
X286800000Y-118300000D03*
%TD*%
D10*
%TO.C,S5*%
X144500000Y-82000000D03*
D11*
X145000000Y-78250000D03*
X150000000Y-76050000D03*
X150000000Y-76050000D03*
D12*
X150000000Y-82000000D03*
D11*
X155000000Y-78250000D03*
D10*
X155500000Y-82000000D03*
D13*
X146725000Y-76050000D03*
X158275000Y-78250000D03*
%TD*%
D10*
%TO.C,S20*%
X198500000Y-82000000D03*
D11*
X199000000Y-78250000D03*
X204000000Y-76050000D03*
X204000000Y-76050000D03*
D12*
X204000000Y-82000000D03*
D11*
X209000000Y-78250000D03*
D10*
X209500000Y-82000000D03*
D13*
X200725000Y-76050000D03*
X212275000Y-78250000D03*
%TD*%
D10*
%TO.C,S25*%
X216500000Y-82000000D03*
D11*
X217000000Y-78250000D03*
X222000000Y-76050000D03*
X222000000Y-76050000D03*
D12*
X222000000Y-82000000D03*
D11*
X227000000Y-78250000D03*
D10*
X227500000Y-82000000D03*
D13*
X218725000Y-76050000D03*
X230275000Y-78250000D03*
%TD*%
D10*
%TO.C,S14*%
X180500000Y-99000000D03*
D11*
X181000000Y-95250000D03*
X186000000Y-93050000D03*
X186000000Y-93050000D03*
D12*
X186000000Y-99000000D03*
D11*
X191000000Y-95250000D03*
D10*
X191500000Y-99000000D03*
D13*
X182725000Y-93050000D03*
X194275000Y-95250000D03*
%TD*%
D10*
%TO.C,S21*%
X216500000Y-150000000D03*
D11*
X217000000Y-146250000D03*
X222000000Y-144050000D03*
X222000000Y-144050000D03*
D12*
X222000000Y-150000000D03*
D11*
X227000000Y-146250000D03*
D10*
X227500000Y-150000000D03*
D13*
X218725000Y-144050000D03*
X230275000Y-146250000D03*
%TD*%
D10*
%TO.C,S29*%
X234500000Y-82000000D03*
D11*
X235000000Y-78250000D03*
X240000000Y-76050000D03*
X240000000Y-76050000D03*
D12*
X240000000Y-82000000D03*
D11*
X245000000Y-78250000D03*
D10*
X245500000Y-82000000D03*
D13*
X236725000Y-76050000D03*
X248275000Y-78250000D03*
%TD*%
D14*
%TO.C,D7*%
X164190000Y-138000000D03*
D15*
X166350000Y-138000000D03*
X169650000Y-138000000D03*
D16*
X171810000Y-138000000D03*
%TD*%
D10*
%TO.C,S7*%
X162500000Y-133000000D03*
D11*
X163000000Y-129250000D03*
X168000000Y-127050000D03*
X168000000Y-127050000D03*
D12*
X168000000Y-133000000D03*
D11*
X173000000Y-129250000D03*
D10*
X173500000Y-133000000D03*
D13*
X164725000Y-127050000D03*
X176275000Y-129250000D03*
%TD*%
D14*
%TO.C,D11*%
X182190000Y-155000000D03*
D15*
X184350000Y-155000000D03*
X187650000Y-155000000D03*
D16*
X189810000Y-155000000D03*
%TD*%
D14*
%TO.C,D1*%
X146190000Y-155000000D03*
D15*
X148350000Y-155000000D03*
X151650000Y-155000000D03*
D16*
X153810000Y-155000000D03*
%TD*%
D10*
%TO.C,S4*%
X144500000Y-99000000D03*
D11*
X145000000Y-95250000D03*
X150000000Y-93050000D03*
X150000000Y-93050000D03*
D12*
X150000000Y-99000000D03*
D11*
X155000000Y-95250000D03*
D10*
X155500000Y-99000000D03*
D13*
X146725000Y-93050000D03*
X158275000Y-95250000D03*
%TD*%
D14*
%TO.C,D25*%
X218190000Y-87000000D03*
D15*
X220350000Y-87000000D03*
X223650000Y-87000000D03*
D16*
X225810000Y-87000000D03*
%TD*%
D20*
%TO.C,D30*%
X247846374Y-167107037D03*
D21*
X249234795Y-165452381D03*
X251355995Y-162924435D03*
D16*
X252744416Y-161269779D03*
%TD*%
D10*
%TO.C,S26*%
X234500000Y-133000000D03*
D11*
X235000000Y-129250000D03*
X240000000Y-127050000D03*
X240000000Y-127050000D03*
D12*
X240000000Y-133000000D03*
D11*
X245000000Y-129250000D03*
D10*
X245500000Y-133000000D03*
D13*
X236725000Y-127050000D03*
X248275000Y-129250000D03*
%TD*%
D14*
%TO.C,D8*%
X164190000Y-121000000D03*
D15*
X166350000Y-121000000D03*
X169650000Y-121000000D03*
D16*
X171810000Y-121000000D03*
%TD*%
D10*
%TO.C,S3*%
X144500000Y-116000000D03*
D11*
X145000000Y-112250000D03*
X150000000Y-110050000D03*
X150000000Y-110050000D03*
D12*
X150000000Y-116000000D03*
D11*
X155000000Y-112250000D03*
D10*
X155500000Y-116000000D03*
D13*
X146725000Y-110050000D03*
X158275000Y-112250000D03*
%TD*%
D10*
%TO.C,S2*%
X144500000Y-133000000D03*
D11*
X145000000Y-129250000D03*
X150000000Y-127050000D03*
X150000000Y-127050000D03*
D12*
X150000000Y-133000000D03*
D11*
X155000000Y-129250000D03*
D10*
X155500000Y-133000000D03*
D13*
X146725000Y-127050000D03*
X158275000Y-129250000D03*
%TD*%
D10*
%TO.C,S23*%
X216500000Y-116000000D03*
D11*
X217000000Y-112250000D03*
X222000000Y-110050000D03*
X222000000Y-110050000D03*
D12*
X222000000Y-116000000D03*
D11*
X227000000Y-112250000D03*
D10*
X227500000Y-116000000D03*
D13*
X218725000Y-110050000D03*
X230275000Y-112250000D03*
%TD*%
D14*
%TO.C,D3*%
X146190000Y-121000000D03*
D15*
X148350000Y-121000000D03*
X151650000Y-121000000D03*
D16*
X153810000Y-121000000D03*
%TD*%
D20*
%TO.C,D31*%
X262401219Y-179320002D03*
D21*
X263789640Y-177665346D03*
X265910840Y-175137400D03*
D16*
X267299261Y-173482744D03*
%TD*%
D14*
%TO.C,D16*%
X200190000Y-155000000D03*
D15*
X202350000Y-155000000D03*
X205650000Y-155000000D03*
D16*
X207810000Y-155000000D03*
%TD*%
D14*
%TO.C,D14*%
X182190000Y-104000000D03*
D15*
X184350000Y-104000000D03*
X187650000Y-104000000D03*
D16*
X189810000Y-104000000D03*
%TD*%
D10*
%TO.C,S1*%
X144500000Y-150000000D03*
D11*
X145000000Y-146250000D03*
X150000000Y-144050000D03*
X150000000Y-144050000D03*
D12*
X150000000Y-150000000D03*
D11*
X155000000Y-146250000D03*
D10*
X155500000Y-150000000D03*
D13*
X146725000Y-144050000D03*
X158275000Y-146250000D03*
%TD*%
D10*
%TO.C,S13*%
X180500000Y-116000000D03*
D11*
X181000000Y-112250000D03*
X186000000Y-110050000D03*
X186000000Y-110050000D03*
D12*
X186000000Y-116000000D03*
D11*
X191000000Y-112250000D03*
D10*
X191500000Y-116000000D03*
D13*
X182725000Y-110050000D03*
X194275000Y-112250000D03*
%TD*%
D10*
%TO.C,S11*%
X180500000Y-150000000D03*
D11*
X181000000Y-146250000D03*
X186000000Y-144050000D03*
X186000000Y-144050000D03*
D12*
X186000000Y-150000000D03*
D11*
X191000000Y-146250000D03*
D10*
X191500000Y-150000000D03*
D13*
X182725000Y-144050000D03*
X194275000Y-146250000D03*
%TD*%
D10*
%TO.C,S9*%
X162500000Y-99000000D03*
D11*
X163000000Y-95250000D03*
X168000000Y-93050000D03*
X168000000Y-93050000D03*
D12*
X168000000Y-99000000D03*
D11*
X173000000Y-95250000D03*
D10*
X173500000Y-99000000D03*
D13*
X164725000Y-93050000D03*
X176275000Y-95250000D03*
%TD*%
D14*
%TO.C,D29*%
X236190000Y-87000000D03*
D15*
X238350000Y-87000000D03*
X241650000Y-87000000D03*
D16*
X243810000Y-87000000D03*
%TD*%
D14*
%TO.C,D4*%
X146190000Y-104000000D03*
D15*
X148350000Y-104000000D03*
X151650000Y-104000000D03*
D16*
X153810000Y-104000000D03*
%TD*%
D14*
%TO.C,D5*%
X146190000Y-87000000D03*
D15*
X148350000Y-87000000D03*
X151650000Y-87000000D03*
D16*
X153810000Y-87000000D03*
%TD*%
D22*
%TO.C,MCU1*%
X268380000Y-75530000D03*
D23*
X268380000Y-78070000D03*
X268380000Y-80610000D03*
X268380000Y-83150000D03*
X268380000Y-85690000D03*
X268380000Y-88230000D03*
X268380000Y-90770000D03*
X268380000Y-93310000D03*
X268380000Y-95850000D03*
X268380000Y-98390000D03*
X268380000Y-100930000D03*
X268380000Y-103470000D03*
X283620000Y-75530000D03*
X283620000Y-78070000D03*
X283620000Y-80610000D03*
X283620000Y-83150000D03*
X283620000Y-85690000D03*
X283620000Y-88230000D03*
X283620000Y-90770000D03*
X283620000Y-93310000D03*
X283620000Y-95850000D03*
X283620000Y-98390000D03*
X283620000Y-100930000D03*
X283620000Y-103470000D03*
%TD*%
D10*
%TO.C,S10*%
X162500000Y-82000000D03*
D11*
X163000000Y-78250000D03*
X168000000Y-76050000D03*
X168000000Y-76050000D03*
D12*
X168000000Y-82000000D03*
D11*
X173000000Y-78250000D03*
D10*
X173500000Y-82000000D03*
D13*
X164725000Y-76050000D03*
X176275000Y-78250000D03*
%TD*%
D10*
%TO.C,S19*%
X198500000Y-99000000D03*
D11*
X199000000Y-95250000D03*
X204000000Y-93050000D03*
X204000000Y-93050000D03*
D12*
X204000000Y-99000000D03*
D11*
X209000000Y-95250000D03*
D10*
X209500000Y-99000000D03*
D13*
X200725000Y-93050000D03*
X212275000Y-95250000D03*
%TD*%
D10*
%TO.C,S22*%
X216500000Y-133000000D03*
D11*
X217000000Y-129250000D03*
X222000000Y-127050000D03*
X222000000Y-127050000D03*
D12*
X222000000Y-133000000D03*
D11*
X227000000Y-129250000D03*
D10*
X227500000Y-133000000D03*
D13*
X218725000Y-127050000D03*
X230275000Y-129250000D03*
%TD*%
D14*
%TO.C,D9*%
X164190000Y-104000000D03*
D15*
X166350000Y-104000000D03*
X169650000Y-104000000D03*
D16*
X171810000Y-104000000D03*
%TD*%
D10*
%TO.C,S17*%
X198500000Y-133000000D03*
D11*
X199000000Y-129250000D03*
X204000000Y-127050000D03*
X204000000Y-127050000D03*
D12*
X204000000Y-133000000D03*
D11*
X209000000Y-129250000D03*
D10*
X209500000Y-133000000D03*
D13*
X200725000Y-127050000D03*
X212275000Y-129250000D03*
%TD*%
D14*
%TO.C,D19*%
X200190000Y-104000000D03*
D15*
X202350000Y-104000000D03*
X205650000Y-104000000D03*
D16*
X207810000Y-104000000D03*
%TD*%
D14*
%TO.C,D17*%
X200190000Y-138000000D03*
D15*
X202350000Y-138000000D03*
X205650000Y-138000000D03*
D16*
X207810000Y-138000000D03*
%TD*%
D14*
%TO.C,D21*%
X218190000Y-155000000D03*
D15*
X220350000Y-155000000D03*
X223650000Y-155000000D03*
D16*
X225810000Y-155000000D03*
%TD*%
D10*
%TO.C,S28*%
X234500000Y-99000000D03*
D11*
X235000000Y-95250000D03*
X240000000Y-93050000D03*
X240000000Y-93050000D03*
D12*
X240000000Y-99000000D03*
D11*
X245000000Y-95250000D03*
D10*
X245500000Y-99000000D03*
D13*
X236725000Y-93050000D03*
X248275000Y-95250000D03*
%TD*%
D14*
%TO.C,D22*%
X218190000Y-138000000D03*
D15*
X220350000Y-138000000D03*
X223650000Y-138000000D03*
D16*
X225810000Y-138000000D03*
%TD*%
D10*
%TO.C,S24*%
X216500000Y-99000000D03*
D11*
X217000000Y-95250000D03*
X222000000Y-93050000D03*
X222000000Y-93050000D03*
D12*
X222000000Y-99000000D03*
D11*
X227000000Y-95250000D03*
D10*
X227500000Y-99000000D03*
D13*
X218725000Y-93050000D03*
X230275000Y-95250000D03*
%TD*%
D14*
%TO.C,D13*%
X182190000Y-121000000D03*
D15*
X184350000Y-121000000D03*
X187650000Y-121000000D03*
D16*
X189810000Y-121000000D03*
%TD*%
D14*
%TO.C,D26*%
X236190000Y-138000000D03*
D15*
X238350000Y-138000000D03*
X241650000Y-138000000D03*
D16*
X243810000Y-138000000D03*
%TD*%
D14*
%TO.C,D12*%
X182190000Y-138000000D03*
D15*
X184350000Y-138000000D03*
X187650000Y-138000000D03*
D16*
X189810000Y-138000000D03*
%TD*%
D14*
%TO.C,D18*%
X200190000Y-121000000D03*
D15*
X202350000Y-121000000D03*
X205650000Y-121000000D03*
D16*
X207810000Y-121000000D03*
%TD*%
M02*
