M48
; DRILL file {KiCad 7.0.7-2.fc38} date Sat 26 Aug 2023 10:08:58 PM CST
; FORMAT={-:-/ absolute / inch / decimal}
; #@! TF.CreationDate,2023-08-26T22:08:58+08:00
; #@! TF.GenerationSoftware,Kicad,Pcbnew,7.0.7-2.fc38
; #@! TF.FileFunction,Plated,1,2,PTH
FMAT,2
INCH
; #@! TA.AperFunction,Plated,PTH,ViaDrill
T1C0.0157
; #@! TA.AperFunction,Plated,PTH,ComponentDrill
T2C0.0354
; #@! TA.AperFunction,Plated,PTH,ComponentDrill
T3C0.0390
; #@! TA.AperFunction,Plated,PTH,ComponentDrill
T4C0.0430
%
G90
G05
T1
X5.9122Y-2.889
X5.9165Y-5.5693
X5.937Y-3.5669
X5.9622Y-4.2307
X5.963Y-4.902
X6.6268Y-4.902
X6.6413Y-2.8988
X6.6461Y-5.5724
X6.6496Y-3.55
X6.6748Y-4.224
X6.735Y-2.8907
X7.3461Y-4.237
X7.3508Y-4.9071
X7.3524Y-2.8961
X7.3528Y-3.5646
X7.3539Y-5.565
X8.0551Y-2.8961
X8.0563Y-5.5768
X8.0618Y-4.9051
X8.0823Y-4.2398
X8.1154Y-3.5598
X8.7661Y-2.8917
X8.8079Y-4.8945
X8.8157Y-3.5673
X8.8205Y-4.2283
X8.822Y-5.5736
X9.4524Y-2.8972
X9.4732Y-6.0827
X9.4886Y-4.2213
X9.4917Y-4.9008
X9.8307Y-4.8138
X9.8443Y-3.5677
X9.8445Y-4.2161
X10.0598Y-6.5461
T3
X5.7555Y-3.4252
X5.7555Y-4.0945
X5.7555Y-4.7638
X5.7555Y-5.4331
X5.7555Y-6.1024
X6.0555Y-3.4252
X6.0555Y-4.0945
X6.0555Y-4.7638
X6.0555Y-5.4331
X6.0555Y-6.1024
X6.4642Y-3.4252
X6.4642Y-4.0945
X6.4642Y-4.7638
X6.4642Y-5.4331
X6.4642Y-6.1024
X6.7642Y-3.4252
X6.7642Y-4.0945
X6.7642Y-4.7638
X6.7642Y-5.4331
X6.7642Y-6.1024
X7.1728Y-3.4252
X7.1728Y-4.0945
X7.1728Y-4.7638
X7.1728Y-5.4331
X7.1728Y-6.1024
X7.4728Y-3.4252
X7.4728Y-4.0945
X7.4728Y-4.7638
X7.4728Y-5.4331
X7.4728Y-6.1024
X7.8815Y-3.4252
X7.8815Y-4.0945
X7.8815Y-4.7638
X7.8815Y-5.4331
X7.8815Y-6.1024
X8.1815Y-3.4252
X8.1815Y-4.0945
X8.1815Y-4.7638
X8.1815Y-5.4331
X8.1815Y-6.1024
X8.5902Y-3.4252
X8.5902Y-4.0945
X8.5902Y-4.7638
X8.5902Y-5.4331
X8.5902Y-6.1024
X8.8902Y-3.4252
X8.8902Y-4.0945
X8.8902Y-4.7638
X8.8902Y-5.4331
X8.8902Y-6.1024
X9.2988Y-3.4252
X9.2988Y-4.0945
X9.2988Y-4.7638
X9.2988Y-5.4331
X9.5988Y-3.4252
X9.5988Y-4.0945
X9.5988Y-4.7638
X9.5988Y-5.4331
X9.7577Y-6.579
X9.9506Y-6.3492
X10.3308Y-7.0598
X10.5236Y-6.83
T4
X10.5661Y-2.9736
X10.5661Y-3.0736
X10.5661Y-3.1736
X10.5661Y-3.2736
X10.5661Y-3.3736
X10.5661Y-3.4736
X10.5661Y-3.5736
X10.5661Y-3.6736
X10.5661Y-3.7736
X10.5661Y-3.8736
X10.5661Y-3.9736
X10.5661Y-4.0736
X11.1661Y-2.9736
X11.1661Y-3.0736
X11.1661Y-3.1736
X11.1661Y-3.2736
X11.1661Y-3.3736
X11.1661Y-3.4736
X11.1661Y-3.5736
X11.1661Y-3.6736
X11.1661Y-3.7736
X11.1661Y-3.8736
X11.1661Y-3.9736
X11.1661Y-4.0736
T2
G00X10.9843Y-4.4764
M15
G01X10.9606Y-4.4764
M16
G05
G00X10.9843Y-4.5669
M15
G01X10.9606Y-4.5669
M16
G05
G00X11.0276Y-4.3858
M15
G01X11.0039Y-4.3858
M16
G05
G00X11.0276Y-4.6575
M15
G01X11.0039Y-4.6575
M16
G05
G00X11.185Y-4.3858
M15
G01X11.1614Y-4.3858
M16
G05
G00X11.185Y-4.6575
M15
G01X11.1614Y-4.6575
M16
G05
G00X11.3031Y-4.3858
M15
G01X11.2795Y-4.3858
M16
G05
G00X11.3031Y-4.6575
M15
G01X11.2795Y-4.6575
M16
G05
T0
M30
