0
SECTION
2
HEADER
9
$INSUNITS
70
4
0
ENDSEC
0
SECTION
2
TABLES
0
TABLE
2
LTYPE
0
LTYPE
72
65
70
64
2
CONTINUOUS
3
______
73
0
40
0
0
ENDTAB
0
TABLE
2
LAYER
0
ENDTAB
0
ENDSEC
0
SECTION
2
ENTITIES
0
LINE
8
0
10
141.25
20
-158.25
11
158.75
21
-158.25
0
LINE
8
0
10
158.75
20
-158.25
11
158.75
21
-141.75
0
LINE
8
0
10
158.75
20
-141.75
11
141.25
21
-141.75
0
LINE
8
0
10
141.25
20
-141.75
11
141.25
21
-158.25
0
LINE
8
0
10
141.25
20
-141.25
11
158.75
21
-141.25
0
LINE
8
0
10
158.75
20
-141.25
11
158.75
21
-124.75
0
LINE
8
0
10
158.75
20
-124.75
11
141.25
21
-124.75
0
LINE
8
0
10
141.25
20
-124.75
11
141.25
21
-141.25
0
LINE
8
0
10
141.25
20
-124.25
11
158.75
21
-124.25
0
LINE
8
0
10
158.75
20
-124.25
11
158.75
21
-107.75
0
LINE
8
0
10
158.75
20
-107.75
11
141.25
21
-107.75
0
LINE
8
0
10
141.25
20
-107.75
11
141.25
21
-124.25
0
LINE
8
0
10
141.25
20
-107.25
11
158.75
21
-107.25
0
LINE
8
0
10
158.75
20
-107.25
11
158.75
21
-90.75
0
LINE
8
0
10
158.75
20
-90.75
11
141.25
21
-90.75
0
LINE
8
0
10
141.25
20
-90.75
11
141.25
21
-107.25
0
LINE
8
0
10
141.25
20
-90.25
11
158.75
21
-90.25
0
LINE
8
0
10
158.75
20
-90.25
11
158.75
21
-73.75
0
LINE
8
0
10
158.75
20
-73.75
11
141.25
21
-73.75
0
LINE
8
0
10
141.25
20
-73.75
11
141.25
21
-90.25
0
LINE
8
0
10
159.25
20
-158.25
11
176.75
21
-158.25
0
LINE
8
0
10
176.75
20
-158.25
11
176.75
21
-141.75
0
LINE
8
0
10
176.75
20
-141.75
11
159.25
21
-141.75
0
LINE
8
0
10
159.25
20
-141.75
11
159.25
21
-158.25
0
LINE
8
0
10
159.25
20
-141.25
11
176.75
21
-141.25
0
LINE
8
0
10
176.75
20
-141.25
11
176.75
21
-124.75
0
LINE
8
0
10
176.75
20
-124.75
11
159.25
21
-124.75
0
LINE
8
0
10
159.25
20
-124.75
11
159.25
21
-141.25
0
LINE
8
0
10
159.25
20
-124.25
11
176.75
21
-124.25
0
LINE
8
0
10
176.75
20
-124.25
11
176.75
21
-107.75
0
LINE
8
0
10
176.75
20
-107.75
11
159.25
21
-107.75
0
LINE
8
0
10
159.25
20
-107.75
11
159.25
21
-124.25
0
LINE
8
0
10
159.25
20
-107.25
11
176.75
21
-107.25
0
LINE
8
0
10
176.75
20
-107.25
11
176.75
21
-90.75
0
LINE
8
0
10
176.75
20
-90.75
11
159.25
21
-90.75
0
LINE
8
0
10
159.25
20
-90.75
11
159.25
21
-107.25
0
LINE
8
0
10
159.25
20
-90.25
11
176.75
21
-90.25
0
LINE
8
0
10
176.75
20
-90.25
11
176.75
21
-73.75
0
LINE
8
0
10
176.75
20
-73.75
11
159.25
21
-73.75
0
LINE
8
0
10
159.25
20
-73.75
11
159.25
21
-90.25
0
LINE
8
0
10
177.25
20
-158.25
11
194.75
21
-158.25
0
LINE
8
0
10
194.75
20
-158.25
11
194.75
21
-141.75
0
LINE
8
0
10
194.75
20
-141.75
11
177.25
21
-141.75
0
LINE
8
0
10
177.25
20
-141.75
11
177.25
21
-158.25
0
LINE
8
0
10
177.25
20
-141.25
11
194.75
21
-141.25
0
LINE
8
0
10
194.75
20
-141.25
11
194.75
21
-124.75
0
LINE
8
0
10
194.75
20
-124.75
11
177.25
21
-124.75
0
LINE
8
0
10
177.25
20
-124.75
11
177.25
21
-141.25
0
LINE
8
0
10
177.25
20
-124.25
11
194.75
21
-124.25
0
LINE
8
0
10
194.75
20
-124.25
11
194.75
21
-107.75
0
LINE
8
0
10
194.75
20
-107.75
11
177.25
21
-107.75
0
LINE
8
0
10
177.25
20
-107.75
11
177.25
21
-124.25
0
LINE
8
0
10
177.25
20
-107.25
11
194.75
21
-107.25
0
LINE
8
0
10
194.75
20
-107.25
11
194.75
21
-90.75
0
LINE
8
0
10
194.75
20
-90.75
11
177.25
21
-90.75
0
LINE
8
0
10
177.25
20
-90.75
11
177.25
21
-107.25
0
LINE
8
0
10
177.25
20
-90.25
11
194.75
21
-90.25
0
LINE
8
0
10
194.75
20
-90.25
11
194.75
21
-73.75
0
LINE
8
0
10
194.75
20
-73.75
11
177.25
21
-73.75
0
LINE
8
0
10
177.25
20
-73.75
11
177.25
21
-90.25
0
LINE
8
0
10
195.25
20
-158.25
11
212.75
21
-158.25
0
LINE
8
0
10
212.75
20
-158.25
11
212.75
21
-141.75
0
LINE
8
0
10
212.75
20
-141.75
11
195.25
21
-141.75
0
LINE
8
0
10
195.25
20
-141.75
11
195.25
21
-158.25
0
LINE
8
0
10
195.25
20
-141.25
11
212.75
21
-141.25
0
LINE
8
0
10
212.75
20
-141.25
11
212.75
21
-124.75
0
LINE
8
0
10
212.75
20
-124.75
11
195.25
21
-124.75
0
LINE
8
0
10
195.25
20
-124.75
11
195.25
21
-141.25
0
LINE
8
0
10
195.25
20
-124.25
11
212.75
21
-124.25
0
LINE
8
0
10
212.75
20
-124.25
11
212.75
21
-107.75
0
LINE
8
0
10
212.75
20
-107.75
11
195.25
21
-107.75
0
LINE
8
0
10
195.25
20
-107.75
11
195.25
21
-124.25
0
LINE
8
0
10
195.25
20
-107.25
11
212.75
21
-107.25
0
LINE
8
0
10
212.75
20
-107.25
11
212.75
21
-90.75
0
LINE
8
0
10
212.75
20
-90.75
11
195.25
21
-90.75
0
LINE
8
0
10
195.25
20
-90.75
11
195.25
21
-107.25
0
LINE
8
0
10
195.25
20
-90.25
11
212.75
21
-90.25
0
LINE
8
0
10
212.75
20
-90.25
11
212.75
21
-73.75
0
LINE
8
0
10
212.75
20
-73.75
11
195.25
21
-73.75
0
LINE
8
0
10
195.25
20
-73.75
11
195.25
21
-90.25
0
LINE
8
0
10
213.25
20
-158.25
11
230.75
21
-158.25
0
LINE
8
0
10
230.75
20
-158.25
11
230.75
21
-141.75
0
LINE
8
0
10
230.75
20
-141.75
11
213.25
21
-141.75
0
LINE
8
0
10
213.25
20
-141.75
11
213.25
21
-158.25
0
LINE
8
0
10
213.25
20
-141.25
11
230.75
21
-141.25
0
LINE
8
0
10
230.75
20
-141.25
11
230.75
21
-124.75
0
LINE
8
0
10
230.75
20
-124.75
11
213.25
21
-124.75
0
LINE
8
0
10
213.25
20
-124.75
11
213.25
21
-141.25
0
LINE
8
0
10
213.25
20
-124.25
11
230.75
21
-124.25
0
LINE
8
0
10
230.75
20
-124.25
11
230.75
21
-107.75
0
LINE
8
0
10
230.75
20
-107.75
11
213.25
21
-107.75
0
LINE
8
0
10
213.25
20
-107.75
11
213.25
21
-124.25
0
LINE
8
0
10
213.25
20
-107.25
11
230.75
21
-107.25
0
LINE
8
0
10
230.75
20
-107.25
11
230.75
21
-90.75
0
LINE
8
0
10
230.75
20
-90.75
11
213.25
21
-90.75
0
LINE
8
0
10
213.25
20
-90.75
11
213.25
21
-107.25
0
LINE
8
0
10
213.25
20
-90.25
11
230.75
21
-90.25
0
LINE
8
0
10
230.75
20
-90.25
11
230.75
21
-73.75
0
LINE
8
0
10
230.75
20
-73.75
11
213.25
21
-73.75
0
LINE
8
0
10
213.25
20
-73.75
11
213.25
21
-90.25
0
LINE
8
0
10
231.25
20
-141.25
11
248.75
21
-141.25
0
LINE
8
0
10
248.75
20
-141.25
11
248.75
21
-124.75
0
LINE
8
0
10
248.75
20
-124.75
11
231.25
21
-124.75
0
LINE
8
0
10
231.25
20
-124.75
11
231.25
21
-141.25
0
LINE
8
0
10
231.25
20
-124.25
11
248.75
21
-124.25
0
LINE
8
0
10
248.75
20
-124.25
11
248.75
21
-107.75
0
LINE
8
0
10
248.75
20
-107.75
11
231.25
21
-107.75
0
LINE
8
0
10
231.25
20
-107.75
11
231.25
21
-124.25
0
LINE
8
0
10
231.25
20
-107.25
11
248.75
21
-107.25
0
LINE
8
0
10
248.75
20
-107.25
11
248.75
21
-90.75
0
LINE
8
0
10
248.75
20
-90.75
11
231.25
21
-90.75
0
LINE
8
0
10
231.25
20
-90.75
11
231.25
21
-107.25
0
LINE
8
0
10
231.25
20
-90.25
11
248.75
21
-90.25
0
LINE
8
0
10
248.75
20
-90.25
11
248.75
21
-73.75
0
LINE
8
0
10
248.75
20
-73.75
11
231.25
21
-73.75
0
LINE
8
0
10
231.25
20
-73.75
11
231.25
21
-90.25
0
LINE
8
0
10
247.1606482
20
-172.9803567
11
258.4094313
21
-159.5745789
0
LINE
8
0
10
258.4094313
20
-159.5745789
11
245.769698
21
-148.9685833
0
LINE
8
0
10
245.769698
20
-148.9685833
11
234.5209149
21
-162.3743611
0
LINE
8
0
10
234.5209149
20
-162.3743611
11
247.1606482
21
-172.9803567
0
LINE
8
0
10
261.7154926
20
-185.1933213
11
272.9642757
21
-171.7875435
0
LINE
8
0
10
272.9642757
20
-171.7875435
11
260.3245424
21
-161.1815479
0
LINE
8
0
10
260.3245424
20
-161.1815479
11
249.0757593
21
-174.5873257
0
LINE
8
0
10
249.0757593
20
-174.5873257
11
261.7154926
21
-185.1933213
0
ENDSEC
0
EOF