%TF.GenerationSoftware,KiCad,Pcbnew,7.0.7-2.fc38*%
%TF.CreationDate,2023-08-26T22:07:58+08:00*%
%TF.ProjectId,split_keyboard_I,73706c69-745f-46b6-9579-626f6172645f,v1.0.0*%
%TF.SameCoordinates,Original*%
%TF.FileFunction,Copper,L2,Bot*%
%TF.FilePolarity,Positive*%
%FSLAX46Y46*%
G04 Gerber Fmt 4.6, Leading zero omitted, Abs format (unit mm)*
G04 Created by KiCad (PCBNEW 7.0.7-2.fc38) date 2023-08-26 22:07:58*
%MOMM*%
%LPD*%
G01*
G04 APERTURE LIST*
G04 Aperture macros list*
%AMRotRect*
0 Rectangle, with rotation*
0 The origin of the aperture is its center*
0 $1 length*
0 $2 width*
0 $3 Rotation angle, in degrees counterclockwise*
0 Add horizontal line*
21,1,$1,$2,0,0,$3*%
G04 Aperture macros list end*
%TA.AperFunction,SMDPad,CuDef*%
%ADD10R,2.600000X2.600000*%
%TD*%
%TA.AperFunction,ComponentPad*%
%ADD11R,1.778000X1.778000*%
%TD*%
%TA.AperFunction,SMDPad,CuDef*%
%ADD12R,0.900000X1.200000*%
%TD*%
%TA.AperFunction,ComponentPad*%
%ADD13C,1.905000*%
%TD*%
%TA.AperFunction,SMDPad,CuDef*%
%ADD14RotRect,2.600000X2.600000X50.000000*%
%TD*%
%TA.AperFunction,ComponentPad*%
%ADD15O,2.200000X1.600000*%
%TD*%
%TA.AperFunction,ComponentPad*%
%ADD16RotRect,1.778000X1.778000X50.000000*%
%TD*%
%TA.AperFunction,SMDPad,CuDef*%
%ADD17RotRect,0.900000X1.200000X50.000000*%
%TD*%
%TA.AperFunction,ComponentPad*%
%ADD18R,1.752600X1.752600*%
%TD*%
%TA.AperFunction,ComponentPad*%
%ADD19C,1.752600*%
%TD*%
%TA.AperFunction,ViaPad*%
%ADD20C,0.800000*%
%TD*%
%TA.AperFunction,Conductor*%
%ADD21C,0.250000*%
%TD*%
G04 APERTURE END LIST*
D10*
%TO.P,S12,1*%
%TO.N,P10*%
X182725000Y-127050000D03*
%TO.P,S12,2*%
%TO.N,ring_row3*%
X194275000Y-129250000D03*
%TD*%
%TO.P,S27,1*%
%TO.N,P4*%
X236725000Y-110050000D03*
%TO.P,S27,2*%
%TO.N,inner_row2*%
X248275000Y-112250000D03*
%TD*%
%TO.P,S15,1*%
%TO.N,P10*%
X182725000Y-76050000D03*
%TO.P,S15,2*%
%TO.N,ring_number*%
X194275000Y-78250000D03*
%TD*%
D11*
%TO.P,D27,1*%
%TO.N,P19*%
X236190000Y-121000000D03*
D12*
X238350000Y-121000000D03*
%TO.P,D27,2*%
%TO.N,inner_row2*%
X241650000Y-121000000D03*
D13*
X243810000Y-121000000D03*
%TD*%
D11*
%TO.P,D2,1*%
%TO.N,P18*%
X146190000Y-138000000D03*
D12*
X148350000Y-138000000D03*
%TO.P,D2,2*%
%TO.N,outer_row3*%
X151650000Y-138000000D03*
D13*
X153810000Y-138000000D03*
%TD*%
D11*
%TO.P,D23,1*%
%TO.N,P19*%
X218190000Y-121000000D03*
D12*
X220350000Y-121000000D03*
%TO.P,D23,2*%
%TO.N,index_row2*%
X223650000Y-121000000D03*
D13*
X225810000Y-121000000D03*
%TD*%
D11*
%TO.P,D28,1*%
%TO.N,P20*%
X236190000Y-104000000D03*
D12*
X238350000Y-104000000D03*
%TO.P,D28,2*%
%TO.N,inner_row1*%
X241650000Y-104000000D03*
D13*
X243810000Y-104000000D03*
%TD*%
D11*
%TO.P,D10,1*%
%TO.N,P21*%
X164190000Y-87000000D03*
D12*
X166350000Y-87000000D03*
%TO.P,D10,2*%
%TO.N,pinky_number*%
X169650000Y-87000000D03*
D13*
X171810000Y-87000000D03*
%TD*%
D10*
%TO.P,S18,1*%
%TO.N,P2*%
X200725000Y-110050000D03*
%TO.P,S18,2*%
%TO.N,middle_row2*%
X212275000Y-112250000D03*
%TD*%
D11*
%TO.P,D20,1*%
%TO.N,P21*%
X200190000Y-87000000D03*
D12*
X202350000Y-87000000D03*
%TO.P,D20,2*%
%TO.N,middle_number*%
X205650000Y-87000000D03*
D13*
X207810000Y-87000000D03*
%TD*%
D10*
%TO.P,S6,1*%
%TO.N,P16*%
X164725000Y-144050000D03*
%TO.P,S6,2*%
%TO.N,pinky_bottom*%
X176275000Y-146250000D03*
%TD*%
D14*
%TO.P,S30,1*%
%TO.N,P4*%
X239802079Y-159658679D03*
%TO.P,S30,2*%
%TO.N,space_cluster*%
X248911574Y-152224999D03*
%TD*%
%TO.P,S31,1*%
%TO.N,P5*%
X254356924Y-171871644D03*
%TO.P,S31,2*%
%TO.N,layer_cluster*%
X263466419Y-164437964D03*
%TD*%
D11*
%TO.P,D15,1*%
%TO.N,P21*%
X182190000Y-87000000D03*
D12*
X184350000Y-87000000D03*
%TO.P,D15,2*%
%TO.N,ring_number*%
X187650000Y-87000000D03*
D13*
X189810000Y-87000000D03*
%TD*%
D11*
%TO.P,D24,1*%
%TO.N,P20*%
X218190000Y-104000000D03*
D12*
X220350000Y-104000000D03*
%TO.P,D24,2*%
%TO.N,index_row1*%
X223650000Y-104000000D03*
D13*
X225810000Y-104000000D03*
%TD*%
D10*
%TO.P,S16,1*%
%TO.N,P2*%
X200725000Y-144050000D03*
%TO.P,S16,2*%
%TO.N,middle_bottom*%
X212275000Y-146250000D03*
%TD*%
D11*
%TO.P,D6,1*%
%TO.N,P15*%
X164190000Y-155000000D03*
D12*
X166350000Y-155000000D03*
%TO.P,D6,2*%
%TO.N,pinky_bottom*%
X169650000Y-155000000D03*
D13*
X171810000Y-155000000D03*
%TD*%
D10*
%TO.P,S8,1*%
%TO.N,P16*%
X164725000Y-110050000D03*
%TO.P,S8,2*%
%TO.N,pinky_row2*%
X176275000Y-112250000D03*
%TD*%
D15*
%TO.P,TRRS1,1*%
%TO.N,GND*%
X278700000Y-113700000D03*
X278700000Y-116000000D03*
%TO.P,TRRS1,2*%
X279800000Y-111400000D03*
X279800000Y-118300000D03*
%TO.P,TRRS1,3*%
%TO.N,P6*%
X283800000Y-111400000D03*
X283800000Y-118300000D03*
%TO.P,TRRS1,4*%
%TO.N,VCC*%
X286800000Y-111400000D03*
X286800000Y-118300000D03*
%TD*%
D10*
%TO.P,S5,1*%
%TO.N,P14*%
X146725000Y-76050000D03*
%TO.P,S5,2*%
%TO.N,outer_number*%
X158275000Y-78250000D03*
%TD*%
%TO.P,S20,1*%
%TO.N,P2*%
X200725000Y-76050000D03*
%TO.P,S20,2*%
%TO.N,middle_number*%
X212275000Y-78250000D03*
%TD*%
%TO.P,S25,1*%
%TO.N,P3*%
X218725000Y-76050000D03*
%TO.P,S25,2*%
%TO.N,index_number*%
X230275000Y-78250000D03*
%TD*%
%TO.P,S14,1*%
%TO.N,P10*%
X182725000Y-93050000D03*
%TO.P,S14,2*%
%TO.N,ring_row1*%
X194275000Y-95250000D03*
%TD*%
%TO.P,S21,1*%
%TO.N,P3*%
X218725000Y-144050000D03*
%TO.P,S21,2*%
%TO.N,index_bottom*%
X230275000Y-146250000D03*
%TD*%
%TO.P,S29,1*%
%TO.N,P4*%
X236725000Y-76050000D03*
%TO.P,S29,2*%
%TO.N,inner_number*%
X248275000Y-78250000D03*
%TD*%
D11*
%TO.P,D7,1*%
%TO.N,P18*%
X164190000Y-138000000D03*
D12*
X166350000Y-138000000D03*
%TO.P,D7,2*%
%TO.N,pinky_row3*%
X169650000Y-138000000D03*
D13*
X171810000Y-138000000D03*
%TD*%
D10*
%TO.P,S7,1*%
%TO.N,P16*%
X164725000Y-127050000D03*
%TO.P,S7,2*%
%TO.N,pinky_row3*%
X176275000Y-129250000D03*
%TD*%
D11*
%TO.P,D11,1*%
%TO.N,P15*%
X182190000Y-155000000D03*
D12*
X184350000Y-155000000D03*
%TO.P,D11,2*%
%TO.N,ring_bottom*%
X187650000Y-155000000D03*
D13*
X189810000Y-155000000D03*
%TD*%
D11*
%TO.P,D1,1*%
%TO.N,P15*%
X146190000Y-155000000D03*
D12*
X148350000Y-155000000D03*
%TO.P,D1,2*%
%TO.N,outer_bottom*%
X151650000Y-155000000D03*
D13*
X153810000Y-155000000D03*
%TD*%
D10*
%TO.P,S4,1*%
%TO.N,P14*%
X146725000Y-93050000D03*
%TO.P,S4,2*%
%TO.N,outer_row1*%
X158275000Y-95250000D03*
%TD*%
D11*
%TO.P,D25,1*%
%TO.N,P21*%
X218190000Y-87000000D03*
D12*
X220350000Y-87000000D03*
%TO.P,D25,2*%
%TO.N,index_number*%
X223650000Y-87000000D03*
D13*
X225810000Y-87000000D03*
%TD*%
D16*
%TO.P,D30,1*%
%TO.N,P15*%
X247846374Y-167107037D03*
D17*
X249234795Y-165452381D03*
%TO.P,D30,2*%
%TO.N,space_cluster*%
X251355995Y-162924435D03*
D13*
X252744416Y-161269779D03*
%TD*%
D10*
%TO.P,S26,1*%
%TO.N,P4*%
X236725000Y-127050000D03*
%TO.P,S26,2*%
%TO.N,inner_row3*%
X248275000Y-129250000D03*
%TD*%
D11*
%TO.P,D8,1*%
%TO.N,P19*%
X164190000Y-121000000D03*
D12*
X166350000Y-121000000D03*
%TO.P,D8,2*%
%TO.N,pinky_row2*%
X169650000Y-121000000D03*
D13*
X171810000Y-121000000D03*
%TD*%
D10*
%TO.P,S3,1*%
%TO.N,P14*%
X146725000Y-110050000D03*
%TO.P,S3,2*%
%TO.N,outer_row2*%
X158275000Y-112250000D03*
%TD*%
%TO.P,S2,1*%
%TO.N,P14*%
X146725000Y-127050000D03*
%TO.P,S2,2*%
%TO.N,outer_row3*%
X158275000Y-129250000D03*
%TD*%
%TO.P,S23,1*%
%TO.N,P3*%
X218725000Y-110050000D03*
%TO.P,S23,2*%
%TO.N,index_row2*%
X230275000Y-112250000D03*
%TD*%
D11*
%TO.P,D3,1*%
%TO.N,P19*%
X146190000Y-121000000D03*
D12*
X148350000Y-121000000D03*
%TO.P,D3,2*%
%TO.N,outer_row2*%
X151650000Y-121000000D03*
D13*
X153810000Y-121000000D03*
%TD*%
D16*
%TO.P,D31,1*%
%TO.N,P15*%
X262401219Y-179320002D03*
D17*
X263789640Y-177665346D03*
%TO.P,D31,2*%
%TO.N,layer_cluster*%
X265910840Y-175137400D03*
D13*
X267299261Y-173482744D03*
%TD*%
D11*
%TO.P,D16,1*%
%TO.N,P15*%
X200190000Y-155000000D03*
D12*
X202350000Y-155000000D03*
%TO.P,D16,2*%
%TO.N,middle_bottom*%
X205650000Y-155000000D03*
D13*
X207810000Y-155000000D03*
%TD*%
D11*
%TO.P,D14,1*%
%TO.N,P20*%
X182190000Y-104000000D03*
D12*
X184350000Y-104000000D03*
%TO.P,D14,2*%
%TO.N,ring_row1*%
X187650000Y-104000000D03*
D13*
X189810000Y-104000000D03*
%TD*%
D10*
%TO.P,S1,1*%
%TO.N,P14*%
X146725000Y-144050000D03*
%TO.P,S1,2*%
%TO.N,outer_bottom*%
X158275000Y-146250000D03*
%TD*%
%TO.P,S13,1*%
%TO.N,P10*%
X182725000Y-110050000D03*
%TO.P,S13,2*%
%TO.N,ring_row2*%
X194275000Y-112250000D03*
%TD*%
%TO.P,S11,1*%
%TO.N,P10*%
X182725000Y-144050000D03*
%TO.P,S11,2*%
%TO.N,ring_bottom*%
X194275000Y-146250000D03*
%TD*%
%TO.P,S9,1*%
%TO.N,P16*%
X164725000Y-93050000D03*
%TO.P,S9,2*%
%TO.N,pinky_row1*%
X176275000Y-95250000D03*
%TD*%
D11*
%TO.P,D29,1*%
%TO.N,P21*%
X236190000Y-87000000D03*
D12*
X238350000Y-87000000D03*
%TO.P,D29,2*%
%TO.N,inner_number*%
X241650000Y-87000000D03*
D13*
X243810000Y-87000000D03*
%TD*%
D11*
%TO.P,D4,1*%
%TO.N,P20*%
X146190000Y-104000000D03*
D12*
X148350000Y-104000000D03*
%TO.P,D4,2*%
%TO.N,outer_row1*%
X151650000Y-104000000D03*
D13*
X153810000Y-104000000D03*
%TD*%
D11*
%TO.P,D5,1*%
%TO.N,P21*%
X146190000Y-87000000D03*
D12*
X148350000Y-87000000D03*
%TO.P,D5,2*%
%TO.N,outer_number*%
X151650000Y-87000000D03*
D13*
X153810000Y-87000000D03*
%TD*%
D18*
%TO.P,MCU1,1*%
%TO.N,RAW*%
X268380000Y-75530000D03*
D19*
%TO.P,MCU1,2*%
%TO.N,GND*%
X268380000Y-78070000D03*
%TO.P,MCU1,3*%
%TO.N,RST*%
X268380000Y-80610000D03*
%TO.P,MCU1,4*%
%TO.N,VCC*%
X268380000Y-83150000D03*
%TO.P,MCU1,5*%
%TO.N,P21*%
X268380000Y-85690000D03*
%TO.P,MCU1,6*%
%TO.N,P20*%
X268380000Y-88230000D03*
%TO.P,MCU1,7*%
%TO.N,P19*%
X268380000Y-90770000D03*
%TO.P,MCU1,8*%
%TO.N,P18*%
X268380000Y-93310000D03*
%TO.P,MCU1,9*%
%TO.N,P15*%
X268380000Y-95850000D03*
%TO.P,MCU1,10*%
%TO.N,P14*%
X268380000Y-98390000D03*
%TO.P,MCU1,11*%
%TO.N,P16*%
X268380000Y-100930000D03*
%TO.P,MCU1,12*%
%TO.N,P10*%
X268380000Y-103470000D03*
%TO.P,MCU1,13*%
%TO.N,P1*%
X283620000Y-75530000D03*
%TO.P,MCU1,14*%
%TO.N,P0*%
X283620000Y-78070000D03*
%TO.P,MCU1,15*%
%TO.N,GND*%
X283620000Y-80610000D03*
%TO.P,MCU1,16*%
X283620000Y-83150000D03*
%TO.P,MCU1,17*%
%TO.N,P2*%
X283620000Y-85690000D03*
%TO.P,MCU1,18*%
%TO.N,P3*%
X283620000Y-88230000D03*
%TO.P,MCU1,19*%
%TO.N,P4*%
X283620000Y-90770000D03*
%TO.P,MCU1,20*%
%TO.N,P5*%
X283620000Y-93310000D03*
%TO.P,MCU1,21*%
%TO.N,P6*%
X283620000Y-95850000D03*
%TO.P,MCU1,22*%
%TO.N,P7*%
X283620000Y-98390000D03*
%TO.P,MCU1,23*%
%TO.N,P8*%
X283620000Y-100930000D03*
%TO.P,MCU1,24*%
%TO.N,P9*%
X283620000Y-103470000D03*
%TD*%
D10*
%TO.P,S10,1*%
%TO.N,P16*%
X164725000Y-76050000D03*
%TO.P,S10,2*%
%TO.N,pinky_number*%
X176275000Y-78250000D03*
%TD*%
%TO.P,S19,1*%
%TO.N,P2*%
X200725000Y-93050000D03*
%TO.P,S19,2*%
%TO.N,middle_row1*%
X212275000Y-95250000D03*
%TD*%
%TO.P,S22,1*%
%TO.N,P3*%
X218725000Y-127050000D03*
%TO.P,S22,2*%
%TO.N,index_row3*%
X230275000Y-129250000D03*
%TD*%
D11*
%TO.P,D9,1*%
%TO.N,P20*%
X164190000Y-104000000D03*
D12*
X166350000Y-104000000D03*
%TO.P,D9,2*%
%TO.N,pinky_row1*%
X169650000Y-104000000D03*
D13*
X171810000Y-104000000D03*
%TD*%
D10*
%TO.P,S17,1*%
%TO.N,P2*%
X200725000Y-127050000D03*
%TO.P,S17,2*%
%TO.N,middle_row3*%
X212275000Y-129250000D03*
%TD*%
D11*
%TO.P,D19,1*%
%TO.N,P20*%
X200190000Y-104000000D03*
D12*
X202350000Y-104000000D03*
%TO.P,D19,2*%
%TO.N,middle_row1*%
X205650000Y-104000000D03*
D13*
X207810000Y-104000000D03*
%TD*%
D11*
%TO.P,D17,1*%
%TO.N,P18*%
X200190000Y-138000000D03*
D12*
X202350000Y-138000000D03*
%TO.P,D17,2*%
%TO.N,middle_row3*%
X205650000Y-138000000D03*
D13*
X207810000Y-138000000D03*
%TD*%
D11*
%TO.P,D21,1*%
%TO.N,P15*%
X218190000Y-155000000D03*
D12*
X220350000Y-155000000D03*
%TO.P,D21,2*%
%TO.N,index_bottom*%
X223650000Y-155000000D03*
D13*
X225810000Y-155000000D03*
%TD*%
D10*
%TO.P,S28,1*%
%TO.N,P4*%
X236725000Y-93050000D03*
%TO.P,S28,2*%
%TO.N,inner_row1*%
X248275000Y-95250000D03*
%TD*%
D11*
%TO.P,D22,1*%
%TO.N,P18*%
X218190000Y-138000000D03*
D12*
X220350000Y-138000000D03*
%TO.P,D22,2*%
%TO.N,index_row3*%
X223650000Y-138000000D03*
D13*
X225810000Y-138000000D03*
%TD*%
D10*
%TO.P,S24,1*%
%TO.N,P3*%
X218725000Y-93050000D03*
%TO.P,S24,2*%
%TO.N,index_row1*%
X230275000Y-95250000D03*
%TD*%
D11*
%TO.P,D13,1*%
%TO.N,P19*%
X182190000Y-121000000D03*
D12*
X184350000Y-121000000D03*
%TO.P,D13,2*%
%TO.N,ring_row2*%
X187650000Y-121000000D03*
D13*
X189810000Y-121000000D03*
%TD*%
D11*
%TO.P,D26,1*%
%TO.N,P18*%
X236190000Y-138000000D03*
D12*
X238350000Y-138000000D03*
%TO.P,D26,2*%
%TO.N,inner_row3*%
X241650000Y-138000000D03*
D13*
X243810000Y-138000000D03*
%TD*%
D11*
%TO.P,D12,1*%
%TO.N,P18*%
X182190000Y-138000000D03*
D12*
X184350000Y-138000000D03*
%TO.P,D12,2*%
%TO.N,ring_row3*%
X187650000Y-138000000D03*
D13*
X189810000Y-138000000D03*
%TD*%
D11*
%TO.P,D18,1*%
%TO.N,P19*%
X200190000Y-121000000D03*
D12*
X202350000Y-121000000D03*
%TO.P,D18,2*%
%TO.N,middle_row2*%
X205650000Y-121000000D03*
D13*
X207810000Y-121000000D03*
%TD*%
D20*
%TO.N,P14*%
X150800000Y-90600000D03*
X150280000Y-141460000D03*
X151440000Y-107460000D03*
X150170000Y-73380000D03*
X151460000Y-124510000D03*
%TO.N,P16*%
X169540000Y-107290000D03*
X168900000Y-90170000D03*
X168320000Y-124510000D03*
X171070000Y-73424500D03*
X168690000Y-73630000D03*
X168810000Y-141540000D03*
%TO.N,P10*%
X186710000Y-124640000D03*
X186760000Y-90540000D03*
X250045500Y-90620000D03*
X186590000Y-107620000D03*
X186750000Y-73560000D03*
X186790000Y-141350000D03*
%TO.N,P2*%
X204770000Y-124590000D03*
X206130000Y-90420000D03*
X250050000Y-107090000D03*
X204630000Y-141650000D03*
X204600000Y-73560000D03*
X205290000Y-107690000D03*
%TO.N,P3*%
X224040000Y-107400000D03*
X223720000Y-124320000D03*
X223920000Y-90610000D03*
X249700000Y-122270000D03*
X222660000Y-73450000D03*
X224080000Y-141570000D03*
%TO.N,P4*%
X241010000Y-107220000D03*
X240620000Y-154500000D03*
X241090000Y-124480000D03*
X240090000Y-73590000D03*
%TO.N,P5*%
X255520000Y-166270000D03*
%TD*%
D21*
%TO.N,P14*%
X147404000Y-92371000D02*
X146725000Y-93050000D01*
X146725000Y-110050000D02*
X147404000Y-110729000D01*
X150850000Y-72700000D02*
X150170000Y-73380000D01*
X146725000Y-76050000D02*
X149395000Y-73380000D01*
X146725000Y-144050000D02*
X149315000Y-141460000D01*
X146725000Y-76050000D02*
X147404000Y-76729000D01*
X147404000Y-109371000D02*
X146725000Y-110050000D01*
X250280000Y-86990000D02*
X268838895Y-86990000D01*
X146725000Y-110050000D02*
X149315000Y-107460000D01*
X250280000Y-86990000D02*
X250280000Y-72700000D01*
X149315000Y-107460000D02*
X151440000Y-107460000D01*
X250280000Y-72700000D02*
X150850000Y-72700000D01*
X147404000Y-126371000D02*
X146725000Y-127050000D01*
X268838895Y-86990000D02*
X269600000Y-87751105D01*
X269600000Y-97170000D02*
X268380000Y-98390000D01*
X146725000Y-93050000D02*
X149175000Y-90600000D01*
X147430000Y-127755000D02*
X147430000Y-143345000D01*
X147404000Y-110729000D02*
X147404000Y-126371000D01*
X146725000Y-127050000D02*
X147430000Y-127755000D01*
X147404000Y-76729000D02*
X147404000Y-92371000D01*
X149265000Y-124510000D02*
X151460000Y-124510000D01*
X149315000Y-141460000D02*
X150280000Y-141460000D01*
X146725000Y-127050000D02*
X149265000Y-124510000D01*
X149395000Y-73380000D02*
X150170000Y-73380000D01*
X269600000Y-87751105D02*
X269600000Y-97170000D01*
X147430000Y-143345000D02*
X146725000Y-144050000D01*
X147404000Y-93729000D02*
X147404000Y-109371000D01*
X149175000Y-90600000D02*
X150800000Y-90600000D01*
X146725000Y-93050000D02*
X147404000Y-93729000D01*
%TO.N,outer_bottom*%
X158275000Y-146250000D02*
X158275000Y-150535000D01*
X153810000Y-155000000D02*
X151650000Y-155000000D01*
X158275000Y-150535000D02*
X153810000Y-155000000D01*
%TO.N,outer_row3*%
X153810000Y-138000000D02*
X151650000Y-138000000D01*
X158275000Y-133535000D02*
X153810000Y-138000000D01*
X158275000Y-129250000D02*
X158275000Y-133535000D01*
%TO.N,outer_row2*%
X158275000Y-116535000D02*
X153810000Y-121000000D01*
X153810000Y-121000000D02*
X151650000Y-121000000D01*
X158275000Y-112250000D02*
X158275000Y-116535000D01*
%TO.N,outer_row1*%
X153810000Y-104000000D02*
X151650000Y-104000000D01*
X158275000Y-99535000D02*
X153810000Y-104000000D01*
X158275000Y-95250000D02*
X158275000Y-99535000D01*
%TO.N,outer_number*%
X158275000Y-78250000D02*
X158275000Y-82535000D01*
X158275000Y-82535000D02*
X153810000Y-87000000D01*
X153810000Y-87000000D02*
X151650000Y-87000000D01*
%TO.N,P16*%
X164725000Y-110050000D02*
X167485000Y-107290000D01*
X164725000Y-76050000D02*
X167145000Y-73630000D01*
X167605000Y-90170000D02*
X168900000Y-90170000D01*
X164725000Y-127050000D02*
X165404000Y-127729000D01*
X165404000Y-109371000D02*
X164725000Y-110050000D01*
X164725000Y-110050000D02*
X165404000Y-110729000D01*
X164725000Y-76050000D02*
X165404000Y-76729000D01*
X167265000Y-124510000D02*
X168320000Y-124510000D01*
X167145000Y-73630000D02*
X168690000Y-73630000D01*
X165404000Y-76729000D02*
X165404000Y-92371000D01*
X164725000Y-144050000D02*
X167235000Y-141540000D01*
X164725000Y-127050000D02*
X167265000Y-124510000D01*
X164725000Y-93050000D02*
X165404000Y-93729000D01*
X168690000Y-73630000D02*
X170864500Y-73630000D01*
X167235000Y-141540000D02*
X168810000Y-141540000D01*
X165404000Y-110729000D02*
X165404000Y-126371000D01*
X165404000Y-127729000D02*
X165404000Y-143371000D01*
X170864500Y-73630000D02*
X171070000Y-73424500D01*
X167485000Y-107290000D02*
X169540000Y-107290000D01*
X165404000Y-93729000D02*
X165404000Y-109371000D01*
X164725000Y-93050000D02*
X167605000Y-90170000D01*
X165404000Y-92371000D02*
X164725000Y-93050000D01*
X165404000Y-126371000D02*
X164725000Y-127050000D01*
X165404000Y-143371000D02*
X164725000Y-144050000D01*
%TO.N,pinky_bottom*%
X176275000Y-150535000D02*
X171810000Y-155000000D01*
X176275000Y-146250000D02*
X176275000Y-150535000D01*
X171810000Y-155000000D02*
X169650000Y-155000000D01*
%TO.N,pinky_row3*%
X170060000Y-138000000D02*
X169650000Y-138000000D01*
X176275000Y-129250000D02*
X176275000Y-133535000D01*
X176275000Y-133535000D02*
X171810000Y-138000000D01*
X170200000Y-138000000D02*
X170130000Y-138070000D01*
X170130000Y-138070000D02*
X170060000Y-138000000D01*
X171810000Y-138000000D02*
X170200000Y-138000000D01*
%TO.N,pinky_row2*%
X176275000Y-112250000D02*
X176275000Y-116535000D01*
X176275000Y-116535000D02*
X171810000Y-121000000D01*
X171810000Y-121000000D02*
X169650000Y-121000000D01*
%TO.N,pinky_row1*%
X176275000Y-95250000D02*
X176275000Y-99535000D01*
X176275000Y-99535000D02*
X171810000Y-104000000D01*
X171810000Y-104000000D02*
X169650000Y-104000000D01*
%TO.N,pinky_number*%
X176275000Y-82535000D02*
X171810000Y-87000000D01*
X176275000Y-78250000D02*
X176275000Y-82535000D01*
X171810000Y-87000000D02*
X169650000Y-87000000D01*
%TO.N,P10*%
X183404000Y-92371000D02*
X182725000Y-93050000D01*
X182725000Y-144050000D02*
X185425000Y-141350000D01*
X185215000Y-73560000D02*
X186750000Y-73560000D01*
X182725000Y-127050000D02*
X183404000Y-127729000D01*
X183480000Y-126295000D02*
X182725000Y-127050000D01*
X182725000Y-76050000D02*
X183404000Y-76729000D01*
X263600000Y-90660000D02*
X265860000Y-90660000D01*
X183404000Y-127729000D02*
X183404000Y-143371000D01*
X183404000Y-109371000D02*
X182725000Y-110050000D01*
X263560000Y-90620000D02*
X263600000Y-90660000D01*
X183480000Y-110805000D02*
X183480000Y-126295000D01*
X265860000Y-90660000D02*
X265860000Y-100950000D01*
X182725000Y-110050000D02*
X185155000Y-107620000D01*
X182725000Y-93050000D02*
X185235000Y-90540000D01*
X182725000Y-93050000D02*
X183404000Y-93729000D01*
X250045500Y-90620000D02*
X263560000Y-90620000D01*
X183404000Y-93729000D02*
X183404000Y-109371000D01*
X185425000Y-141350000D02*
X186790000Y-141350000D01*
X265860000Y-100950000D02*
X268380000Y-103470000D01*
X183404000Y-143371000D02*
X182725000Y-144050000D01*
X185135000Y-124640000D02*
X186710000Y-124640000D01*
X183404000Y-76729000D02*
X183404000Y-92371000D01*
X185155000Y-107620000D02*
X186590000Y-107620000D01*
X185235000Y-90540000D02*
X186760000Y-90540000D01*
X182725000Y-127050000D02*
X185135000Y-124640000D01*
X182725000Y-76050000D02*
X185215000Y-73560000D01*
X182725000Y-110050000D02*
X183480000Y-110805000D01*
%TO.N,ring_bottom*%
X194275000Y-150535000D02*
X189810000Y-155000000D01*
X189810000Y-155000000D02*
X187650000Y-155000000D01*
X194275000Y-146250000D02*
X194275000Y-150535000D01*
%TO.N,ring_row3*%
X194275000Y-133535000D02*
X189810000Y-138000000D01*
X189810000Y-138000000D02*
X187650000Y-138000000D01*
X194275000Y-129250000D02*
X194275000Y-133535000D01*
%TO.N,ring_row2*%
X189810000Y-121000000D02*
X187650000Y-121000000D01*
X194275000Y-116535000D02*
X189810000Y-121000000D01*
X194275000Y-112250000D02*
X194275000Y-116535000D01*
%TO.N,ring_row1*%
X189810000Y-104000000D02*
X187650000Y-104000000D01*
X194275000Y-99535000D02*
X189810000Y-104000000D01*
X194275000Y-95250000D02*
X194275000Y-99535000D01*
%TO.N,ring_number*%
X189810000Y-87000000D02*
X187650000Y-87000000D01*
X194275000Y-78250000D02*
X194275000Y-82535000D01*
X194275000Y-82535000D02*
X189810000Y-87000000D01*
%TO.N,P2*%
X203355000Y-90420000D02*
X206130000Y-90420000D01*
X249320500Y-90920305D02*
X249320500Y-90319695D01*
X250050000Y-107090000D02*
X250050000Y-91649805D01*
X267178700Y-98887595D02*
X267882405Y-99591300D01*
X200725000Y-110050000D02*
X203085000Y-107690000D01*
X267178700Y-90272405D02*
X267178700Y-98887595D01*
X201575000Y-126200000D02*
X201575000Y-110900000D01*
X249320500Y-90319695D02*
X250208895Y-89431300D01*
X201575000Y-76900000D02*
X200725000Y-76050000D01*
X200725000Y-93050000D02*
X201575000Y-92200000D01*
X250208895Y-89431300D02*
X266337595Y-89431300D01*
X201404000Y-143371000D02*
X200725000Y-144050000D01*
X201404000Y-93729000D02*
X200725000Y-93050000D01*
X200725000Y-127050000D02*
X201575000Y-126200000D01*
X203085000Y-107690000D02*
X205290000Y-107690000D01*
X203125000Y-141650000D02*
X204630000Y-141650000D01*
X201575000Y-92200000D02*
X201575000Y-76900000D01*
X200725000Y-76050000D02*
X203215000Y-73560000D01*
X200725000Y-144050000D02*
X203125000Y-141650000D01*
X269718700Y-99591300D02*
X283620000Y-85690000D01*
X203215000Y-73560000D02*
X204600000Y-73560000D01*
X201404000Y-109371000D02*
X201404000Y-93729000D01*
X201404000Y-127729000D02*
X201404000Y-143371000D01*
X200725000Y-127050000D02*
X201404000Y-127729000D01*
X203185000Y-124590000D02*
X204770000Y-124590000D01*
X200725000Y-127050000D02*
X203185000Y-124590000D01*
X200725000Y-93050000D02*
X203355000Y-90420000D01*
X250050000Y-91649805D02*
X249320500Y-90920305D01*
X266337595Y-89431300D02*
X267178700Y-90272405D01*
X200725000Y-110050000D02*
X201404000Y-109371000D01*
X267882405Y-99591300D02*
X269718700Y-99591300D01*
X201575000Y-110900000D02*
X200725000Y-110050000D01*
%TO.N,middle_bottom*%
X212275000Y-150535000D02*
X207810000Y-155000000D01*
X212275000Y-146250000D02*
X212275000Y-150535000D01*
X207810000Y-155000000D02*
X205650000Y-155000000D01*
%TO.N,middle_row3*%
X212275000Y-133535000D02*
X207810000Y-138000000D01*
X207810000Y-138000000D02*
X205650000Y-138000000D01*
X212275000Y-129250000D02*
X212275000Y-133535000D01*
%TO.N,middle_row2*%
X206150000Y-121000000D02*
X206130000Y-121020000D01*
X212275000Y-112250000D02*
X212275000Y-116535000D01*
X212275000Y-116535000D02*
X207810000Y-121000000D01*
X206130000Y-121020000D02*
X206110000Y-121000000D01*
X207810000Y-121000000D02*
X206150000Y-121000000D01*
X206110000Y-121000000D02*
X205650000Y-121000000D01*
%TO.N,middle_row1*%
X207810000Y-104000000D02*
X205650000Y-104000000D01*
X212275000Y-95250000D02*
X212275000Y-99535000D01*
X212275000Y-99535000D02*
X207810000Y-104000000D01*
%TO.N,middle_number*%
X212275000Y-82535000D02*
X207810000Y-87000000D01*
X212275000Y-78250000D02*
X212275000Y-82535000D01*
X207810000Y-87000000D02*
X205650000Y-87000000D01*
%TO.N,P3*%
X221375000Y-107400000D02*
X224040000Y-107400000D01*
X219404000Y-143371000D02*
X218725000Y-144050000D01*
X218725000Y-76050000D02*
X219404000Y-76729000D01*
X219404000Y-92371000D02*
X218725000Y-93050000D01*
X219404000Y-126371000D02*
X218725000Y-127050000D01*
X289397020Y-94580000D02*
X289847068Y-94129952D01*
X219404000Y-110729000D02*
X219404000Y-126371000D01*
X266518895Y-122270000D02*
X284821300Y-103967595D01*
X284821300Y-103967595D02*
X284821300Y-96941300D01*
X282418700Y-96347595D02*
X282418700Y-95352405D01*
X219404000Y-109371000D02*
X218725000Y-110050000D01*
X283191105Y-94580000D02*
X289397020Y-94580000D01*
X218725000Y-127050000D02*
X219404000Y-127729000D01*
X284760000Y-96880000D02*
X284588700Y-97051300D01*
X219404000Y-93729000D02*
X219404000Y-109371000D01*
X221455000Y-124320000D02*
X223720000Y-124320000D01*
X221165000Y-90610000D02*
X223920000Y-90610000D01*
X249700000Y-122270000D02*
X266518895Y-122270000D01*
X283122405Y-97051300D02*
X282418700Y-96347595D01*
X289712007Y-88254781D02*
X289687226Y-88230000D01*
X218725000Y-144050000D02*
X221205000Y-141570000D01*
X219404000Y-127729000D02*
X219404000Y-143371000D01*
X218725000Y-110050000D02*
X221375000Y-107400000D01*
X289687226Y-88230000D02*
X283620000Y-88230000D01*
X282418700Y-95352405D02*
X283191105Y-94580000D01*
X284821300Y-96941300D02*
X284760000Y-96880000D01*
X218725000Y-76050000D02*
X221325000Y-73450000D01*
X284588700Y-97051300D02*
X283122405Y-97051300D01*
X289847068Y-94129952D02*
X289712007Y-88254781D01*
X218725000Y-93050000D02*
X219404000Y-93729000D01*
X218725000Y-93050000D02*
X221165000Y-90610000D01*
X221205000Y-141570000D02*
X224080000Y-141570000D01*
X218725000Y-127050000D02*
X221455000Y-124320000D01*
X219404000Y-76729000D02*
X219404000Y-92371000D01*
X221325000Y-73450000D02*
X222660000Y-73450000D01*
X218725000Y-110050000D02*
X219404000Y-110729000D01*
%TO.N,index_bottom*%
X225810000Y-155000000D02*
X223650000Y-155000000D01*
X230275000Y-146250000D02*
X230275000Y-150535000D01*
X230275000Y-150535000D02*
X225810000Y-155000000D01*
%TO.N,index_row3*%
X225810000Y-138000000D02*
X223650000Y-138000000D01*
X230275000Y-129250000D02*
X230275000Y-133535000D01*
X230275000Y-133535000D02*
X225810000Y-138000000D01*
%TO.N,index_row2*%
X230275000Y-112250000D02*
X230275000Y-116535000D01*
X230275000Y-116535000D02*
X225810000Y-121000000D01*
X225810000Y-121000000D02*
X223650000Y-121000000D01*
%TO.N,index_row1*%
X225810000Y-104000000D02*
X223650000Y-104000000D01*
X230275000Y-95250000D02*
X230275000Y-99535000D01*
X230275000Y-99535000D02*
X225810000Y-104000000D01*
%TO.N,index_number*%
X230275000Y-82535000D02*
X225810000Y-87000000D01*
X225810000Y-87000000D02*
X223650000Y-87000000D01*
X230275000Y-78250000D02*
X230275000Y-82535000D01*
%TO.N,P4*%
X239185000Y-73590000D02*
X240090000Y-73590000D01*
X237404000Y-127729000D02*
X237404000Y-157260600D01*
X237404000Y-92371000D02*
X236725000Y-93050000D01*
X239802079Y-159658679D02*
X239802079Y-155317921D01*
X237404000Y-109371000D02*
X236725000Y-110050000D01*
X237404000Y-157260600D02*
X239802079Y-159658679D01*
X236725000Y-110050000D02*
X239555000Y-107220000D01*
X239802079Y-155317921D02*
X240620000Y-154500000D01*
X236725000Y-76050000D02*
X239185000Y-73590000D01*
X237404000Y-76729000D02*
X237404000Y-92371000D01*
X236725000Y-110050000D02*
X237575000Y-110900000D01*
X239918350Y-124480000D02*
X241090000Y-124480000D01*
X237575000Y-110900000D02*
X237575000Y-126200000D01*
X236725000Y-127050000D02*
X237404000Y-127729000D01*
X237575000Y-126200000D02*
X236725000Y-127050000D01*
X283620000Y-90770000D02*
X266575000Y-107815000D01*
X236725000Y-93050000D02*
X237404000Y-93729000D01*
X237404000Y-93729000D02*
X237404000Y-109371000D01*
X236725000Y-127050000D02*
X237348350Y-127050000D01*
X266575000Y-107815000D02*
X241605000Y-107815000D01*
X236725000Y-76050000D02*
X237404000Y-76729000D01*
X237348350Y-127050000D02*
X239918350Y-124480000D01*
X241605000Y-107815000D02*
X241010000Y-107220000D01*
X239555000Y-107220000D02*
X241010000Y-107220000D01*
%TO.N,inner_row3*%
X248275000Y-129250000D02*
X248275000Y-133535000D01*
X243810000Y-138000000D02*
X241650000Y-138000000D01*
X248275000Y-133535000D02*
X243810000Y-138000000D01*
%TO.N,inner_row2*%
X243810000Y-121000000D02*
X241650000Y-121000000D01*
X248275000Y-112250000D02*
X248275000Y-116535000D01*
X248275000Y-116535000D02*
X243810000Y-121000000D01*
%TO.N,inner_row1*%
X248275000Y-95250000D02*
X248275000Y-99535000D01*
X243810000Y-104000000D02*
X241650000Y-104000000D01*
X248275000Y-99535000D02*
X243810000Y-104000000D01*
%TO.N,inner_number*%
X248275000Y-82535000D02*
X243810000Y-87000000D01*
X243810000Y-87000000D02*
X241650000Y-87000000D01*
X248275000Y-78250000D02*
X248275000Y-82535000D01*
%TO.N,space_cluster*%
X252744416Y-161536014D02*
X251355995Y-162924435D01*
X248911574Y-152224999D02*
X252744416Y-156057841D01*
X252744416Y-156057841D02*
X252744416Y-161269779D01*
X252744416Y-161269779D02*
X252744416Y-161536014D01*
%TO.N,P5*%
X281968700Y-94961300D02*
X281968700Y-99698701D01*
X248975000Y-121969695D02*
X248975000Y-126885000D01*
X260122401Y-121545000D02*
X249399695Y-121545000D01*
X248975000Y-126885000D02*
X255520000Y-133430000D01*
X254356924Y-167433076D02*
X255520000Y-166270000D01*
X249399695Y-121545000D02*
X248975000Y-121969695D01*
X254356924Y-171871644D02*
X254356924Y-167433076D01*
X283620000Y-93310000D02*
X281968700Y-94961300D01*
X255520000Y-133430000D02*
X255520000Y-166270000D01*
X281968700Y-99698701D02*
X260122401Y-121545000D01*
%TO.N,layer_cluster*%
X263466419Y-164437964D02*
X267299261Y-168270806D01*
X267299261Y-173748979D02*
X265910840Y-175137400D01*
X267299261Y-173482744D02*
X267299261Y-173748979D01*
X267299261Y-168270806D02*
X267299261Y-173482744D01*
%TO.N,GND*%
X270920000Y-80610000D02*
X268380000Y-78070000D01*
X283620000Y-80610000D02*
X270920000Y-80610000D01*
X283620000Y-80610000D02*
X283620000Y-83150000D01*
X279800000Y-117100000D02*
X278700000Y-116000000D01*
X279800000Y-118300000D02*
X279800000Y-117100000D01*
X279800000Y-112600000D02*
X278700000Y-113700000D01*
X279800000Y-111400000D02*
X279800000Y-112600000D01*
X278700000Y-113700000D02*
X278700000Y-116000000D01*
%TO.N,VCC*%
X269581300Y-84351300D02*
X289759103Y-84351300D01*
X290079762Y-84671959D02*
X290649034Y-109435310D01*
X288684344Y-111400000D02*
X286800000Y-111400000D01*
X290649034Y-109435310D02*
X288684344Y-111400000D01*
X286800000Y-111400000D02*
X286800000Y-118300000D01*
X289759103Y-84351300D02*
X290079762Y-84671959D01*
X268380000Y-83150000D02*
X269581300Y-84351300D01*
%TO.N,P6*%
X290183949Y-108784277D02*
X286415723Y-108784277D01*
X286415723Y-108784277D02*
X283800000Y-111400000D01*
X283620000Y-95850000D02*
X289822331Y-95850000D01*
X289822331Y-95850000D02*
X289888121Y-95915790D01*
X289888121Y-95915790D02*
X290183949Y-108784277D01*
X283800000Y-118300000D02*
X283800000Y-111400000D01*
%TD*%
M02*
