%TF.GenerationSoftware,KiCad,Pcbnew,7.0.7-2.fc38*%
%TF.CreationDate,2023-08-26T22:07:57+08:00*%
%TF.ProjectId,split_keyboard_I,73706c69-745f-46b6-9579-626f6172645f,v1.0.0*%
%TF.SameCoordinates,Original*%
%TF.FileFunction,Copper,L1,Top*%
%TF.FilePolarity,Positive*%
%FSLAX46Y46*%
G04 Gerber Fmt 4.6, Leading zero omitted, Abs format (unit mm)*
G04 Created by KiCad (PCBNEW 7.0.7-2.fc38) date 2023-08-26 22:07:57*
%MOMM*%
%LPD*%
G01*
G04 APERTURE LIST*
G04 Aperture macros list*
%AMRotRect*
0 Rectangle, with rotation*
0 The origin of the aperture is its center*
0 $1 length*
0 $2 width*
0 $3 Rotation angle, in degrees counterclockwise*
0 Add horizontal line*
21,1,$1,$2,0,0,$3*%
G04 Aperture macros list end*
%TA.AperFunction,SMDPad,CuDef*%
%ADD10R,1.800000X1.100000*%
%TD*%
%TA.AperFunction,SMDPad,CuDef*%
%ADD11R,2.600000X2.600000*%
%TD*%
%TA.AperFunction,ComponentPad*%
%ADD12R,1.778000X1.778000*%
%TD*%
%TA.AperFunction,SMDPad,CuDef*%
%ADD13R,0.900000X1.200000*%
%TD*%
%TA.AperFunction,ComponentPad*%
%ADD14C,1.905000*%
%TD*%
%TA.AperFunction,SMDPad,CuDef*%
%ADD15RotRect,2.600000X2.600000X50.000000*%
%TD*%
%TA.AperFunction,ComponentPad*%
%ADD16O,2.200000X1.600000*%
%TD*%
%TA.AperFunction,ComponentPad*%
%ADD17RotRect,1.778000X1.778000X50.000000*%
%TD*%
%TA.AperFunction,SMDPad,CuDef*%
%ADD18RotRect,0.900000X1.200000X50.000000*%
%TD*%
%TA.AperFunction,ComponentPad*%
%ADD19R,1.752600X1.752600*%
%TD*%
%TA.AperFunction,ComponentPad*%
%ADD20C,1.752600*%
%TD*%
%TA.AperFunction,ViaPad*%
%ADD21C,0.800000*%
%TD*%
%TA.AperFunction,Conductor*%
%ADD22C,0.250000*%
%TD*%
G04 APERTURE END LIST*
D10*
%TO.P,B1,2*%
%TO.N,RST*%
X259100000Y-77850000D03*
X252900000Y-77850000D03*
%TO.P,B1,1*%
%TO.N,GND*%
X259100000Y-74150000D03*
X252900000Y-74150000D03*
%TD*%
D11*
%TO.P,S12,1*%
%TO.N,P10*%
X189275000Y-127050000D03*
%TO.P,S12,2*%
%TO.N,ring_row3*%
X177725000Y-129250000D03*
%TD*%
%TO.P,S27,1*%
%TO.N,P4*%
X243275000Y-110050000D03*
%TO.P,S27,2*%
%TO.N,inner_row2*%
X231725000Y-112250000D03*
%TD*%
%TO.P,S15,1*%
%TO.N,P10*%
X189275000Y-76050000D03*
%TO.P,S15,2*%
%TO.N,ring_number*%
X177725000Y-78250000D03*
%TD*%
D12*
%TO.P,D27,1*%
%TO.N,P19*%
X236190000Y-121000000D03*
D13*
X238350000Y-121000000D03*
%TO.P,D27,2*%
%TO.N,inner_row2*%
X241650000Y-121000000D03*
D14*
X243810000Y-121000000D03*
%TD*%
D12*
%TO.P,D2,1*%
%TO.N,P18*%
X146190000Y-138000000D03*
D13*
X148350000Y-138000000D03*
%TO.P,D2,2*%
%TO.N,outer_row3*%
X151650000Y-138000000D03*
D14*
X153810000Y-138000000D03*
%TD*%
D12*
%TO.P,D23,1*%
%TO.N,P19*%
X218190000Y-121000000D03*
D13*
X220350000Y-121000000D03*
%TO.P,D23,2*%
%TO.N,index_row2*%
X223650000Y-121000000D03*
D14*
X225810000Y-121000000D03*
%TD*%
D12*
%TO.P,D28,1*%
%TO.N,P20*%
X236190000Y-104000000D03*
D13*
X238350000Y-104000000D03*
%TO.P,D28,2*%
%TO.N,inner_row1*%
X241650000Y-104000000D03*
D14*
X243810000Y-104000000D03*
%TD*%
D12*
%TO.P,D10,1*%
%TO.N,P21*%
X164190000Y-87000000D03*
D13*
X166350000Y-87000000D03*
%TO.P,D10,2*%
%TO.N,pinky_number*%
X169650000Y-87000000D03*
D14*
X171810000Y-87000000D03*
%TD*%
D11*
%TO.P,S18,1*%
%TO.N,P2*%
X207275000Y-110050000D03*
%TO.P,S18,2*%
%TO.N,middle_row2*%
X195725000Y-112250000D03*
%TD*%
D12*
%TO.P,D20,1*%
%TO.N,P21*%
X200190000Y-87000000D03*
D13*
X202350000Y-87000000D03*
%TO.P,D20,2*%
%TO.N,middle_number*%
X205650000Y-87000000D03*
D14*
X207810000Y-87000000D03*
%TD*%
D11*
%TO.P,S6,1*%
%TO.N,P16*%
X171275000Y-144050000D03*
%TO.P,S6,2*%
%TO.N,pinky_bottom*%
X159725000Y-146250000D03*
%TD*%
D15*
%TO.P,S30,1*%
%TO.N,P4*%
X244012338Y-154641088D03*
%TO.P,S30,2*%
%TO.N,space_cluster*%
X238273439Y-164903034D03*
%TD*%
%TO.P,S31,1*%
%TO.N,P5*%
X258567183Y-166854053D03*
%TO.P,S31,2*%
%TO.N,layer_cluster*%
X252828284Y-177115999D03*
%TD*%
D12*
%TO.P,D15,1*%
%TO.N,P21*%
X182190000Y-87000000D03*
D13*
X184350000Y-87000000D03*
%TO.P,D15,2*%
%TO.N,ring_number*%
X187650000Y-87000000D03*
D14*
X189810000Y-87000000D03*
%TD*%
D12*
%TO.P,D24,1*%
%TO.N,P20*%
X218190000Y-104000000D03*
D13*
X220350000Y-104000000D03*
%TO.P,D24,2*%
%TO.N,index_row1*%
X223650000Y-104000000D03*
D14*
X225810000Y-104000000D03*
%TD*%
D11*
%TO.P,S16,1*%
%TO.N,P2*%
X207275000Y-144050000D03*
%TO.P,S16,2*%
%TO.N,middle_bottom*%
X195725000Y-146250000D03*
%TD*%
D12*
%TO.P,D6,1*%
%TO.N,P15*%
X164190000Y-155000000D03*
D13*
X166350000Y-155000000D03*
%TO.P,D6,2*%
%TO.N,pinky_bottom*%
X169650000Y-155000000D03*
D14*
X171810000Y-155000000D03*
%TD*%
D11*
%TO.P,S8,1*%
%TO.N,P16*%
X171275000Y-110050000D03*
%TO.P,S8,2*%
%TO.N,pinky_row2*%
X159725000Y-112250000D03*
%TD*%
D16*
%TO.P,TRRS1,1*%
%TO.N,GND*%
X278700000Y-113700000D03*
X278700000Y-116000000D03*
%TO.P,TRRS1,2*%
X279800000Y-111400000D03*
X279800000Y-118300000D03*
%TO.P,TRRS1,3*%
%TO.N,P6*%
X283800000Y-111400000D03*
X283800000Y-118300000D03*
%TO.P,TRRS1,4*%
%TO.N,VCC*%
X286800000Y-111400000D03*
X286800000Y-118300000D03*
%TD*%
D11*
%TO.P,S5,1*%
%TO.N,P14*%
X153275000Y-76050000D03*
%TO.P,S5,2*%
%TO.N,outer_number*%
X141725000Y-78250000D03*
%TD*%
%TO.P,S20,1*%
%TO.N,P2*%
X207275000Y-76050000D03*
%TO.P,S20,2*%
%TO.N,middle_number*%
X195725000Y-78250000D03*
%TD*%
%TO.P,S25,1*%
%TO.N,P3*%
X225275000Y-76050000D03*
%TO.P,S25,2*%
%TO.N,index_number*%
X213725000Y-78250000D03*
%TD*%
%TO.P,S14,1*%
%TO.N,P10*%
X189275000Y-93050000D03*
%TO.P,S14,2*%
%TO.N,ring_row1*%
X177725000Y-95250000D03*
%TD*%
%TO.P,S21,1*%
%TO.N,P3*%
X225275000Y-144050000D03*
%TO.P,S21,2*%
%TO.N,index_bottom*%
X213725000Y-146250000D03*
%TD*%
%TO.P,S29,1*%
%TO.N,P4*%
X243275000Y-76050000D03*
%TO.P,S29,2*%
%TO.N,inner_number*%
X231725000Y-78250000D03*
%TD*%
D12*
%TO.P,D7,1*%
%TO.N,P18*%
X164190000Y-138000000D03*
D13*
X166350000Y-138000000D03*
%TO.P,D7,2*%
%TO.N,pinky_row3*%
X169650000Y-138000000D03*
D14*
X171810000Y-138000000D03*
%TD*%
D11*
%TO.P,S7,1*%
%TO.N,P16*%
X171275000Y-127050000D03*
%TO.P,S7,2*%
%TO.N,pinky_row3*%
X159725000Y-129250000D03*
%TD*%
D12*
%TO.P,D11,1*%
%TO.N,P15*%
X182190000Y-155000000D03*
D13*
X184350000Y-155000000D03*
%TO.P,D11,2*%
%TO.N,ring_bottom*%
X187650000Y-155000000D03*
D14*
X189810000Y-155000000D03*
%TD*%
D12*
%TO.P,D1,1*%
%TO.N,P15*%
X146190000Y-155000000D03*
D13*
X148350000Y-155000000D03*
%TO.P,D1,2*%
%TO.N,outer_bottom*%
X151650000Y-155000000D03*
D14*
X153810000Y-155000000D03*
%TD*%
D11*
%TO.P,S4,1*%
%TO.N,P14*%
X153275000Y-93050000D03*
%TO.P,S4,2*%
%TO.N,outer_row1*%
X141725000Y-95250000D03*
%TD*%
D12*
%TO.P,D25,1*%
%TO.N,P21*%
X218190000Y-87000000D03*
D13*
X220350000Y-87000000D03*
%TO.P,D25,2*%
%TO.N,index_number*%
X223650000Y-87000000D03*
D14*
X225810000Y-87000000D03*
%TD*%
D17*
%TO.P,D30,1*%
%TO.N,P15*%
X247846374Y-167107037D03*
D18*
X249234795Y-165452381D03*
%TO.P,D30,2*%
%TO.N,space_cluster*%
X251355995Y-162924435D03*
D14*
X252744416Y-161269779D03*
%TD*%
D11*
%TO.P,S26,1*%
%TO.N,P4*%
X243275000Y-127050000D03*
%TO.P,S26,2*%
%TO.N,inner_row3*%
X231725000Y-129250000D03*
%TD*%
D12*
%TO.P,D8,1*%
%TO.N,P19*%
X164190000Y-121000000D03*
D13*
X166350000Y-121000000D03*
%TO.P,D8,2*%
%TO.N,pinky_row2*%
X169650000Y-121000000D03*
D14*
X171810000Y-121000000D03*
%TD*%
D11*
%TO.P,S3,1*%
%TO.N,P14*%
X153275000Y-110050000D03*
%TO.P,S3,2*%
%TO.N,outer_row2*%
X141725000Y-112250000D03*
%TD*%
%TO.P,S2,1*%
%TO.N,P14*%
X153275000Y-127050000D03*
%TO.P,S2,2*%
%TO.N,outer_row3*%
X141725000Y-129250000D03*
%TD*%
%TO.P,S23,1*%
%TO.N,P3*%
X225275000Y-110050000D03*
%TO.P,S23,2*%
%TO.N,index_row2*%
X213725000Y-112250000D03*
%TD*%
D12*
%TO.P,D3,1*%
%TO.N,P19*%
X146190000Y-121000000D03*
D13*
X148350000Y-121000000D03*
%TO.P,D3,2*%
%TO.N,outer_row2*%
X151650000Y-121000000D03*
D14*
X153810000Y-121000000D03*
%TD*%
D17*
%TO.P,D31,1*%
%TO.N,P15*%
X262401219Y-179320002D03*
D18*
X263789640Y-177665346D03*
%TO.P,D31,2*%
%TO.N,layer_cluster*%
X265910840Y-175137400D03*
D14*
X267299261Y-173482744D03*
%TD*%
D12*
%TO.P,D16,1*%
%TO.N,P15*%
X200190000Y-155000000D03*
D13*
X202350000Y-155000000D03*
%TO.P,D16,2*%
%TO.N,middle_bottom*%
X205650000Y-155000000D03*
D14*
X207810000Y-155000000D03*
%TD*%
D12*
%TO.P,D14,1*%
%TO.N,P20*%
X182190000Y-104000000D03*
D13*
X184350000Y-104000000D03*
%TO.P,D14,2*%
%TO.N,ring_row1*%
X187650000Y-104000000D03*
D14*
X189810000Y-104000000D03*
%TD*%
D11*
%TO.P,S1,1*%
%TO.N,P14*%
X153275000Y-144050000D03*
%TO.P,S1,2*%
%TO.N,outer_bottom*%
X141725000Y-146250000D03*
%TD*%
%TO.P,S13,1*%
%TO.N,P10*%
X189275000Y-110050000D03*
%TO.P,S13,2*%
%TO.N,ring_row2*%
X177725000Y-112250000D03*
%TD*%
%TO.P,S11,1*%
%TO.N,P10*%
X189275000Y-144050000D03*
%TO.P,S11,2*%
%TO.N,ring_bottom*%
X177725000Y-146250000D03*
%TD*%
%TO.P,S9,1*%
%TO.N,P16*%
X171275000Y-93050000D03*
%TO.P,S9,2*%
%TO.N,pinky_row1*%
X159725000Y-95250000D03*
%TD*%
D12*
%TO.P,D29,1*%
%TO.N,P21*%
X236190000Y-87000000D03*
D13*
X238350000Y-87000000D03*
%TO.P,D29,2*%
%TO.N,inner_number*%
X241650000Y-87000000D03*
D14*
X243810000Y-87000000D03*
%TD*%
D12*
%TO.P,D4,1*%
%TO.N,P20*%
X146190000Y-104000000D03*
D13*
X148350000Y-104000000D03*
%TO.P,D4,2*%
%TO.N,outer_row1*%
X151650000Y-104000000D03*
D14*
X153810000Y-104000000D03*
%TD*%
D12*
%TO.P,D5,1*%
%TO.N,P21*%
X146190000Y-87000000D03*
D13*
X148350000Y-87000000D03*
%TO.P,D5,2*%
%TO.N,outer_number*%
X151650000Y-87000000D03*
D14*
X153810000Y-87000000D03*
%TD*%
D19*
%TO.P,MCU1,1*%
%TO.N,RAW*%
X268380000Y-75530000D03*
D20*
%TO.P,MCU1,2*%
%TO.N,GND*%
X268380000Y-78070000D03*
%TO.P,MCU1,3*%
%TO.N,RST*%
X268380000Y-80610000D03*
%TO.P,MCU1,4*%
%TO.N,VCC*%
X268380000Y-83150000D03*
%TO.P,MCU1,5*%
%TO.N,P21*%
X268380000Y-85690000D03*
%TO.P,MCU1,6*%
%TO.N,P20*%
X268380000Y-88230000D03*
%TO.P,MCU1,7*%
%TO.N,P19*%
X268380000Y-90770000D03*
%TO.P,MCU1,8*%
%TO.N,P18*%
X268380000Y-93310000D03*
%TO.P,MCU1,9*%
%TO.N,P15*%
X268380000Y-95850000D03*
%TO.P,MCU1,10*%
%TO.N,P14*%
X268380000Y-98390000D03*
%TO.P,MCU1,11*%
%TO.N,P16*%
X268380000Y-100930000D03*
%TO.P,MCU1,12*%
%TO.N,P10*%
X268380000Y-103470000D03*
%TO.P,MCU1,13*%
%TO.N,P1*%
X283620000Y-75530000D03*
%TO.P,MCU1,14*%
%TO.N,P0*%
X283620000Y-78070000D03*
%TO.P,MCU1,15*%
%TO.N,GND*%
X283620000Y-80610000D03*
%TO.P,MCU1,16*%
X283620000Y-83150000D03*
%TO.P,MCU1,17*%
%TO.N,P2*%
X283620000Y-85690000D03*
%TO.P,MCU1,18*%
%TO.N,P3*%
X283620000Y-88230000D03*
%TO.P,MCU1,19*%
%TO.N,P4*%
X283620000Y-90770000D03*
%TO.P,MCU1,20*%
%TO.N,P5*%
X283620000Y-93310000D03*
%TO.P,MCU1,21*%
%TO.N,P6*%
X283620000Y-95850000D03*
%TO.P,MCU1,22*%
%TO.N,P7*%
X283620000Y-98390000D03*
%TO.P,MCU1,23*%
%TO.N,P8*%
X283620000Y-100930000D03*
%TO.P,MCU1,24*%
%TO.N,P9*%
X283620000Y-103470000D03*
%TD*%
D11*
%TO.P,S10,1*%
%TO.N,P16*%
X171275000Y-76050000D03*
%TO.P,S10,2*%
%TO.N,pinky_number*%
X159725000Y-78250000D03*
%TD*%
%TO.P,S19,1*%
%TO.N,P2*%
X207275000Y-93050000D03*
%TO.P,S19,2*%
%TO.N,middle_row1*%
X195725000Y-95250000D03*
%TD*%
%TO.P,S22,1*%
%TO.N,P3*%
X225275000Y-127050000D03*
%TO.P,S22,2*%
%TO.N,index_row3*%
X213725000Y-129250000D03*
%TD*%
D12*
%TO.P,D9,1*%
%TO.N,P20*%
X164190000Y-104000000D03*
D13*
X166350000Y-104000000D03*
%TO.P,D9,2*%
%TO.N,pinky_row1*%
X169650000Y-104000000D03*
D14*
X171810000Y-104000000D03*
%TD*%
D11*
%TO.P,S17,1*%
%TO.N,P2*%
X207275000Y-127050000D03*
%TO.P,S17,2*%
%TO.N,middle_row3*%
X195725000Y-129250000D03*
%TD*%
D12*
%TO.P,D19,1*%
%TO.N,P20*%
X200190000Y-104000000D03*
D13*
X202350000Y-104000000D03*
%TO.P,D19,2*%
%TO.N,middle_row1*%
X205650000Y-104000000D03*
D14*
X207810000Y-104000000D03*
%TD*%
D12*
%TO.P,D17,1*%
%TO.N,P18*%
X200190000Y-138000000D03*
D13*
X202350000Y-138000000D03*
%TO.P,D17,2*%
%TO.N,middle_row3*%
X205650000Y-138000000D03*
D14*
X207810000Y-138000000D03*
%TD*%
D12*
%TO.P,D21,1*%
%TO.N,P15*%
X218190000Y-155000000D03*
D13*
X220350000Y-155000000D03*
%TO.P,D21,2*%
%TO.N,index_bottom*%
X223650000Y-155000000D03*
D14*
X225810000Y-155000000D03*
%TD*%
D11*
%TO.P,S28,1*%
%TO.N,P4*%
X243275000Y-93050000D03*
%TO.P,S28,2*%
%TO.N,inner_row1*%
X231725000Y-95250000D03*
%TD*%
D12*
%TO.P,D22,1*%
%TO.N,P18*%
X218190000Y-138000000D03*
D13*
X220350000Y-138000000D03*
%TO.P,D22,2*%
%TO.N,index_row3*%
X223650000Y-138000000D03*
D14*
X225810000Y-138000000D03*
%TD*%
D11*
%TO.P,S24,1*%
%TO.N,P3*%
X225275000Y-93050000D03*
%TO.P,S24,2*%
%TO.N,index_row1*%
X213725000Y-95250000D03*
%TD*%
D12*
%TO.P,D13,1*%
%TO.N,P19*%
X182190000Y-121000000D03*
D13*
X184350000Y-121000000D03*
%TO.P,D13,2*%
%TO.N,ring_row2*%
X187650000Y-121000000D03*
D14*
X189810000Y-121000000D03*
%TD*%
D12*
%TO.P,D26,1*%
%TO.N,P18*%
X236190000Y-138000000D03*
D13*
X238350000Y-138000000D03*
%TO.P,D26,2*%
%TO.N,inner_row3*%
X241650000Y-138000000D03*
D14*
X243810000Y-138000000D03*
%TD*%
D12*
%TO.P,D12,1*%
%TO.N,P18*%
X182190000Y-138000000D03*
D13*
X184350000Y-138000000D03*
%TO.P,D12,2*%
%TO.N,ring_row3*%
X187650000Y-138000000D03*
D14*
X189810000Y-138000000D03*
%TD*%
D12*
%TO.P,D18,1*%
%TO.N,P19*%
X200190000Y-121000000D03*
D13*
X202350000Y-121000000D03*
%TO.P,D18,2*%
%TO.N,middle_row2*%
X205650000Y-121000000D03*
D14*
X207810000Y-121000000D03*
%TD*%
D21*
%TO.N,P14*%
X150800000Y-90600000D03*
X150280000Y-141460000D03*
X151440000Y-107460000D03*
X150170000Y-73380000D03*
X151460000Y-124510000D03*
%TO.N,P16*%
X169540000Y-107290000D03*
X168900000Y-90170000D03*
X168320000Y-124510000D03*
X171070000Y-73424500D03*
X168690000Y-73630000D03*
X168810000Y-141540000D03*
%TO.N,P10*%
X186710000Y-124640000D03*
X186760000Y-90540000D03*
X250045500Y-90620000D03*
X186590000Y-107620000D03*
X186750000Y-73560000D03*
X186790000Y-141350000D03*
%TO.N,P2*%
X204770000Y-124590000D03*
X206130000Y-90420000D03*
X250050000Y-107090000D03*
X204630000Y-141650000D03*
X204600000Y-73560000D03*
X205290000Y-107690000D03*
%TO.N,P3*%
X224040000Y-107400000D03*
X223720000Y-124320000D03*
X223920000Y-90610000D03*
X249700000Y-122270000D03*
X222660000Y-73450000D03*
X224080000Y-141570000D03*
%TO.N,P4*%
X241010000Y-107220000D03*
X240620000Y-154500000D03*
X241090000Y-124480000D03*
X240090000Y-73590000D03*
%TO.N,P5*%
X255520000Y-166270000D03*
%TD*%
D22*
%TO.N,P14*%
X153275000Y-109295000D02*
X153275000Y-110050000D01*
X151440000Y-107460000D02*
X153275000Y-109295000D01*
X150605000Y-73380000D02*
X153275000Y-76050000D01*
X150280000Y-141460000D02*
X150685000Y-141460000D01*
X151460000Y-124510000D02*
X151460000Y-125235000D01*
X150685000Y-141460000D02*
X153275000Y-144050000D01*
X151460000Y-125235000D02*
X153275000Y-127050000D01*
X150825000Y-90600000D02*
X153275000Y-93050000D01*
X150800000Y-90600000D02*
X150825000Y-90600000D01*
X150170000Y-73380000D02*
X150605000Y-73380000D01*
%TO.N,outer_bottom*%
X141725000Y-146250000D02*
X144249100Y-148774100D01*
X151650000Y-155000000D02*
X153810000Y-155000000D01*
X144249100Y-148774100D02*
X145424100Y-148774100D01*
X145424100Y-148774100D02*
X151650000Y-155000000D01*
%TO.N,outer_row3*%
X153810000Y-138000000D02*
X151650000Y-138000000D01*
X143600000Y-131125000D02*
X144775000Y-131125000D01*
X141725000Y-129250000D02*
X143600000Y-131125000D01*
X144775000Y-131125000D02*
X151650000Y-138000000D01*
%TO.N,outer_row2*%
X143600000Y-114125000D02*
X145170001Y-114125000D01*
X151650000Y-120604999D02*
X151650000Y-121000000D01*
X151650000Y-121000000D02*
X153810000Y-121000000D01*
X141725000Y-112250000D02*
X143600000Y-114125000D01*
X145170001Y-114125000D02*
X151650000Y-120604999D01*
%TO.N,outer_row1*%
X151650000Y-104000000D02*
X153810000Y-104000000D01*
X141725000Y-95250000D02*
X143600000Y-97125000D01*
X144775000Y-97125000D02*
X151650000Y-104000000D01*
X143600000Y-97125000D02*
X144775000Y-97125000D01*
%TO.N,outer_number*%
X145424100Y-80774100D02*
X151650000Y-87000000D01*
X144249100Y-80774100D02*
X145424100Y-80774100D01*
X141725000Y-78250000D02*
X144249100Y-80774100D01*
X151650000Y-87000000D02*
X153810000Y-87000000D01*
%TO.N,P16*%
X168900000Y-90675000D02*
X171275000Y-93050000D01*
X168735000Y-124510000D02*
X171275000Y-127050000D01*
X251491300Y-79271300D02*
X268931300Y-79271300D01*
X268931300Y-79271300D02*
X269581300Y-79921300D01*
X169540000Y-107290000D02*
X169540000Y-108315000D01*
X169540000Y-108315000D02*
X171275000Y-110050000D01*
X250890000Y-74240000D02*
X250890000Y-78670000D01*
X168810000Y-141585000D02*
X171275000Y-144050000D01*
X269581300Y-99728700D02*
X268380000Y-100930000D01*
X250890000Y-78670000D02*
X251491300Y-79271300D01*
X168690000Y-73630000D02*
X168855000Y-73630000D01*
X168320000Y-124510000D02*
X168735000Y-124510000D01*
X168855000Y-73630000D02*
X171275000Y-76050000D01*
X269581300Y-79921300D02*
X269581300Y-99728700D01*
X171794500Y-72700000D02*
X249350000Y-72700000D01*
X168810000Y-141540000D02*
X168810000Y-141585000D01*
X168900000Y-90170000D02*
X168900000Y-90675000D01*
X249350000Y-72700000D02*
X250890000Y-74240000D01*
X171070000Y-73424500D02*
X171794500Y-72700000D01*
%TO.N,pinky_bottom*%
X159725000Y-146250000D02*
X162249100Y-148774100D01*
X162249100Y-148774100D02*
X163424100Y-148774100D01*
X169650000Y-155000000D02*
X171810000Y-155000000D01*
X163424100Y-148774100D02*
X169650000Y-155000000D01*
%TO.N,pinky_row3*%
X169650000Y-138000000D02*
X171810000Y-138000000D01*
X161600000Y-131125000D02*
X162775000Y-131125000D01*
X162775000Y-131125000D02*
X169650000Y-138000000D01*
X159725000Y-129250000D02*
X161600000Y-131125000D01*
%TO.N,pinky_row2*%
X159725000Y-112250000D02*
X162249100Y-114774100D01*
X163424100Y-114774100D02*
X169650000Y-121000000D01*
X169650000Y-121000000D02*
X171810000Y-121000000D01*
X162249100Y-114774100D02*
X163424100Y-114774100D01*
%TO.N,pinky_row1*%
X159725000Y-95250000D02*
X162249100Y-97774100D01*
X162249100Y-97774100D02*
X163424100Y-97774100D01*
X171810000Y-104000000D02*
X169650000Y-104000000D01*
X163424100Y-97774100D02*
X169650000Y-104000000D01*
%TO.N,pinky_number*%
X159725000Y-78250000D02*
X161600000Y-80125000D01*
X161600000Y-80125000D02*
X162775000Y-80125000D01*
X171810000Y-87000000D02*
X169650000Y-87000000D01*
X162775000Y-80125000D02*
X169650000Y-87000000D01*
%TO.N,P10*%
X186785000Y-73560000D02*
X189275000Y-76050000D01*
X186760000Y-90540000D02*
X186765000Y-90540000D01*
X186750000Y-73560000D02*
X186785000Y-73560000D01*
X249120500Y-89695000D02*
X250045500Y-90620000D01*
X186790000Y-141350000D02*
X186790000Y-141565000D01*
X186765000Y-90540000D02*
X189275000Y-93050000D01*
X186790000Y-141565000D02*
X189275000Y-144050000D01*
X186845000Y-107620000D02*
X189275000Y-110050000D01*
X186710000Y-124640000D02*
X186865000Y-124640000D01*
X187605000Y-89695000D02*
X249120500Y-89695000D01*
X186760000Y-90540000D02*
X187605000Y-89695000D01*
X186865000Y-124640000D02*
X189275000Y-127050000D01*
X186590000Y-107620000D02*
X186845000Y-107620000D01*
%TO.N,ring_bottom*%
X180775000Y-148125000D02*
X187650000Y-155000000D01*
X179600000Y-148125000D02*
X180775000Y-148125000D01*
X187650000Y-155000000D02*
X189810000Y-155000000D01*
X177725000Y-146250000D02*
X179600000Y-148125000D01*
%TO.N,ring_row3*%
X187650000Y-138000000D02*
X189810000Y-138000000D01*
X180249100Y-131774100D02*
X181424100Y-131774100D01*
X177725000Y-129250000D02*
X180249100Y-131774100D01*
X181424100Y-131774100D02*
X187650000Y-138000000D01*
%TO.N,ring_row2*%
X187650000Y-121000000D02*
X189810000Y-121000000D01*
X179600000Y-114125000D02*
X180775000Y-114125000D01*
X177725000Y-112250000D02*
X179600000Y-114125000D01*
X180775000Y-114125000D02*
X187650000Y-121000000D01*
%TO.N,ring_row1*%
X177725000Y-95250000D02*
X179600000Y-97125000D01*
X179600000Y-97125000D02*
X180775000Y-97125000D01*
X180775000Y-97125000D02*
X187650000Y-104000000D01*
X189810000Y-104000000D02*
X187650000Y-104000000D01*
%TO.N,ring_number*%
X180249100Y-80774100D02*
X181424100Y-80774100D01*
X181424100Y-80774100D02*
X187650000Y-87000000D01*
X187650000Y-87000000D02*
X189810000Y-87000000D01*
X177725000Y-78250000D02*
X180249100Y-80774100D01*
%TO.N,P2*%
X204600000Y-73560000D02*
X204785000Y-73560000D01*
X206130000Y-91905000D02*
X207275000Y-93050000D01*
X204815000Y-124590000D02*
X207275000Y-127050000D01*
X206485000Y-106495000D02*
X249455000Y-106495000D01*
X206130000Y-90420000D02*
X206130000Y-91905000D01*
X205290000Y-107690000D02*
X206485000Y-106495000D01*
X249455000Y-106495000D02*
X250050000Y-107090000D01*
X204630000Y-141650000D02*
X204875000Y-141650000D01*
X204770000Y-124590000D02*
X204815000Y-124590000D01*
X204875000Y-141650000D02*
X207275000Y-144050000D01*
X205290000Y-107690000D02*
X205290000Y-108065000D01*
X205290000Y-108065000D02*
X207275000Y-110050000D01*
X204785000Y-73560000D02*
X207275000Y-76050000D01*
%TO.N,middle_bottom*%
X197600000Y-148125000D02*
X198775000Y-148125000D01*
X195725000Y-146250000D02*
X197600000Y-148125000D01*
X207810000Y-155000000D02*
X205650000Y-155000000D01*
X198775000Y-148125000D02*
X205650000Y-155000000D01*
%TO.N,middle_row3*%
X198249100Y-131774100D02*
X199424100Y-131774100D01*
X195725000Y-129250000D02*
X198249100Y-131774100D01*
X199424100Y-131774100D02*
X205650000Y-138000000D01*
X207810000Y-138000000D02*
X205650000Y-138000000D01*
%TO.N,middle_row2*%
X197600000Y-114125000D02*
X198775000Y-114125000D01*
X207810000Y-121000000D02*
X205650000Y-121000000D01*
X195725000Y-112250000D02*
X197600000Y-114125000D01*
X198775000Y-114125000D02*
X205650000Y-121000000D01*
%TO.N,middle_row1*%
X195725000Y-95250000D02*
X198249100Y-97774100D01*
X199424100Y-97774100D02*
X205650000Y-104000000D01*
X198249100Y-97774100D02*
X199424100Y-97774100D01*
X207810000Y-104000000D02*
X205650000Y-104000000D01*
%TO.N,middle_number*%
X207810000Y-87000000D02*
X205650000Y-87000000D01*
X195725000Y-78250000D02*
X197600000Y-80125000D01*
X198775000Y-80125000D02*
X205650000Y-87000000D01*
X197600000Y-80125000D02*
X198775000Y-80125000D01*
%TO.N,P3*%
X223920000Y-90610000D02*
X223920000Y-91695000D01*
X222660000Y-73450000D02*
X222675000Y-73450000D01*
X224080000Y-141570000D02*
X224080000Y-142855000D01*
X223920000Y-91695000D02*
X225275000Y-93050000D01*
X223720000Y-124320000D02*
X225200000Y-122840000D01*
X224080000Y-142855000D02*
X225275000Y-144050000D01*
X224040000Y-108815000D02*
X225275000Y-110050000D01*
X222675000Y-73450000D02*
X225275000Y-76050000D01*
X225200000Y-122840000D02*
X249130000Y-122840000D01*
X249130000Y-122840000D02*
X249700000Y-122270000D01*
X223720000Y-124320000D02*
X225275000Y-125875000D01*
X224040000Y-107400000D02*
X224040000Y-108815000D01*
X225275000Y-125875000D02*
X225275000Y-127050000D01*
%TO.N,index_bottom*%
X213725000Y-146250000D02*
X216249100Y-148774100D01*
X216249100Y-148774100D02*
X217424100Y-148774100D01*
X225810000Y-155000000D02*
X223650000Y-155000000D01*
X217424100Y-148774100D02*
X223650000Y-155000000D01*
%TO.N,index_row3*%
X225810000Y-138000000D02*
X223650000Y-138000000D01*
X215600000Y-131125000D02*
X216775000Y-131125000D01*
X216775000Y-131125000D02*
X223650000Y-138000000D01*
X213725000Y-129250000D02*
X215600000Y-131125000D01*
%TO.N,index_row2*%
X213725000Y-112250000D02*
X216249100Y-114774100D01*
X216249100Y-114774100D02*
X217424100Y-114774100D01*
X217424100Y-114774100D02*
X223650000Y-121000000D01*
%TO.N,index_row1*%
X216249100Y-97774100D02*
X217424100Y-97774100D01*
X213725000Y-95250000D02*
X216249100Y-97774100D01*
X225810000Y-104000000D02*
X223650000Y-104000000D01*
X217424100Y-97774100D02*
X223650000Y-104000000D01*
%TO.N,index_number*%
X225810000Y-87000000D02*
X223650000Y-87000000D01*
X217424100Y-80774100D02*
X223650000Y-87000000D01*
X213725000Y-78250000D02*
X216249100Y-80774100D01*
X216249100Y-80774100D02*
X217424100Y-80774100D01*
%TO.N,P4*%
X241010000Y-107220000D02*
X243275000Y-109485000D01*
X240090000Y-73590000D02*
X240815000Y-73590000D01*
X240815000Y-73590000D02*
X243275000Y-76050000D01*
X243275000Y-109485000D02*
X243275000Y-110050000D01*
X243275000Y-126665000D02*
X243275000Y-127050000D01*
X240620000Y-154500000D02*
X240761088Y-154641088D01*
X240761088Y-154641088D02*
X244012338Y-154641088D01*
X241090000Y-124480000D02*
X243275000Y-126665000D01*
%TO.N,inner_row3*%
X234775000Y-131125000D02*
X241650000Y-138000000D01*
X241650000Y-138000000D02*
X243810000Y-138000000D01*
X231725000Y-129250000D02*
X233600000Y-131125000D01*
X233600000Y-131125000D02*
X234775000Y-131125000D01*
%TO.N,inner_row2*%
X234067501Y-114592501D02*
X235242501Y-114592501D01*
X241650000Y-121000000D02*
X243810000Y-121000000D01*
X231725000Y-112250000D02*
X234067501Y-114592501D01*
X235242501Y-114592501D02*
X241650000Y-121000000D01*
%TO.N,inner_row1*%
X234775000Y-97125000D02*
X241650000Y-104000000D01*
X231725000Y-95250000D02*
X233600000Y-97125000D01*
X241650000Y-104000000D02*
X243810000Y-104000000D01*
X233600000Y-97125000D02*
X234775000Y-97125000D01*
%TO.N,inner_number*%
X235424100Y-80774100D02*
X241650000Y-87000000D01*
X241650000Y-87000000D02*
X243810000Y-87000000D01*
X234249100Y-80774100D02*
X235424100Y-80774100D01*
X231725000Y-78250000D02*
X234249100Y-80774100D01*
%TO.N,space_cluster*%
X252744416Y-161536014D02*
X251355995Y-162924435D01*
X252744416Y-161269779D02*
X252744416Y-161536014D01*
X238273439Y-164903034D02*
X241480837Y-164903034D01*
X242533871Y-163850000D02*
X250430430Y-163850000D01*
X250430430Y-163850000D02*
X251355995Y-162924435D01*
X241480837Y-164903034D02*
X242533871Y-163850000D01*
%TO.N,P5*%
X256104053Y-166854053D02*
X258567183Y-166854053D01*
X255520000Y-166270000D02*
X256104053Y-166854053D01*
%TO.N,layer_cluster*%
X257694867Y-175456814D02*
X265591426Y-175456814D01*
X252828284Y-177115999D02*
X256035682Y-177115999D01*
X267299261Y-173482744D02*
X267299261Y-173748979D01*
X267299261Y-173748979D02*
X265910840Y-175137400D01*
X265591426Y-175456814D02*
X265910840Y-175137400D01*
X256035682Y-177115999D02*
X257694867Y-175456814D01*
%TO.N,P15*%
X200190000Y-155000000D02*
X202350000Y-155000000D01*
X146190000Y-155000000D02*
X147467500Y-156277500D01*
X262401219Y-179320002D02*
X262401219Y-179053767D01*
X198912500Y-156277500D02*
X200190000Y-155000000D01*
X182190000Y-155000000D02*
X184350000Y-155000000D01*
X164190000Y-155000000D02*
X165467500Y-156277500D01*
X247846374Y-167107037D02*
X247846374Y-174585425D01*
X200190000Y-155000000D02*
X201467500Y-156277500D01*
X220350000Y-155000000D02*
X218190000Y-155000000D01*
X162912500Y-156277500D02*
X164190000Y-155000000D01*
X265961104Y-90077500D02*
X252190000Y-90077500D01*
X201467500Y-156277500D02*
X216912500Y-156277500D01*
X248752963Y-167107037D02*
X247846374Y-167107037D01*
X247846374Y-174585425D02*
X252580951Y-179320002D01*
X164190000Y-155000000D02*
X166350000Y-155000000D01*
X252120000Y-90147500D02*
X252120000Y-132133054D01*
X252190000Y-90077500D02*
X252120000Y-90147500D01*
X252120000Y-132133054D02*
X249440000Y-134813054D01*
X262401219Y-179053767D02*
X263789640Y-177665346D01*
X223709239Y-160519239D02*
X231438308Y-160519239D01*
X249440000Y-134813054D02*
X249440000Y-150680000D01*
X147467500Y-156277500D02*
X162912500Y-156277500D01*
X249440000Y-150680000D02*
X254021916Y-155261916D01*
X266301802Y-93771802D02*
X266301802Y-90418198D01*
X247846374Y-166840802D02*
X249234795Y-165452381D01*
X183467500Y-156277500D02*
X198912500Y-156277500D01*
X146190000Y-155000000D02*
X148350000Y-155000000D01*
X182190000Y-155000000D02*
X183467500Y-156277500D01*
X254021916Y-161838084D02*
X248752963Y-167107037D01*
X252580951Y-179320002D02*
X262401219Y-179320002D01*
X165467500Y-156277500D02*
X180912500Y-156277500D01*
X218190000Y-155000000D02*
X223709239Y-160519239D01*
X266301802Y-90418198D02*
X265961104Y-90077500D01*
X231438308Y-160519239D02*
X238026106Y-167107037D01*
X180912500Y-156277500D02*
X182190000Y-155000000D01*
X254021916Y-155261916D02*
X254021916Y-161838084D01*
X268380000Y-95850000D02*
X266301802Y-93771802D01*
X238026106Y-167107037D02*
X247846374Y-167107037D01*
X216912500Y-156277500D02*
X218190000Y-155000000D01*
X247846374Y-167107037D02*
X247846374Y-166840802D01*
%TO.N,P18*%
X180912500Y-139277500D02*
X182190000Y-138000000D01*
X146190000Y-138000000D02*
X148350000Y-138000000D01*
X220350000Y-138000000D02*
X218190000Y-138000000D01*
X219467500Y-139277500D02*
X234912500Y-139277500D01*
X183467500Y-139277500D02*
X198912500Y-139277500D01*
X251670000Y-89636396D02*
X251670000Y-131946658D01*
X266910000Y-90390000D02*
X266147500Y-89627500D01*
X218190000Y-138000000D02*
X219467500Y-139277500D01*
X238350000Y-138000000D02*
X236190000Y-138000000D01*
X234912500Y-139277500D02*
X236190000Y-138000000D01*
X147467500Y-139277500D02*
X162912500Y-139277500D01*
X251678896Y-89627500D02*
X251670000Y-89636396D01*
X201467500Y-139277500D02*
X216912500Y-139277500D01*
X200190000Y-138000000D02*
X201467500Y-139277500D01*
X266147500Y-89627500D02*
X251678896Y-89627500D01*
X184350000Y-138000000D02*
X182190000Y-138000000D01*
X202350000Y-138000000D02*
X200190000Y-138000000D01*
X182190000Y-138000000D02*
X183467500Y-139277500D01*
X162912500Y-139277500D02*
X164190000Y-138000000D01*
X164190000Y-138000000D02*
X165467500Y-139277500D01*
X216912500Y-139277500D02*
X218190000Y-138000000D01*
X244339158Y-139277500D02*
X237467500Y-139277500D01*
X146190000Y-138000000D02*
X147467500Y-139277500D01*
X198912500Y-139277500D02*
X200190000Y-138000000D01*
X237467500Y-139277500D02*
X236190000Y-138000000D01*
X165467500Y-139277500D02*
X180912500Y-139277500D01*
X266910000Y-91840000D02*
X266910000Y-90390000D01*
X251670000Y-131946658D02*
X244339158Y-139277500D01*
X164190000Y-138000000D02*
X166350000Y-138000000D01*
X268380000Y-93310000D02*
X266910000Y-91840000D01*
%TO.N,P19*%
X198912500Y-122277500D02*
X200190000Y-121000000D01*
X202350000Y-121000000D02*
X200190000Y-121000000D01*
X218190000Y-121000000D02*
X219467500Y-122277500D01*
X201467500Y-122277500D02*
X216912500Y-122277500D01*
X244226658Y-122390000D02*
X237580000Y-122390000D01*
X182190000Y-121000000D02*
X183467500Y-122277500D01*
X184350000Y-121000000D02*
X182190000Y-121000000D01*
X234912500Y-122277500D02*
X236190000Y-121000000D01*
X220350000Y-121000000D02*
X218190000Y-121000000D01*
X183467500Y-122277500D02*
X198912500Y-122277500D01*
X146190000Y-121000000D02*
X147467500Y-122277500D01*
X236190000Y-121000000D02*
X238350000Y-121000000D01*
X147467500Y-122277500D02*
X162912500Y-122277500D01*
X216912500Y-122277500D02*
X218190000Y-121000000D01*
X219467500Y-122277500D02*
X234912500Y-122277500D01*
X251220000Y-115396658D02*
X244226658Y-122390000D01*
X266367500Y-89177500D02*
X251492500Y-89177500D01*
X200190000Y-121000000D02*
X201467500Y-122277500D01*
X166350000Y-121000000D02*
X164190000Y-121000000D01*
X237580000Y-122390000D02*
X236190000Y-121000000D01*
X180912500Y-122277500D02*
X182190000Y-121000000D01*
X251492500Y-89177500D02*
X251220000Y-89450000D01*
X146190000Y-121000000D02*
X148350000Y-121000000D01*
X162912500Y-122277500D02*
X164190000Y-121000000D01*
X165467500Y-122277500D02*
X180912500Y-122277500D01*
X251220000Y-89450000D02*
X251220000Y-115396658D01*
X268380000Y-90770000D02*
X267360000Y-90770000D01*
X164190000Y-121000000D02*
X165467500Y-122277500D01*
X267360000Y-90170000D02*
X266367500Y-89177500D01*
X267360000Y-90770000D02*
X267360000Y-90170000D01*
%TO.N,P20*%
X146190000Y-104000000D02*
X147467500Y-105277500D01*
X244339158Y-105277500D02*
X237467500Y-105277500D01*
X184350000Y-104000000D02*
X182190000Y-104000000D01*
X268380000Y-88230000D02*
X267530000Y-89080000D01*
X250770000Y-89080000D02*
X250770000Y-98846658D01*
X164190000Y-104000000D02*
X165467500Y-105277500D01*
X250770000Y-98846658D02*
X244339158Y-105277500D01*
X146190000Y-104000000D02*
X148350000Y-104000000D01*
X200190000Y-104000000D02*
X201467500Y-105277500D01*
X202350000Y-104000000D02*
X200190000Y-104000000D01*
X237467500Y-105277500D02*
X236190000Y-104000000D01*
X182190000Y-104000000D02*
X183467500Y-105277500D01*
X234912500Y-105277500D02*
X236190000Y-104000000D01*
X183467500Y-105277500D02*
X198912500Y-105277500D01*
X266917500Y-88727500D02*
X251122500Y-88727500D01*
X180912500Y-105277500D02*
X182190000Y-104000000D01*
X201467500Y-105277500D02*
X216912500Y-105277500D01*
X216912500Y-105277500D02*
X218190000Y-104000000D01*
X218190000Y-104000000D02*
X219467500Y-105277500D01*
X219467500Y-105277500D02*
X234912500Y-105277500D01*
X267270000Y-89080000D02*
X266917500Y-88727500D01*
X162912500Y-105277500D02*
X164190000Y-104000000D01*
X166350000Y-104000000D02*
X164190000Y-104000000D01*
X198912500Y-105277500D02*
X200190000Y-104000000D01*
X251122500Y-88727500D02*
X250770000Y-89080000D01*
X236190000Y-104000000D02*
X238350000Y-104000000D01*
X267530000Y-89080000D02*
X267270000Y-89080000D01*
X147467500Y-105277500D02*
X162912500Y-105277500D01*
X165467500Y-105277500D02*
X180912500Y-105277500D01*
X220350000Y-104000000D02*
X218190000Y-104000000D01*
%TO.N,P21*%
X180912500Y-88277500D02*
X182190000Y-87000000D01*
X182190000Y-87000000D02*
X183467500Y-88277500D01*
X165467500Y-88277500D02*
X180912500Y-88277500D01*
X218190000Y-87000000D02*
X219467500Y-88277500D01*
X147467500Y-88277500D02*
X162912500Y-88277500D01*
X268380000Y-85690000D02*
X265792500Y-88277500D01*
X166350000Y-87000000D02*
X164190000Y-87000000D01*
X198912500Y-88277500D02*
X200190000Y-87000000D01*
X219467500Y-88277500D02*
X234912500Y-88277500D01*
X182190000Y-87000000D02*
X184350000Y-87000000D01*
X201467500Y-88277500D02*
X216912500Y-88277500D01*
X265792500Y-88277500D02*
X237467500Y-88277500D01*
X234912500Y-88277500D02*
X236190000Y-87000000D01*
X183467500Y-88277500D02*
X198912500Y-88277500D01*
X162912500Y-88277500D02*
X164190000Y-87000000D01*
X202350000Y-87000000D02*
X200190000Y-87000000D01*
X238350000Y-87000000D02*
X236190000Y-87000000D01*
X220350000Y-87000000D02*
X218190000Y-87000000D01*
X200190000Y-87000000D02*
X201467500Y-88277500D01*
X216912500Y-88277500D02*
X218190000Y-87000000D01*
X164190000Y-87000000D02*
X165467500Y-88277500D01*
X146190000Y-87000000D02*
X147467500Y-88277500D01*
X146190000Y-87000000D02*
X148350000Y-87000000D01*
X237467500Y-88277500D02*
X236190000Y-87000000D01*
%TO.N,GND*%
X269402600Y-74150000D02*
X269581300Y-74328700D01*
X269581300Y-74328700D02*
X269581300Y-76868700D01*
X259100000Y-74150000D02*
X269402600Y-74150000D01*
X269581300Y-76868700D02*
X268380000Y-78070000D01*
X252900000Y-74150000D02*
X259100000Y-74150000D01*
%TD*%
M02*
