M48
; DRILL file {KiCad 7.0.7-2.fc38} date Sat 26 Aug 2023 10:08:58 PM CST
; FORMAT={-:-/ absolute / inch / decimal}
; #@! TF.CreationDate,2023-08-26T22:08:58+08:00
; #@! TF.GenerationSoftware,Kicad,Pcbnew,7.0.7-2.fc38
; #@! TF.FileFunction,NonPlated,1,2,NPTH
FMAT,2
INCH
; #@! TA.AperFunction,NonPlated,NPTH,ComponentDrill
T1C0.0591
; #@! TA.AperFunction,NonPlated,NPTH,ComponentDrill
T2C0.0670
; #@! TA.AperFunction,NonPlated,NPTH,ComponentDrill
T3C0.1181
; #@! TA.AperFunction,NonPlated,NPTH,ComponentDrill
T4C0.1350
%
G90
G05
T1
X11.0787Y-4.4764
X11.0787Y-4.5669
X11.3543Y-4.4764
X11.3543Y-4.5669
T2
X5.689Y-3.2283
X5.689Y-3.8976
X5.689Y-4.5669
X5.689Y-5.2362
X5.689Y-5.9055
X6.122Y-3.2283
X6.122Y-3.8976
X6.122Y-4.5669
X6.122Y-5.2362
X6.122Y-5.9055
X6.3976Y-3.2283
X6.3976Y-3.8976
X6.3976Y-4.5669
X6.3976Y-5.2362
X6.3976Y-5.9055
X6.8307Y-3.2283
X6.8307Y-3.8976
X6.8307Y-4.5669
X6.8307Y-5.2362
X6.8307Y-5.9055
X7.1063Y-3.2283
X7.1063Y-3.8976
X7.1063Y-4.5669
X7.1063Y-5.2362
X7.1063Y-5.9055
X7.5394Y-3.2283
X7.5394Y-3.8976
X7.5394Y-4.5669
X7.5394Y-5.2362
X7.5394Y-5.9055
X7.815Y-3.2283
X7.815Y-3.8976
X7.815Y-4.5669
X7.815Y-5.2362
X7.815Y-5.9055
X8.248Y-3.2283
X8.248Y-3.8976
X8.248Y-4.5669
X8.248Y-5.2362
X8.248Y-5.9055
X8.5236Y-3.2283
X8.5236Y-3.8976
X8.5236Y-4.5669
X8.5236Y-5.2362
X8.5236Y-5.9055
X8.9567Y-3.2283
X8.9567Y-3.8976
X8.9567Y-4.5669
X8.9567Y-5.2362
X8.9567Y-5.9055
X9.2323Y-3.2283
X9.2323Y-3.8976
X9.2323Y-4.5669
X9.2323Y-5.2362
X9.5642Y-6.5035
X9.6654Y-3.2283
X9.6654Y-3.8976
X9.6654Y-4.5669
X9.6654Y-5.2362
X9.8425Y-6.1717
X10.1372Y-6.9843
X10.4156Y-6.6525
T3
X5.7087Y-3.0807
X5.7087Y-3.75
X5.7087Y-4.4193
X5.7087Y-5.0886
X5.7087Y-5.7579
X5.9055Y-2.9941
X5.9055Y-2.9941
X5.9055Y-3.6634
X5.9055Y-3.6634
X5.9055Y-4.3327
X5.9055Y-4.3327
X5.9055Y-5.002
X5.9055Y-5.002
X5.9055Y-5.6713
X5.9055Y-5.6713
X6.1024Y-3.0807
X6.1024Y-3.75
X6.1024Y-4.4193
X6.1024Y-5.0886
X6.1024Y-5.7579
X6.4173Y-3.0807
X6.4173Y-3.75
X6.4173Y-4.4193
X6.4173Y-5.0886
X6.4173Y-5.7579
X6.6142Y-2.9941
X6.6142Y-2.9941
X6.6142Y-3.6634
X6.6142Y-3.6634
X6.6142Y-4.3327
X6.6142Y-4.3327
X6.6142Y-5.002
X6.6142Y-5.002
X6.6142Y-5.6713
X6.6142Y-5.6713
X6.811Y-3.0807
X6.811Y-3.75
X6.811Y-4.4193
X6.811Y-5.0886
X6.811Y-5.7579
X7.126Y-3.0807
X7.126Y-3.75
X7.126Y-4.4193
X7.126Y-5.0886
X7.126Y-5.7579
X7.3228Y-2.9941
X7.3228Y-2.9941
X7.3228Y-3.6634
X7.3228Y-3.6634
X7.3228Y-4.3327
X7.3228Y-4.3327
X7.3228Y-5.002
X7.3228Y-5.002
X7.3228Y-5.6713
X7.3228Y-5.6713
X7.5197Y-3.0807
X7.5197Y-3.75
X7.5197Y-4.4193
X7.5197Y-5.0886
X7.5197Y-5.7579
X7.8346Y-3.0807
X7.8346Y-3.75
X7.8346Y-4.4193
X7.8346Y-5.0886
X7.8346Y-5.7579
X8.0315Y-2.9941
X8.0315Y-2.9941
X8.0315Y-3.6634
X8.0315Y-3.6634
X8.0315Y-4.3327
X8.0315Y-4.3327
X8.0315Y-5.002
X8.0315Y-5.002
X8.0315Y-5.6713
X8.0315Y-5.6713
X8.2283Y-3.0807
X8.2283Y-3.75
X8.2283Y-4.4193
X8.2283Y-5.0886
X8.2283Y-5.7579
X8.5433Y-3.0807
X8.5433Y-3.75
X8.5433Y-4.4193
X8.5433Y-5.0886
X8.5433Y-5.7579
X8.7402Y-2.9941
X8.7402Y-2.9941
X8.7402Y-3.6634
X8.7402Y-3.6634
X8.7402Y-4.3327
X8.7402Y-4.3327
X8.7402Y-5.002
X8.7402Y-5.002
X8.7402Y-5.6713
X8.7402Y-5.6713
X8.937Y-3.0807
X8.937Y-3.75
X8.937Y-4.4193
X8.937Y-5.0886
X8.937Y-5.7579
X9.252Y-3.0807
X9.252Y-3.75
X9.252Y-4.4193
X9.252Y-5.0886
X9.4488Y-2.9941
X9.4488Y-2.9941
X9.4488Y-3.6634
X9.4488Y-3.6634
X9.4488Y-4.3327
X9.4488Y-4.3327
X9.4488Y-5.002
X9.4488Y-5.002
X9.4637Y-6.3935
X9.5239Y-6.187
X9.5239Y-6.187
X9.6457Y-3.0807
X9.6457Y-3.75
X9.6457Y-4.4193
X9.6457Y-5.0886
X9.7168Y-6.0919
X10.0367Y-6.8743
X10.0969Y-6.6678
X10.0969Y-6.6678
X10.2898Y-6.5727
T4
X5.9055Y-3.2283
X5.9055Y-3.8976
X5.9055Y-4.5669
X5.9055Y-5.2362
X5.9055Y-5.9055
X6.6142Y-3.2283
X6.6142Y-3.8976
X6.6142Y-4.5669
X6.6142Y-5.2362
X6.6142Y-5.9055
X7.3228Y-3.2283
X7.3228Y-3.8976
X7.3228Y-4.5669
X7.3228Y-5.2362
X7.3228Y-5.9055
X8.0315Y-3.2283
X8.0315Y-3.8976
X8.0315Y-4.5669
X8.0315Y-5.2362
X8.0315Y-5.9055
X8.7402Y-3.2283
X8.7402Y-3.8976
X8.7402Y-4.5669
X8.7402Y-5.2362
X8.7402Y-5.9055
X9.4488Y-3.2283
X9.4488Y-3.8976
X9.4488Y-4.5669
X9.4488Y-5.2362
X9.7034Y-6.3376
X10.2764Y-6.8184
T0
M30
